SplineFontDB: 3.2
FontName: DejaPro-Ultra
FullName: DejaPro Ultra
FamilyName: DejaPro Ultra
Weight: Black
Copyright: Property of Defensecorps.
UComments: "2023-7-26: Created with FontForge (http://fontforge.org)"
Version: 1.00
ItalicAngle: 0
UnderlinePosition: -237
UnderlineWidth: 119
Ascent: 1638
Descent: 410
InvalidEm: 0
LayerCount: 2
Layer: 0 1 "Back" 1
Layer: 1 1 "Fore" 0
XUID: [1021 164 111113757 18505]
StyleMap: 0x0040
FSType: 0
OS2Version: 0
OS2_WeightWidthSlopeOnly: 0
OS2_UseTypoMetrics: 1
CreationTime: 1690353932
ModificationTime: 1690369584
PfmFamily: 17
TTFWeight: 900
TTFWidth: 5
LineGap: 0
VLineGap: 0
OS2TypoAscent: 1491
OS2TypoAOffset: 0
OS2TypoDescent: -431
OS2TypoDOffset: 0
OS2TypoLinegap: 269
OS2WinAscent: 2210
OS2WinAOffset: 0
OS2WinDescent: 514
OS2WinDOffset: 0
HheadAscent: 2210
HheadAOffset: 0
HheadDescent: -514
HheadDOffset: 0
OS2SubXSize: 1434
OS2SubYSize: 1331
OS2SubXOff: 0
OS2SubYOff: 283
OS2SupXSize: 1434
OS2SupYSize: 1331
OS2SupXOff: 0
OS2SupYOff: 977
OS2StrikeYSize: 102
OS2StrikeYPos: 530
OS2CapHeight: 1434
OS2XHeight: 1024
OS2Vendor: 'PfEd'
Lookup: 6 256 0 "SegoeUIBlack-'ccmp' Glyph Composition/Decomposition in Latin lookup 0" { "SegoeUIBlack-'ccmp' Glyph Composition/Decomposition in Latin lookup 0 subtable"  } ['ccmp' ('latn' <'dflt' > ) ]
Lookup: 4 0 0 "SegoeUIBlack-'ccmp' Glyph Composition/Decomposition in Latin lookup 1" { "SegoeUIBlack-'ccmp' Glyph Composition/Decomposition in Latin lookup 1 subtable"  } ['ccmp' ('latn' <'dflt' > ) ]
Lookup: 1 0 0 "SegoeUIBlack-'subs' Subscript in Latin lookup 2" { "SegoeUIBlack-'subs' Subscript in Latin lookup 2 subtable"  } ['subs' ('latn' <'dflt' > ) ]
Lookup: 1 0 0 "SegoeUIBlack-'sups' Superscript in Latin lookup 3" { "SegoeUIBlack-'sups' Superscript in Latin lookup 3 subtable"  } ['sups' ('latn' <'dflt' > ) ]

StartChar: SF100000
Encoding: 9472 9472 0
Width: 1024
Flags: W
LayerCount: 2
Fore
SplineSet
-10 463 m 1,0,-1
 -10 597 l 1,1,-1
 1034 597 l 1,2,-1
 1034 463 l 1,3,-1
 -10 463 l 1,0,-1
EndSplineSet
EndChar

StartChar: uni2501
Encoding: 9473 9473 1
Width: 1024
Flags: W
LayerCount: 2
Fore
SplineSet
-10 423 m 1,0,-1
 -10 637 l 1,1,-1
 1034 637 l 1,2,-1
 1034 423 l 1,3,-1
 -10 423 l 1,0,-1
EndSplineSet
EndChar

StartChar: SF110000
Encoding: 9474 9474 2
Width: 1024
Flags: W
LayerCount: 2
Fore
SplineSet
445 1501 m 1,0,-1
 579 1501 l 1,1,-1
 579 -440 l 1,2,-1
 445 -440 l 1,3,-1
 445 1501 l 1,0,-1
EndSplineSet
EndChar

StartChar: uni2503
Encoding: 9475 9475 3
Width: 1024
Flags: W
LayerCount: 2
Fore
SplineSet
405 1501 m 1,0,-1
 619 1501 l 1,1,-1
 619 -440 l 1,2,-1
 405 -440 l 1,3,-1
 405 1501 l 1,0,-1
EndSplineSet
EndChar

StartChar: uni2504
Encoding: 9476 9476 4
Width: 1024
Flags: W
LayerCount: 2
Fore
SplineSet
385 597 m 1,0,-1
 639 597 l 1,1,-1
 639 463 l 1,2,-1
 385 463 l 1,3,-1
 385 597 l 1,0,-1
-10 597 m 1,4,-1
 244 597 l 1,5,-1
 244 463 l 1,6,-1
 -10 463 l 1,7,-1
 -10 597 l 1,4,-1
780 597 m 1,8,-1
 1034 597 l 1,9,-1
 1034 463 l 1,10,-1
 780 463 l 1,11,-1
 780 597 l 1,8,-1
EndSplineSet
EndChar

StartChar: uni2505
Encoding: 9477 9477 5
Width: 1024
Flags: W
LayerCount: 2
Fore
SplineSet
385 637 m 1,0,-1
 639 637 l 1,1,-1
 639 423 l 1,2,-1
 385 423 l 1,3,-1
 385 637 l 1,0,-1
-10 637 m 1,4,-1
 244 637 l 1,5,-1
 244 423 l 1,6,-1
 -10 423 l 1,7,-1
 -10 637 l 1,4,-1
780 637 m 1,8,-1
 1034 637 l 1,9,-1
 1034 423 l 1,10,-1
 780 423 l 1,11,-1
 780 637 l 1,8,-1
EndSplineSet
EndChar

StartChar: uni2506
Encoding: 9478 9478 6
Width: 1024
Flags: W
LayerCount: 2
Fore
SplineSet
445 64 m 1,0,-1
 579 64 l 1,1,-1
 579 -440 l 1,2,-1
 445 -440 l 1,3,-1
 445 64 l 1,0,-1
579 279 m 1,4,-1
 445 279 l 1,5,-1
 445 782 l 1,6,-1
 579 782 l 1,7,-1
 579 279 l 1,4,-1
579 997 m 1,8,-1
 445 997 l 1,9,-1
 445 1501 l 1,10,-1
 579 1501 l 1,11,-1
 579 997 l 1,8,-1
EndSplineSet
EndChar

StartChar: uni2507
Encoding: 9479 9479 7
Width: 1024
Flags: W
LayerCount: 2
Fore
SplineSet
405 64 m 1,0,-1
 619 64 l 1,1,-1
 619 -440 l 1,2,-1
 405 -440 l 1,3,-1
 405 64 l 1,0,-1
619 279 m 1,4,-1
 405 279 l 1,5,-1
 405 782 l 1,6,-1
 619 782 l 1,7,-1
 619 279 l 1,4,-1
619 997 m 1,8,-1
 405 997 l 1,9,-1
 405 1501 l 1,10,-1
 619 1501 l 1,11,-1
 619 997 l 1,8,-1
EndSplineSet
EndChar

StartChar: uni2508
Encoding: 9480 9480 8
Width: 1024
Flags: W
LayerCount: 2
Fore
SplineSet
-10 597 m 1,0,-1
 139 597 l 1,1,-1
 139 463 l 1,2,-1
 -10 463 l 1,3,-1
 -10 597 l 1,0,-1
288 597 m 1,4,-1
 437 597 l 1,5,-1
 437 463 l 1,6,-1
 288 463 l 1,7,-1
 288 597 l 1,4,-1
587 597 m 1,8,-1
 736 597 l 1,9,-1
 736 463 l 1,10,-1
 587 463 l 1,11,-1
 587 597 l 1,8,-1
885 597 m 1,12,-1
 1034 597 l 1,13,-1
 1034 463 l 1,14,-1
 885 463 l 1,15,-1
 885 597 l 1,12,-1
EndSplineSet
EndChar

StartChar: uni2509
Encoding: 9481 9481 9
Width: 1024
Flags: W
LayerCount: 2
Fore
SplineSet
-10 637 m 1,0,-1
 139 637 l 1,1,-1
 139 423 l 1,2,-1
 -10 423 l 1,3,-1
 -10 637 l 1,0,-1
288 637 m 1,4,-1
 437 637 l 1,5,-1
 437 423 l 1,6,-1
 288 423 l 1,7,-1
 288 637 l 1,4,-1
587 637 m 1,8,-1
 736 637 l 1,9,-1
 736 423 l 1,10,-1
 587 423 l 1,11,-1
 587 637 l 1,8,-1
885 637 m 1,12,-1
 1034 637 l 1,13,-1
 1034 423 l 1,14,-1
 885 423 l 1,15,-1
 885 637 l 1,12,-1
EndSplineSet
EndChar

StartChar: uni250A
Encoding: 9482 9482 10
Width: 1024
Flags: W
LayerCount: 2
Fore
SplineSet
445 -106 m 1,0,-1
 579 -106 l 1,1,-1
 579 -440 l 1,2,-1
 445 -440 l 1,3,-1
 445 -106 l 1,0,-1
579 106 m 1,4,-1
 445 106 l 1,5,-1
 445 430 l 1,6,-1
 579 430 l 1,7,-1
 579 106 l 1,4,-1
579 1177 m 1,8,-1
 445 1177 l 1,9,-1
 445 1501 l 1,10,-1
 579 1501 l 1,11,-1
 579 1177 l 1,8,-1
579 641 m 1,12,-1
 445 641 l 1,13,-1
 445 965 l 1,14,-1
 579 965 l 1,15,-1
 579 641 l 1,12,-1
EndSplineSet
EndChar

StartChar: uni250B
Encoding: 9483 9483 11
Width: 1024
Flags: W
LayerCount: 2
Fore
SplineSet
405 -106 m 1,0,-1
 619 -106 l 1,1,-1
 619 -440 l 1,2,-1
 405 -440 l 1,3,-1
 405 -106 l 1,0,-1
619 106 m 1,4,-1
 405 106 l 1,5,-1
 405 430 l 1,6,-1
 619 430 l 1,7,-1
 619 106 l 1,4,-1
619 1177 m 1,8,-1
 405 1177 l 1,9,-1
 405 1501 l 1,10,-1
 619 1501 l 1,11,-1
 619 1177 l 1,8,-1
619 641 m 1,12,-1
 405 641 l 1,13,-1
 405 965 l 1,14,-1
 619 965 l 1,15,-1
 619 641 l 1,12,-1
EndSplineSet
EndChar

StartChar: SF010000
Encoding: 9484 9484 12
Width: 1024
Flags: W
LayerCount: 2
Fore
SplineSet
579 463 m 1,0,-1
 579 -440 l 1,1,-1
 445 -440 l 1,2,-1
 445 597 l 1,3,-1
 1034 597 l 1,4,-1
 1034 463 l 1,5,-1
 579 463 l 1,0,-1
EndSplineSet
EndChar

StartChar: uni250D
Encoding: 9485 9485 13
Width: 1024
Flags: W
LayerCount: 2
Fore
SplineSet
579 423 m 1,0,-1
 579 -440 l 1,1,-1
 445 -440 l 1,2,-1
 445 637 l 1,3,-1
 1034 637 l 1,4,-1
 1034 423 l 1,5,-1
 579 423 l 1,0,-1
EndSplineSet
EndChar

StartChar: uni250E
Encoding: 9486 9486 14
Width: 1024
Flags: W
LayerCount: 2
Fore
SplineSet
619 463 m 1,0,-1
 619 -440 l 1,1,-1
 405 -440 l 1,2,-1
 405 597 l 1,3,-1
 1034 597 l 1,4,-1
 1034 463 l 1,5,-1
 619 463 l 1,0,-1
EndSplineSet
EndChar

StartChar: uni250F
Encoding: 9487 9487 15
Width: 1024
Flags: W
LayerCount: 2
Fore
SplineSet
619 423 m 1,0,-1
 619 -440 l 1,1,-1
 405 -440 l 1,2,-1
 405 637 l 1,3,-1
 1034 637 l 1,4,-1
 1034 423 l 1,5,-1
 619 423 l 1,0,-1
EndSplineSet
EndChar

StartChar: SF030000
Encoding: 9488 9488 16
Width: 1024
Flags: W
LayerCount: 2
Fore
SplineSet
-10 463 m 1,0,-1
 -10 597 l 1,1,-1
 579 597 l 1,2,-1
 579 -440 l 1,3,-1
 445 -440 l 1,4,-1
 445 463 l 1,5,-1
 -10 463 l 1,0,-1
EndSplineSet
EndChar

StartChar: uni2511
Encoding: 9489 9489 17
Width: 1024
Flags: W
LayerCount: 2
Fore
SplineSet
-10 423 m 1,0,-1
 -10 637 l 1,1,-1
 579 637 l 1,2,-1
 579 -440 l 1,3,-1
 445 -440 l 1,4,-1
 445 423 l 1,5,-1
 -10 423 l 1,0,-1
EndSplineSet
EndChar

StartChar: uni2512
Encoding: 9490 9490 18
Width: 1024
Flags: W
LayerCount: 2
Fore
SplineSet
-10 463 m 1,0,-1
 -10 597 l 1,1,-1
 619 597 l 1,2,-1
 619 -440 l 1,3,-1
 405 -440 l 1,4,-1
 405 463 l 1,5,-1
 -10 463 l 1,0,-1
EndSplineSet
EndChar

StartChar: uni2513
Encoding: 9491 9491 19
Width: 1024
Flags: W
LayerCount: 2
Fore
SplineSet
-10 423 m 1,0,-1
 -10 637 l 1,1,-1
 619 637 l 1,2,-1
 619 -440 l 1,3,-1
 405 -440 l 1,4,-1
 405 423 l 1,5,-1
 -10 423 l 1,0,-1
EndSplineSet
EndChar

StartChar: SF020000
Encoding: 9492 9492 20
Width: 1024
Flags: W
LayerCount: 2
Fore
SplineSet
445 1501 m 1,0,-1
 579 1501 l 1,1,-1
 579 597 l 1,2,-1
 1034 597 l 1,3,-1
 1034 463 l 1,4,-1
 445 463 l 1,5,-1
 445 1501 l 1,0,-1
EndSplineSet
EndChar

StartChar: uni2515
Encoding: 9493 9493 21
Width: 1024
Flags: W
LayerCount: 2
Fore
SplineSet
445 1501 m 1,0,-1
 579 1501 l 1,1,-1
 579 637 l 1,2,-1
 1034 637 l 1,3,-1
 1034 423 l 1,4,-1
 445 423 l 1,5,-1
 445 1501 l 1,0,-1
EndSplineSet
EndChar

StartChar: uni2516
Encoding: 9494 9494 22
Width: 1024
Flags: W
LayerCount: 2
Fore
SplineSet
405 1501 m 1,0,-1
 619 1501 l 1,1,-1
 619 597 l 1,2,-1
 1034 597 l 1,3,-1
 1034 463 l 1,4,-1
 405 463 l 1,5,-1
 405 1501 l 1,0,-1
EndSplineSet
EndChar

StartChar: uni2517
Encoding: 9495 9495 23
Width: 1024
Flags: W
LayerCount: 2
Fore
SplineSet
405 1501 m 1,0,-1
 619 1501 l 1,1,-1
 619 637 l 1,2,-1
 1034 637 l 1,3,-1
 1034 423 l 1,4,-1
 405 423 l 1,5,-1
 405 1501 l 1,0,-1
EndSplineSet
EndChar

StartChar: SF040000
Encoding: 9496 9496 24
Width: 1024
Flags: W
LayerCount: 2
Fore
SplineSet
579 463 m 1,0,-1
 -10 463 l 1,1,-1
 -10 597 l 1,2,-1
 445 597 l 1,3,-1
 445 1501 l 1,4,-1
 579 1501 l 1,5,-1
 579 463 l 1,0,-1
EndSplineSet
EndChar

StartChar: uni2519
Encoding: 9497 9497 25
Width: 1024
Flags: W
LayerCount: 2
Fore
SplineSet
579 423 m 1,0,-1
 -10 423 l 1,1,-1
 -10 637 l 1,2,-1
 445 637 l 1,3,-1
 445 1501 l 1,4,-1
 579 1501 l 1,5,-1
 579 423 l 1,0,-1
EndSplineSet
EndChar

StartChar: uni251A
Encoding: 9498 9498 26
Width: 1024
Flags: W
LayerCount: 2
Fore
SplineSet
619 463 m 1,0,-1
 -10 463 l 1,1,-1
 -10 597 l 1,2,-1
 405 597 l 1,3,-1
 405 1501 l 1,4,-1
 619 1501 l 1,5,-1
 619 463 l 1,0,-1
EndSplineSet
EndChar

StartChar: uni251B
Encoding: 9499 9499 27
Width: 1024
Flags: W
LayerCount: 2
Fore
SplineSet
619 423 m 1,0,-1
 -10 423 l 1,1,-1
 -10 637 l 1,2,-1
 405 637 l 1,3,-1
 405 1501 l 1,4,-1
 619 1501 l 1,5,-1
 619 423 l 1,0,-1
EndSplineSet
EndChar

StartChar: SF080000
Encoding: 9500 9500 28
Width: 1024
Flags: W
LayerCount: 2
Fore
SplineSet
579 463 m 1,0,-1
 579 -440 l 1,1,-1
 445 -440 l 1,2,-1
 445 1501 l 1,3,-1
 579 1501 l 1,4,-1
 579 597 l 1,5,-1
 1034 597 l 1,6,-1
 1034 463 l 1,7,-1
 579 463 l 1,0,-1
EndSplineSet
EndChar

StartChar: uni251D
Encoding: 9501 9501 29
Width: 1024
Flags: W
LayerCount: 2
Fore
SplineSet
579 423 m 1,0,-1
 579 -440 l 1,1,-1
 445 -440 l 1,2,-1
 445 1501 l 1,3,-1
 579 1501 l 1,4,-1
 579 637 l 1,5,-1
 1034 637 l 1,6,-1
 1034 423 l 1,7,-1
 579 423 l 1,0,-1
EndSplineSet
EndChar

StartChar: uni251E
Encoding: 9502 9502 30
Width: 1024
Flags: W
LayerCount: 2
Fore
SplineSet
579 463 m 1,0,-1
 579 -440 l 1,1,-1
 445 -440 l 1,2,-1
 445 463 l 1,3,-1
 405 463 l 1,4,-1
 405 1501 l 1,5,-1
 619 1501 l 1,6,-1
 619 597 l 1,7,-1
 1034 597 l 1,8,-1
 1034 463 l 1,9,-1
 579 463 l 1,0,-1
EndSplineSet
EndChar

StartChar: uni251F
Encoding: 9503 9503 31
Width: 1024
Flags: W
LayerCount: 2
Fore
SplineSet
619 463 m 1,0,-1
 619 -440 l 1,1,-1
 405 -440 l 1,2,-1
 405 597 l 1,3,-1
 445 597 l 1,4,-1
 445 1501 l 1,5,-1
 579 1501 l 1,6,-1
 579 597 l 1,7,-1
 1034 597 l 1,8,-1
 1034 463 l 1,9,-1
 619 463 l 1,0,-1
EndSplineSet
EndChar

StartChar: uni2520
Encoding: 9504 9504 32
Width: 1024
Flags: W
LayerCount: 2
Fore
SplineSet
619 463 m 1,0,-1
 619 -440 l 1,1,-1
 405 -440 l 1,2,-1
 405 1501 l 1,3,-1
 619 1501 l 1,4,-1
 619 597 l 1,5,-1
 1034 597 l 1,6,-1
 1034 463 l 1,7,-1
 619 463 l 1,0,-1
EndSplineSet
EndChar

StartChar: uni2521
Encoding: 9505 9505 33
Width: 1024
Flags: W
LayerCount: 2
Fore
SplineSet
579 423 m 1,0,-1
 579 -438 l 1,1,-1
 445 -438 l 1,2,-1
 445 423 l 1,3,-1
 405 423 l 1,4,-1
 405 1501 l 1,5,-1
 619 1501 l 1,6,-1
 619 637 l 1,7,-1
 1034 637 l 1,8,-1
 1034 423 l 1,9,-1
 579 423 l 1,0,-1
EndSplineSet
EndChar

StartChar: uni2522
Encoding: 9506 9506 34
Width: 1024
Flags: W
LayerCount: 2
Fore
SplineSet
405 637 m 1,0,-1
 445 637 l 1,1,-1
 445 1501 l 1,2,-1
 579 1501 l 1,3,-1
 579 637 l 1,4,-1
 1034 637 l 1,5,-1
 1034 423 l 1,6,-1
 619 423 l 1,7,-1
 619 -441 l 1,8,-1
 405 -441 l 1,9,-1
 405 637 l 1,0,-1
EndSplineSet
EndChar

StartChar: uni2523
Encoding: 9507 9507 35
Width: 1024
Flags: W
LayerCount: 2
Fore
SplineSet
1034 637 m 1,0,-1
 1034 423 l 1,1,-1
 619 423 l 1,2,-1
 619 -441 l 1,3,-1
 405 -441 l 1,4,-1
 405 1501 l 1,5,-1
 619 1501 l 1,6,-1
 619 637 l 1,7,-1
 1034 637 l 1,0,-1
EndSplineSet
EndChar

StartChar: SF090000
Encoding: 9508 9508 36
Width: 1024
Flags: W
LayerCount: 2
Fore
SplineSet
445 463 m 1,0,-1
 -10 463 l 1,1,-1
 -10 597 l 1,2,-1
 445 597 l 1,3,-1
 445 1501 l 1,4,-1
 579 1501 l 1,5,-1
 579 -440 l 1,6,-1
 445 -440 l 1,7,-1
 445 463 l 1,0,-1
EndSplineSet
EndChar

StartChar: uni2525
Encoding: 9509 9509 37
Width: 1024
Flags: W
LayerCount: 2
Fore
SplineSet
445 423 m 1,0,-1
 -10 423 l 1,1,-1
 -10 637 l 1,2,-1
 445 637 l 1,3,-1
 445 1501 l 1,4,-1
 579 1501 l 1,5,-1
 579 -440 l 1,6,-1
 445 -440 l 1,7,-1
 445 423 l 1,0,-1
EndSplineSet
EndChar

StartChar: uni2526
Encoding: 9510 9510 38
Width: 1024
Flags: W
LayerCount: 2
Fore
SplineSet
579 463 m 1,0,-1
 579 -440 l 1,1,-1
 445 -440 l 1,2,-1
 445 463 l 1,3,-1
 -10 463 l 1,4,-1
 -10 597 l 1,5,-1
 405 597 l 1,6,-1
 405 1501 l 1,7,-1
 619 1501 l 1,8,-1
 619 463 l 1,9,-1
 579 463 l 1,0,-1
EndSplineSet
EndChar

StartChar: uni2527
Encoding: 9511 9511 39
Width: 1024
Flags: W
LayerCount: 2
Fore
SplineSet
619 597 m 1,0,-1
 619 -440 l 1,1,-1
 405 -440 l 1,2,-1
 405 463 l 1,3,-1
 -10 463 l 1,4,-1
 -10 597 l 1,5,-1
 445 597 l 1,6,-1
 445 1501 l 1,7,-1
 579 1501 l 1,8,-1
 579 597 l 1,9,-1
 619 597 l 1,0,-1
EndSplineSet
EndChar

StartChar: uni2528
Encoding: 9512 9512 40
Width: 1024
Flags: W
LayerCount: 2
Fore
SplineSet
405 463 m 1,0,-1
 -10 463 l 1,1,-1
 -10 597 l 1,2,-1
 405 597 l 1,3,-1
 405 1501 l 1,4,-1
 619 1501 l 1,5,-1
 619 -440 l 1,6,-1
 405 -440 l 1,7,-1
 405 463 l 1,0,-1
EndSplineSet
EndChar

StartChar: uni2529
Encoding: 9513 9513 41
Width: 1024
Flags: W
LayerCount: 2
Fore
SplineSet
405 1501 m 1,0,-1
 619 1501 l 1,1,-1
 619 423 l 1,2,-1
 579 423 l 1,3,-1
 579 -440 l 1,4,-1
 445 -440 l 1,5,-1
 445 423 l 1,6,-1
 -10 423 l 1,7,-1
 -10 637 l 1,8,-1
 405 637 l 1,9,-1
 405 1501 l 1,0,-1
EndSplineSet
EndChar

StartChar: uni252A
Encoding: 9514 9514 42
Width: 1024
Flags: W
LayerCount: 2
Fore
SplineSet
405 423 m 1,0,-1
 -10 423 l 1,1,-1
 -10 637 l 1,2,-1
 445 637 l 1,3,-1
 445 1501 l 1,4,-1
 579 1501 l 1,5,-1
 579 637 l 1,6,-1
 619 637 l 1,7,-1
 619 -440 l 1,8,-1
 405 -440 l 1,9,-1
 405 423 l 1,0,-1
EndSplineSet
EndChar

StartChar: uni252B
Encoding: 9515 9515 43
Width: 1024
Flags: W
LayerCount: 2
Fore
SplineSet
405 423 m 1,0,-1
 -10 423 l 1,1,-1
 -10 637 l 1,2,-1
 405 637 l 1,3,-1
 405 1501 l 1,4,-1
 619 1501 l 1,5,-1
 619 -440 l 1,6,-1
 405 -440 l 1,7,-1
 405 423 l 1,0,-1
EndSplineSet
EndChar

StartChar: SF060000
Encoding: 9516 9516 44
Width: 1024
Flags: W
LayerCount: 2
Fore
SplineSet
579 463 m 1,0,-1
 579 -440 l 1,1,-1
 445 -440 l 1,2,-1
 445 463 l 1,3,-1
 -10 463 l 1,4,-1
 -10 597 l 1,5,-1
 1034 597 l 1,6,-1
 1034 463 l 1,7,-1
 579 463 l 1,0,-1
EndSplineSet
EndChar

StartChar: uni252D
Encoding: 9517 9517 45
Width: 1024
Flags: W
LayerCount: 2
Fore
SplineSet
579 463 m 1,0,-1
 579 -440 l 1,1,-1
 445 -440 l 1,2,-1
 445 423 l 1,3,-1
 -10 423 l 1,4,-1
 -10 637 l 1,5,-1
 579 637 l 1,6,-1
 579 597 l 1,7,-1
 1034 597 l 1,8,-1
 1034 463 l 1,9,-1
 579 463 l 1,0,-1
EndSplineSet
EndChar

StartChar: uni252E
Encoding: 9518 9518 46
Width: 1024
Flags: W
LayerCount: 2
Fore
SplineSet
-10 463 m 1,0,-1
 -10 597 l 1,1,-1
 445 597 l 1,2,-1
 445 637 l 1,3,-1
 1034 637 l 1,4,-1
 1034 423 l 1,5,-1
 579 423 l 1,6,-1
 579 -440 l 1,7,-1
 445 -440 l 1,8,-1
 445 463 l 1,9,-1
 -10 463 l 1,0,-1
EndSplineSet
EndChar

StartChar: uni252F
Encoding: 9519 9519 47
Width: 1024
Flags: W
LayerCount: 2
Fore
SplineSet
579 423 m 1,0,-1
 579 -440 l 1,1,-1
 445 -440 l 1,2,-1
 445 423 l 1,3,-1
 -10 423 l 1,4,-1
 -10 637 l 1,5,-1
 1034 637 l 1,6,-1
 1034 423 l 1,7,-1
 579 423 l 1,0,-1
EndSplineSet
EndChar

StartChar: uni2530
Encoding: 9520 9520 48
Width: 1024
Flags: W
LayerCount: 2
Fore
SplineSet
619 463 m 1,0,-1
 619 -440 l 1,1,-1
 405 -440 l 1,2,-1
 405 463 l 1,3,-1
 -10 463 l 1,4,-1
 -10 597 l 1,5,-1
 1034 597 l 1,6,-1
 1034 463 l 1,7,-1
 619 463 l 1,0,-1
EndSplineSet
EndChar

StartChar: uni2531
Encoding: 9521 9521 49
Width: 1024
Flags: W
LayerCount: 2
Fore
SplineSet
619 463 m 1,0,-1
 619 -440 l 1,1,-1
 405 -440 l 1,2,-1
 405 423 l 1,3,-1
 -10 423 l 1,4,-1
 -10 637 l 1,5,-1
 619 637 l 1,6,-1
 619 597 l 1,7,-1
 1034 597 l 1,8,-1
 1034 463 l 1,9,-1
 619 463 l 1,0,-1
EndSplineSet
EndChar

StartChar: uni2532
Encoding: 9522 9522 50
Width: 1024
Flags: W
LayerCount: 2
Fore
SplineSet
-10 463 m 1,0,-1
 -10 597 l 1,1,-1
 405 597 l 1,2,-1
 405 637 l 1,3,-1
 1034 637 l 1,4,-1
 1034 423 l 1,5,-1
 619 423 l 1,6,-1
 619 -440 l 1,7,-1
 405 -440 l 1,8,-1
 405 463 l 1,9,-1
 -10 463 l 1,0,-1
EndSplineSet
EndChar

StartChar: uni2533
Encoding: 9523 9523 51
Width: 1024
Flags: W
LayerCount: 2
Fore
SplineSet
619 423 m 1,0,-1
 619 -440 l 1,1,-1
 405 -440 l 1,2,-1
 405 423 l 1,3,-1
 -10 423 l 1,4,-1
 -10 637 l 1,5,-1
 1034 637 l 1,6,-1
 1034 423 l 1,7,-1
 619 423 l 1,0,-1
EndSplineSet
EndChar

StartChar: SF070000
Encoding: 9524 9524 52
Width: 1024
Flags: W
LayerCount: 2
Fore
SplineSet
-10 463 m 1,0,-1
 -10 597 l 1,1,-1
 445 597 l 1,2,-1
 445 1501 l 1,3,-1
 579 1501 l 1,4,-1
 579 597 l 1,5,-1
 1034 597 l 1,6,-1
 1034 463 l 1,7,-1
 -10 463 l 1,0,-1
EndSplineSet
EndChar

StartChar: uni2535
Encoding: 9525 9525 53
Width: 1024
Flags: W
LayerCount: 2
Fore
SplineSet
-10 423 m 1,0,-1
 -10 637 l 1,1,-1
 445 637 l 1,2,-1
 445 1501 l 1,3,-1
 579 1501 l 1,4,-1
 579 597 l 1,5,-1
 1034 597 l 1,6,-1
 1034 463 l 1,7,-1
 579 463 l 1,8,-1
 579 423 l 1,9,-1
 -10 423 l 1,0,-1
EndSplineSet
EndChar

StartChar: uni2536
Encoding: 9526 9526 54
Width: 1024
Flags: W
LayerCount: 2
Fore
SplineSet
445 423 m 1,0,-1
 445 463 l 1,1,-1
 -10 463 l 1,2,-1
 -10 597 l 1,3,-1
 445 597 l 1,4,-1
 445 1501 l 1,5,-1
 579 1501 l 1,6,-1
 579 637 l 1,7,-1
 1034 637 l 1,8,-1
 1034 423 l 1,9,-1
 445 423 l 1,0,-1
EndSplineSet
EndChar

StartChar: uni2537
Encoding: 9527 9527 55
Width: 1024
Flags: W
LayerCount: 2
Fore
SplineSet
-10 423 m 1,0,-1
 -10 637 l 1,1,-1
 445 637 l 1,2,-1
 445 1501 l 1,3,-1
 579 1501 l 1,4,-1
 579 637 l 1,5,-1
 1034 637 l 1,6,-1
 1034 423 l 1,7,-1
 -10 423 l 1,0,-1
EndSplineSet
EndChar

StartChar: uni2538
Encoding: 9528 9528 56
Width: 1024
Flags: W
LayerCount: 2
Fore
SplineSet
-10 463 m 1,0,-1
 -10 597 l 1,1,-1
 405 597 l 1,2,-1
 405 1501 l 1,3,-1
 619 1501 l 1,4,-1
 619 597 l 1,5,-1
 1034 597 l 1,6,-1
 1034 463 l 1,7,-1
 -10 463 l 1,0,-1
EndSplineSet
EndChar

StartChar: uni2539
Encoding: 9529 9529 57
Width: 1024
Flags: W
LayerCount: 2
Fore
SplineSet
-10 423 m 1,0,-1
 -10 637 l 1,1,-1
 405 637 l 1,2,-1
 405 1501 l 1,3,-1
 619 1501 l 1,4,-1
 619 597 l 1,5,-1
 1034 597 l 1,6,-1
 1034 463 l 1,7,-1
 619 463 l 1,8,-1
 619 423 l 1,9,-1
 -10 423 l 1,0,-1
EndSplineSet
EndChar

StartChar: uni253A
Encoding: 9530 9530 58
Width: 1024
Flags: W
LayerCount: 2
Fore
SplineSet
405 423 m 1,0,-1
 405 463 l 1,1,-1
 -10 463 l 1,2,-1
 -10 597 l 1,3,-1
 405 597 l 1,4,-1
 405 1501 l 1,5,-1
 619 1501 l 1,6,-1
 619 637 l 1,7,-1
 1034 637 l 1,8,-1
 1034 423 l 1,9,-1
 405 423 l 1,0,-1
EndSplineSet
EndChar

StartChar: uni253B
Encoding: 9531 9531 59
Width: 1024
Flags: W
LayerCount: 2
Fore
SplineSet
-10 423 m 1,0,-1
 -10 637 l 1,1,-1
 405 637 l 1,2,-1
 405 1501 l 1,3,-1
 619 1501 l 1,4,-1
 619 637 l 1,5,-1
 1034 637 l 1,6,-1
 1034 423 l 1,7,-1
 -10 423 l 1,0,-1
EndSplineSet
EndChar

StartChar: SF050000
Encoding: 9532 9532 60
Width: 1024
Flags: W
LayerCount: 2
Fore
SplineSet
579 463 m 1,0,-1
 579 -440 l 1,1,-1
 445 -440 l 1,2,-1
 445 463 l 1,3,-1
 -10 463 l 1,4,-1
 -10 597 l 1,5,-1
 445 597 l 1,6,-1
 445 1501 l 1,7,-1
 579 1501 l 1,8,-1
 579 597 l 1,9,-1
 1034 597 l 1,10,-1
 1034 463 l 1,11,-1
 579 463 l 1,0,-1
EndSplineSet
EndChar

StartChar: uni253D
Encoding: 9533 9533 61
Width: 1024
Flags: W
LayerCount: 2
Fore
SplineSet
445 423 m 1,0,-1
 -10 423 l 1,1,-1
 -10 637 l 1,2,-1
 445 637 l 1,3,-1
 445 1501 l 1,4,-1
 579 1501 l 1,5,-1
 579 597 l 1,6,-1
 1034 597 l 1,7,-1
 1034 463 l 1,8,-1
 579 463 l 1,9,-1
 579 -440 l 1,10,-1
 445 -440 l 1,11,-1
 445 423 l 1,0,-1
EndSplineSet
EndChar

StartChar: uni253E
Encoding: 9534 9534 62
Width: 1024
Flags: W
LayerCount: 2
Fore
SplineSet
579 -440 m 1,0,-1
 445 -440 l 1,1,-1
 445 463 l 1,2,-1
 -10 463 l 1,3,-1
 -10 597 l 1,4,-1
 445 597 l 1,5,-1
 445 1501 l 1,6,-1
 579 1501 l 1,7,-1
 579 637 l 1,8,-1
 1034 637 l 1,9,-1
 1034 423 l 1,10,-1
 579 423 l 1,11,-1
 579 -440 l 1,0,-1
EndSplineSet
EndChar

StartChar: uni253F
Encoding: 9535 9535 63
Width: 1024
Flags: W
LayerCount: 2
Fore
SplineSet
579 423 m 1,0,-1
 579 -440 l 1,1,-1
 445 -440 l 1,2,-1
 445 423 l 1,3,-1
 -10 423 l 1,4,-1
 -10 637 l 1,5,-1
 445 637 l 1,6,-1
 445 1501 l 1,7,-1
 579 1501 l 1,8,-1
 579 637 l 1,9,-1
 1034 637 l 1,10,-1
 1034 423 l 1,11,-1
 579 423 l 1,0,-1
EndSplineSet
EndChar

StartChar: uni2540
Encoding: 9536 9536 64
Width: 1024
Flags: W
LayerCount: 2
Fore
SplineSet
445 463 m 1,0,-1
 -10 463 l 1,1,-1
 -10 597 l 1,2,-1
 405 597 l 1,3,-1
 405 1501 l 1,4,-1
 619 1501 l 1,5,-1
 619 597 l 1,6,-1
 1034 597 l 1,7,-1
 1034 463 l 1,8,-1
 579 463 l 1,9,-1
 579 -440 l 1,10,-1
 445 -440 l 1,11,-1
 445 463 l 1,0,-1
EndSplineSet
EndChar

StartChar: uni2541
Encoding: 9537 9537 65
Width: 1024
Flags: W
LayerCount: 2
Fore
SplineSet
405 463 m 1,0,-1
 -10 463 l 1,1,-1
 -10 597 l 1,2,-1
 445 597 l 1,3,-1
 445 1501 l 1,4,-1
 579 1501 l 1,5,-1
 579 597 l 1,6,-1
 1034 597 l 1,7,-1
 1034 463 l 1,8,-1
 619 463 l 1,9,-1
 619 -440 l 1,10,-1
 405 -440 l 1,11,-1
 405 463 l 1,0,-1
EndSplineSet
EndChar

StartChar: uni2542
Encoding: 9538 9538 66
Width: 1024
Flags: W
LayerCount: 2
Fore
SplineSet
405 463 m 1,0,-1
 -10 463 l 1,1,-1
 -10 597 l 1,2,-1
 405 597 l 1,3,-1
 405 1501 l 1,4,-1
 619 1501 l 1,5,-1
 619 597 l 1,6,-1
 1034 597 l 1,7,-1
 1034 463 l 1,8,-1
 619 463 l 1,9,-1
 619 -440 l 1,10,-1
 405 -440 l 1,11,-1
 405 463 l 1,0,-1
EndSplineSet
EndChar

StartChar: uni2543
Encoding: 9539 9539 67
Width: 1024
Flags: W
LayerCount: 2
Fore
SplineSet
445 423 m 1,0,-1
 -10 423 l 1,1,-1
 -10 637 l 1,2,-1
 405 637 l 1,3,-1
 405 1501 l 1,4,-1
 619 1501 l 1,5,-1
 619 597 l 1,6,-1
 1034 597 l 1,7,-1
 1034 463 l 1,8,-1
 619 463 l 1,9,-1
 619 423 l 1,10,-1
 579 423 l 1,11,-1
 579 -440 l 1,12,-1
 445 -440 l 1,13,-1
 445 423 l 1,0,-1
EndSplineSet
EndChar

StartChar: uni2544
Encoding: 9540 9540 68
Width: 1024
Flags: W
LayerCount: 2
Fore
SplineSet
579 -440 m 1,0,-1
 445 -440 l 1,1,-1
 445 423 l 1,2,-1
 405 423 l 1,3,-1
 405 463 l 1,4,-1
 -10 463 l 1,5,-1
 -10 597 l 1,6,-1
 405 597 l 1,7,-1
 405 1501 l 1,8,-1
 619 1501 l 1,9,-1
 619 637 l 1,10,-1
 1034 637 l 1,11,-1
 1034 423 l 1,12,-1
 579 423 l 1,13,-1
 579 -440 l 1,0,-1
EndSplineSet
EndChar

StartChar: uni2545
Encoding: 9541 9541 69
Width: 1024
Flags: W
LayerCount: 2
Fore
SplineSet
405 -440 m 1,0,-1
 405 423 l 1,1,-1
 -10 423 l 1,2,-1
 -10 637 l 1,3,-1
 445 637 l 1,4,-1
 445 1501 l 1,5,-1
 579 1501 l 1,6,-1
 579 637 l 1,7,-1
 619 637 l 1,8,-1
 619 597 l 1,9,-1
 1034 597 l 1,10,-1
 1034 463 l 1,11,-1
 619 463 l 1,12,-1
 619 -440 l 1,13,-1
 405 -440 l 1,0,-1
EndSplineSet
EndChar

StartChar: uni2546
Encoding: 9542 9542 70
Width: 1024
Flags: W
LayerCount: 2
Fore
SplineSet
405 -440 m 1,0,-1
 405 423 l 1,1,-1
 -10 423 l 1,2,-1
 -10 637 l 1,3,-1
 445 637 l 1,4,-1
 445 1501 l 1,5,-1
 579 1501 l 1,6,-1
 579 637 l 1,7,-1
 619 637 l 1,8,-1
 619 597 l 1,9,-1
 1034 597 l 1,10,-1
 1034 463 l 1,11,-1
 619 463 l 1,12,-1
 619 -440 l 1,13,-1
 405 -440 l 1,0,-1
EndSplineSet
EndChar

StartChar: uni2547
Encoding: 9543 9543 71
Width: 1024
Flags: W
LayerCount: 2
Fore
SplineSet
579 -440 m 1,0,-1
 445 -440 l 1,1,-1
 445 423 l 1,2,-1
 -10 423 l 1,3,-1
 -10 637 l 1,4,-1
 405 637 l 1,5,-1
 405 1501 l 1,6,-1
 619 1501 l 1,7,-1
 619 637 l 1,8,-1
 1034 637 l 1,9,-1
 1034 423 l 1,10,-1
 579 423 l 1,11,-1
 579 -440 l 1,0,-1
EndSplineSet
EndChar

StartChar: uni2548
Encoding: 9544 9544 72
Width: 1024
Flags: W
LayerCount: 2
Fore
SplineSet
579 637 m 1,0,-1
 1034 637 l 1,1,-1
 1034 423 l 1,2,-1
 619 423 l 1,3,-1
 619 -440 l 1,4,-1
 405 -440 l 1,5,-1
 405 423 l 1,6,-1
 -10 423 l 1,7,-1
 -10 637 l 1,8,-1
 445 637 l 1,9,-1
 445 1501 l 1,10,-1
 579 1501 l 1,11,-1
 579 637 l 1,0,-1
EndSplineSet
EndChar

StartChar: uni2549
Encoding: 9545 9545 73
Width: 1024
Flags: W
LayerCount: 2
Fore
SplineSet
405 423 m 1,0,-1
 -10 423 l 1,1,-1
 -10 637 l 1,2,-1
 405 637 l 1,3,-1
 405 1501 l 1,4,-1
 619 1501 l 1,5,-1
 619 597 l 1,6,-1
 1034 597 l 1,7,-1
 1034 463 l 1,8,-1
 619 463 l 1,9,-1
 619 -440 l 1,10,-1
 405 -440 l 1,11,-1
 405 423 l 1,0,-1
EndSplineSet
EndChar

StartChar: uni254A
Encoding: 9546 9546 74
Width: 1024
Flags: W
LayerCount: 2
Fore
SplineSet
405 -440 m 1,0,-1
 405 463 l 1,1,-1
 -10 463 l 1,2,-1
 -10 597 l 1,3,-1
 405 597 l 1,4,-1
 405 1501 l 1,5,-1
 619 1501 l 1,6,-1
 619 637 l 1,7,-1
 1034 637 l 1,8,-1
 1034 423 l 1,9,-1
 619 423 l 1,10,-1
 619 -440 l 1,11,-1
 405 -440 l 1,0,-1
EndSplineSet
EndChar

StartChar: uni254B
Encoding: 9547 9547 75
Width: 1024
Flags: W
LayerCount: 2
Fore
SplineSet
619 423 m 1,0,-1
 619 -440 l 1,1,-1
 405 -440 l 1,2,-1
 405 423 l 1,3,-1
 -10 423 l 1,4,-1
 -10 637 l 1,5,-1
 405 637 l 1,6,-1
 405 1501 l 1,7,-1
 619 1501 l 1,8,-1
 619 637 l 1,9,-1
 1034 637 l 1,10,-1
 1034 423 l 1,11,-1
 619 423 l 1,0,-1
EndSplineSet
EndChar

StartChar: uni2581
Encoding: 9601 9601 76
Width: 1921
Flags: W
LayerCount: 2
Fore
SplineSet
-10 -180 m 1,0,-1
 1931 -180 l 1,1,-1
 1931 -440 l 1,2,-1
 -10 -440 l 1,3,-1
 -10 -180 l 1,0,-1
EndSplineSet
EndChar

StartChar: uni2582
Encoding: 9602 9602 77
Width: 1921
Flags: W
LayerCount: 2
Fore
SplineSet
-10 45 m 1,0,-1
 1931 45 l 1,1,-1
 1931 -440 l 1,2,-1
 -10 -440 l 1,3,-1
 -10 45 l 1,0,-1
EndSplineSet
EndChar

StartChar: uni2583
Encoding: 9603 9603 78
Width: 1921
Flags: W
LayerCount: 2
Fore
SplineSet
-10 288 m 1,0,-1
 1931 288 l 1,1,-1
 1931 -440 l 1,2,-1
 -10 -440 l 1,3,-1
 -10 288 l 1,0,-1
EndSplineSet
EndChar

StartChar: dnblock
Encoding: 9604 9604 79
Width: 1921
Flags: W
LayerCount: 2
Fore
SplineSet
-10 530 m 1,0,-1
 1931 530 l 1,1,-1
 1931 -440 l 1,2,-1
 -10 -440 l 1,3,-1
 -10 530 l 1,0,-1
EndSplineSet
EndChar

StartChar: uni2585
Encoding: 9605 9605 80
Width: 1921
Flags: W
LayerCount: 2
Fore
SplineSet
-10 773 m 1,0,-1
 1931 773 l 1,1,-1
 1931 -440 l 1,2,-1
 -10 -440 l 1,3,-1
 -10 773 l 1,0,-1
EndSplineSet
EndChar

StartChar: uni2586
Encoding: 9606 9606 81
Width: 1921
Flags: W
LayerCount: 2
Fore
SplineSet
-10 1016 m 1,0,-1
 1931 1016 l 1,1,-1
 1931 -440 l 1,2,-1
 -10 -440 l 1,3,-1
 -10 1016 l 1,0,-1
EndSplineSet
EndChar

StartChar: uni2587
Encoding: 9607 9607 82
Width: 1921
Flags: W
LayerCount: 2
Fore
SplineSet
-10 1258 m 1,0,-1
 1931 1258 l 1,1,-1
 1931 -440 l 1,2,-1
 -10 -440 l 1,3,-1
 -10 1258 l 1,0,-1
EndSplineSet
EndChar

StartChar: block
Encoding: 9608 9608 83
Width: 1921
Flags: W
LayerCount: 2
Fore
SplineSet
-10 1501 m 1,0,-1
 1931 1501 l 1,1,-1
 1931 -440 l 1,2,-1
 -10 -440 l 1,3,-1
 -10 1501 l 1,0,-1
EndSplineSet
EndChar

StartChar: uni2589
Encoding: 9609 9609 84
Width: 1678
Flags: W
LayerCount: 2
Fore
SplineSet
-10 1501 m 1,0,-1
 1688 1501 l 1,1,-1
 1688 -440 l 1,2,-1
 -10 -440 l 1,3,-1
 -10 1501 l 1,0,-1
EndSplineSet
EndChar

StartChar: uni258A
Encoding: 9610 9610 85
Width: 1436
Flags: W
LayerCount: 2
Fore
SplineSet
-10 1501 m 1,0,-1
 1446 1501 l 1,1,-1
 1446 -440 l 1,2,-1
 -10 -440 l 1,3,-1
 -10 1501 l 1,0,-1
EndSplineSet
EndChar

StartChar: uni258B
Encoding: 9611 9611 86
Width: 1193
Flags: W
LayerCount: 2
Fore
SplineSet
-10 1501 m 1,0,-1
 1203 1501 l 1,1,-1
 1203 -440 l 1,2,-1
 -10 -440 l 1,3,-1
 -10 1501 l 1,0,-1
EndSplineSet
EndChar

StartChar: lfblock
Encoding: 9612 9612 87
Width: 950
Flags: W
LayerCount: 2
Fore
SplineSet
-10 1501 m 1,0,-1
 960 1501 l 1,1,-1
 960 -440 l 1,2,-1
 -10 -440 l 1,3,-1
 -10 1501 l 1,0,-1
EndSplineSet
EndChar

StartChar: uni258D
Encoding: 9613 9613 88
Width: 708
Flags: W
LayerCount: 2
Fore
SplineSet
-10 1501 m 1,0,-1
 718 1501 l 1,1,-1
 718 -440 l 1,2,-1
 -10 -440 l 1,3,-1
 -10 1501 l 1,0,-1
EndSplineSet
EndChar

StartChar: uni258E
Encoding: 9614 9614 89
Width: 465
Flags: W
LayerCount: 2
Fore
SplineSet
-10 1501 m 1,0,-1
 475 1501 l 1,1,-1
 475 -440 l 1,2,-1
 -10 -440 l 1,3,-1
 -10 1501 l 1,0,-1
EndSplineSet
EndChar

StartChar: uni258F
Encoding: 9615 9615 90
Width: 223
Flags: W
LayerCount: 2
Fore
SplineSet
-10 1501 m 1,0,-1
 233 1501 l 1,1,-1
 233 -440 l 1,2,-1
 -10 -440 l 1,3,-1
 -10 1501 l 1,0,-1
EndSplineSet
EndChar

StartChar: uni2669
Encoding: 9833 9833 91
Width: 803
Flags: W
LayerCount: 2
Fore
SplineSet
144 169 m 0,0,1
 144 225 144 225 167 273.5 c 128,-1,2
 190 322 190 322 229.5 357.5 c 128,-1,3
 269 393 269 393 321 413.5 c 128,-1,4
 373 434 373 434 431 434 c 0,5,6
 476 434 476 434 512 423 c 1,7,-1
 512 1434 l 1,8,-1
 615 1434 l 1,9,-1
 615 289 l 2,10,11
 615 226 615 226 595.5 169 c 128,-1,12
 576 112 576 112 541 69 c 128,-1,13
 506 26 506 26 457 0.5 c 128,-1,14
 408 -25 408 -25 349 -25 c 0,15,16
 250 -25 250 -25 197 27 c 128,-1,17
 144 79 144 79 144 169 c 0,0,1
EndSplineSet
EndChar

StartChar: musicalnote
Encoding: 9834 9834 92
Width: 1087
Flags: W
LayerCount: 2
Fore
SplineSet
144 169 m 0,0,1
 144 225 144 225 167 273.5 c 128,-1,2
 190 322 190 322 229.5 357.5 c 128,-1,3
 269 393 269 393 321 413.5 c 128,-1,4
 373 434 373 434 431 434 c 0,5,6
 476 434 476 434 512 423 c 1,7,-1
 512 1434 l 1,8,-1
 615 1434 l 1,9,-1
 615 1407 l 2,10,11
 615 1383 615 1383 623 1364 c 128,-1,12
 631 1345 631 1345 651 1324.5 c 128,-1,13
 671 1304 671 1304 704 1279 c 128,-1,14
 737 1254 737 1254 787 1220 c 0,15,16
 835 1187 835 1187 867 1154.5 c 128,-1,17
 899 1122 899 1122 918 1087.5 c 128,-1,18
 937 1053 937 1053 944.5 1015.5 c 128,-1,19
 952 978 952 978 952 933 c 0,20,21
 952 876 952 876 936.5 825 c 128,-1,22
 921 774 921 774 894 726 c 1,23,-1
 816 752 l 1,24,25
 826 789 826 789 830.5 819.5 c 128,-1,26
 835 850 835 850 835 882 c 0,27,28
 835 919 835 919 829 948.5 c 128,-1,29
 823 978 823 978 808.5 1004.5 c 128,-1,30
 794 1031 794 1031 768.5 1055.5 c 128,-1,31
 743 1080 743 1080 704 1108 c 0,32,33
 673 1130 673 1130 651.5 1143.5 c 128,-1,34
 630 1157 630 1157 615 1173 c 1,35,-1
 615 289 l 2,36,37
 615 226 615 226 595.5 169 c 128,-1,38
 576 112 576 112 541 69 c 128,-1,39
 506 26 506 26 457 0.5 c 128,-1,40
 408 -25 408 -25 349 -25 c 0,41,42
 250 -25 250 -25 197 27 c 128,-1,43
 144 79 144 79 144 169 c 0,0,1
EndSplineSet
EndChar

StartChar: musicalnotedbl
Encoding: 9835 9835 93
Width: 1718
Flags: W
LayerCount: 2
Fore
SplineSet
855 -27 m 0,0,1
 855 29 855 29 878 77.5 c 128,-1,2
 901 126 901 126 940.5 161.5 c 128,-1,3
 980 197 980 197 1032 217.5 c 128,-1,4
 1084 238 1084 238 1142 238 c 0,5,6
 1187 238 1187 238 1223 227 c 1,7,-1
 1223 1109 l 1,8,-1
 615 1255 l 1,9,-1
 615 289 l 2,10,11
 615 226 615 226 595.5 169 c 128,-1,12
 576 112 576 112 541 69 c 128,-1,13
 506 26 506 26 457 0.5 c 128,-1,14
 408 -25 408 -25 349 -25 c 0,15,16
 250 -25 250 -25 197 27 c 128,-1,17
 144 79 144 79 144 169 c 0,18,19
 144 225 144 225 167 273.5 c 128,-1,20
 190 322 190 322 229.5 357.5 c 128,-1,21
 269 393 269 393 321 413.5 c 128,-1,22
 373 434 373 434 431 434 c 0,23,24
 476 434 476 434 512 423 c 1,25,-1
 512 1434 l 1,26,-1
 1326 1238 l 1,27,-1
 1326 93 l 2,28,29
 1326 30 1326 30 1306.5 -27 c 128,-1,30
 1287 -84 1287 -84 1252 -127 c 128,-1,31
 1217 -170 1217 -170 1168 -195.5 c 128,-1,32
 1119 -221 1119 -221 1060 -221 c 0,33,34
 961 -221 961 -221 908 -169 c 128,-1,35
 855 -117 855 -117 855 -27 c 0,0,1
EndSplineSet
EndChar

StartChar: uni266C
Encoding: 9836 9836 94
Width: 1856
Flags: W
LayerCount: 2
Fore
SplineSet
993 169 m 0,0,1
 993 225 993 225 1016 273.5 c 128,-1,2
 1039 322 1039 322 1078.5 357.5 c 128,-1,3
 1118 393 1118 393 1170 413.5 c 128,-1,4
 1222 434 1222 434 1280 434 c 0,5,6
 1325 434 1325 434 1361 423 c 1,7,-1
 1361 966 l 1,8,-1
 615 966 l 1,9,-1
 615 289 l 2,10,11
 615 226 615 226 595.5 169 c 128,-1,12
 576 112 576 112 541 69 c 128,-1,13
 506 26 506 26 457 0.5 c 128,-1,14
 408 -25 408 -25 349 -25 c 0,15,16
 250 -25 250 -25 197 27 c 128,-1,17
 144 79 144 79 144 169 c 0,18,19
 144 225 144 225 167 273.5 c 128,-1,20
 190 322 190 322 229.5 357.5 c 128,-1,21
 269 393 269 393 321 413.5 c 128,-1,22
 373 434 373 434 431 434 c 0,23,24
 476 434 476 434 512 423 c 1,25,-1
 512 1434 l 1,26,-1
 1464 1434 l 1,27,-1
 1464 289 l 2,28,29
 1464 226 1464 226 1444.5 169 c 128,-1,30
 1425 112 1425 112 1390 69 c 128,-1,31
 1355 26 1355 26 1306 0.5 c 128,-1,32
 1257 -25 1257 -25 1198 -25 c 0,33,34
 1099 -25 1099 -25 1046 27 c 128,-1,35
 993 79 993 79 993 169 c 0,0,1
615 1118 m 1,36,-1
 1361 1118 l 1,37,-1
 1361 1282 l 1,38,-1
 615 1282 l 1,39,-1
 615 1118 l 1,36,-1
EndSplineSet
EndChar

StartChar: uni266D
Encoding: 9837 9837 95
Width: 924
Flags: W
LayerCount: 2
Fore
SplineSet
780 414 m 0,0,1
 780 333 780 333 754 271.5 c 128,-1,2
 728 210 728 210 684.5 164 c 128,-1,3
 641 118 641 118 584.5 86.5 c 128,-1,4
 528 55 528 55 466.5 36 c 128,-1,5
 405 17 405 17 343 8.5 c 128,-1,6
 281 0 281 0 226 0 c 2,7,-1
 188 0 l 1,8,-1
 188 1434 l 1,9,-1
 291 1434 l 1,10,-1
 291 588 l 1,11,12
 347 638 347 638 406 666.5 c 128,-1,13
 465 695 465 695 544 695 c 0,14,15
 601 695 601 695 645 674.5 c 128,-1,16
 689 654 689 654 719 617 c 128,-1,17
 749 580 749 580 764.5 528 c 128,-1,18
 780 476 780 476 780 414 c 0,0,1
291 54 m 1,19,20
 370 62 370 62 429.5 92.5 c 128,-1,21
 489 123 489 123 528.5 170.5 c 128,-1,22
 568 218 568 218 587.5 280 c 128,-1,23
 607 342 607 342 607 414 c 0,24,25
 607 452 607 452 598 485.5 c 128,-1,26
 589 519 589 519 570.5 543.5 c 128,-1,27
 552 568 552 568 524 582.5 c 128,-1,28
 496 597 496 597 458 597 c 0,29,30
 412 597 412 597 370.5 577.5 c 128,-1,31
 329 558 329 558 291 528 c 1,32,-1
 291 54 l 1,19,20
EndSplineSet
EndChar

StartChar: uni266E
Encoding: 9838 9838 96
Width: 843
Flags: W
LayerCount: 2
Fore
SplineSet
188 243 m 1,0,-1
 188 1434 l 1,1,-1
 291 1434 l 1,2,-1
 291 1021 l 1,3,-1
 592 1190 l 1,4,-1
 655 1190 l 1,5,-1
 655 -1 l 1,6,-1
 552 -1 l 1,7,-1
 552 411 l 1,8,-1
 249 243 l 1,9,-1
 188 243 l 1,0,-1
291 418 m 1,10,-1
 552 563 l 1,11,-1
 552 1016 l 1,12,-1
 291 871 l 1,13,-1
 291 418 l 1,10,-1
EndSplineSet
EndChar

StartChar: uni267A
Encoding: 9850 9850 97
Width: 1801
Flags: W
LayerCount: 2
Fore
SplineSet
912 -197 m 1,0,-1
 907 -197 l 1,1,-1
 713 69 l 1,2,-1
 907 332 l 1,3,-1
 912 332 l 1,4,-1
 912 137 l 1,5,-1
 1450 137 l 2,6,7
 1513 137 1513 137 1541.5 162.5 c 128,-1,8
 1570 188 1570 188 1570 230 c 0,9,10
 1570 262 1570 262 1558 296.5 c 128,-1,11
 1546 331 1546 331 1515 384 c 2,12,-1
 1418 547 l 1,13,-1
 1535 618 l 1,14,-1
 1644 431 l 2,15,16
 1675 378 1675 378 1691 326 c 128,-1,17
 1707 274 1707 274 1707 226 c 256,18,19
 1707 178 1707 178 1691 137 c 128,-1,20
 1675 96 1675 96 1643 65.5 c 128,-1,21
 1611 35 1611 35 1563 17.5 c 128,-1,22
 1515 0 1515 0 1450 0 c 2,23,-1
 910 0 l 1,24,-1
 912 -197 l 1,0,-1
237 947 m 1,25,-1
 240 953 l 1,26,-1
 568 983 l 1,27,-1
 696 685 l 1,28,-1
 694 682 l 1,29,-1
 529 780 l 1,30,-1
 260 316 l 2,31,32
 246 291 246 291 239.5 272.5 c 128,-1,33
 233 254 233 254 233 237 c 0,34,35
 233 183 233 183 267.5 160 c 128,-1,36
 302 137 302 137 378 137 c 2,37,-1
 632 137 l 1,38,-1
 632 0 l 1,39,-1
 378 0 l 2,40,41
 317 0 317 0 265 13.5 c 128,-1,42
 213 27 213 27 175 54.5 c 128,-1,43
 137 82 137 82 115.5 125 c 128,-1,44
 94 168 94 168 94 228 c 0,45,46
 94 263 94 263 105.5 302.5 c 128,-1,47
 117 342 117 342 143 386 c 2,48,-1
 411 851 l 1,49,-1
 237 947 l 1,25,-1
1572 950 m 1,50,-1
 1575 945 l 1,51,-1
 1443 642 l 1,52,-1
 1122 673 l 1,53,-1
 1120 678 l 1,54,-1
 1285 776 l 1,55,-1
 1023 1218 l 2,56,57
 993 1268 993 1268 970 1291.5 c 128,-1,58
 947 1315 947 1315 911 1315 c 0,59,60
 874 1315 874 1315 848 1292 c 128,-1,61
 822 1269 822 1269 793 1220 c 2,62,-1
 665 1004 l 1,63,-1
 549 1075 l 1,64,-1
 677 1289 l 2,65,66
 703 1332 703 1332 727.5 1364 c 128,-1,67
 752 1396 752 1396 779 1417 c 128,-1,68
 806 1438 806 1438 838 1448 c 128,-1,69
 870 1458 870 1458 912 1458 c 0,70,71
 950 1458 950 1458 981 1447.5 c 128,-1,72
 1012 1437 1012 1437 1039 1416 c 128,-1,73
 1066 1395 1066 1395 1090 1363 c 128,-1,74
 1114 1331 1114 1331 1140 1288 c 2,75,-1
 1401 847 l 1,76,-1
 1572 950 l 1,50,-1
EndSplineSet
EndChar

StartChar: uni26A0
Encoding: 9888 9888 98
Width: 1764
Flags: W
LayerCount: 2
Fore
SplineSet
1693 -62 m 2,0,-1
 67 -62 l 2,1,2
 50 -62 50 -62 36.5 -52 c 128,-1,3
 23 -42 23 -42 15 -28 c 256,4,5
 7 -14 7 -14 7 2 c 0,6,7
 7 17 7 17 15 33 c 2,8,-1
 827 1475 l 2,9,10
 835 1489 835 1489 849 1496 c 128,-1,11
 863 1503 863 1503 879 1503 c 256,12,13
 895 1503 895 1503 909 1496 c 128,-1,14
 923 1489 923 1489 931 1475 c 2,15,-1
 1745 33 l 2,16,17
 1753 17 1753 17 1753 2 c 0,18,19
 1753 -14 1753 -14 1745 -28 c 256,20,21
 1737 -42 1737 -42 1723.5 -52 c 128,-1,22
 1710 -62 1710 -62 1693 -62 c 2,0,-1
171 66 m 1,23,-1
 1587 66 l 1,24,-1
 879 1320 l 1,25,-1
 171 66 l 1,23,-1
972 430 m 1,26,-1
 786 430 l 1,27,-1
 786 985 l 1,28,-1
 972 985 l 1,29,-1
 972 430 l 1,26,-1
1000 248 m 0,30,31
 1000 222 1000 222 990.5 200 c 128,-1,32
 981 178 981 178 964.5 161.5 c 128,-1,33
 948 145 948 145 926 135.5 c 128,-1,34
 904 126 904 126 879 126 c 256,35,36
 854 126 854 126 832 135.5 c 128,-1,37
 810 145 810 145 794 161.5 c 128,-1,38
 778 178 778 178 769 200 c 128,-1,39
 760 222 760 222 760 248 c 0,40,41
 760 273 760 273 769 296 c 128,-1,42
 778 319 778 319 794 335.5 c 128,-1,43
 810 352 810 352 832 362 c 128,-1,44
 854 372 854 372 879 372 c 256,45,46
 904 372 904 372 926 362 c 128,-1,47
 948 352 948 352 964.5 335.5 c 128,-1,48
 981 319 981 319 990.5 296 c 128,-1,49
 1000 273 1000 273 1000 248 c 0,30,31
EndSplineSet
EndChar

StartChar: .notdef
Encoding: 1114112 -1 99
Width: 1322
GlyphClass: 2
Flags: W
LayerCount: 2
Fore
SplineSet
166 0 m 1,0,-1
 166 1398 l 1,1,-1
 1156 1398 l 1,2,-1
 1156 0 l 1,3,-1
 166 0 l 1,0,-1
314 148 m 1,4,-1
 1008 148 l 1,5,-1
 1008 1250 l 1,6,-1
 314 1250 l 1,7,-1
 314 148 l 1,4,-1
EndSplineSet
EndChar

StartChar: exclam
Encoding: 33 33 103
Width: 750
GlyphClass: 2
Flags: W
LayerCount: 2
Fore
SplineSet
543 483 m 1,0,-1
 201 483 l 1,1,-1
 147 1434 l 1,2,-1
 596 1434 l 1,3,-1
 543 483 l 1,0,-1
612 178 m 0,4,5
 612 89 612 89 547.5 32 c 128,-1,6
 483 -25 483 -25 375 -25 c 0,7,8
 270 -25 270 -25 203.5 33 c 128,-1,9
 137 91 137 91 137 178 c 0,10,11
 137 266 137 266 201.5 320.5 c 128,-1,12
 266 375 266 375 375 375 c 0,13,14
 481 375 481 375 546.5 320.5 c 128,-1,15
 612 266 612 266 612 178 c 0,4,5
EndSplineSet
EndChar

StartChar: quotedbl
Encoding: 34 34 104
Width: 1188
GlyphClass: 2
Flags: W
LayerCount: 2
Fore
SplineSet
965 1024 m 1,0,-1
 707 1024 l 1,1,-1
 655 1468 l 1,2,-1
 1014 1468 l 1,3,-1
 965 1024 l 1,0,-1
481 1024 m 1,4,-1
 219 1024 l 1,5,-1
 174 1468 l 1,6,-1
 530 1468 l 1,7,-1
 481 1024 l 1,4,-1
EndSplineSet
EndChar

StartChar: numbersign
Encoding: 35 35 105
Width: 1227
GlyphClass: 2
Flags: W
LayerCount: 2
Fore
SplineSet
1126 864 m 1,0,-1
 1004 864 l 1,1,-1
 952 643 l 1,2,-1
 1094 643 l 1,3,-1
 1036 408 l 1,4,-1
 901 408 l 1,5,-1
 834 106 l 1,6,-1
 586 106 l 1,7,-1
 649 408 l 1,8,-1
 430 408 l 1,9,-1
 365 106 l 1,10,-1
 113 106 l 1,11,-1
 176 408 l 1,12,-1
 49 408 l 1,13,-1
 98 643 l 1,14,-1
 227 643 l 1,15,-1
 279 864 l 1,16,-1
 135 864 l 1,17,-1
 182 1100 l 1,18,-1
 328 1100 l 1,19,-1
 395 1417 l 1,20,-1
 651 1417 l 1,21,-1
 584 1100 l 1,22,-1
 799 1100 l 1,23,-1
 866 1417 l 1,24,-1
 1122 1417 l 1,25,-1
 1055 1100 l 1,26,-1
 1178 1100 l 1,27,-1
 1126 864 l 1,0,-1
530 864 m 1,28,-1
 479 643 l 1,29,-1
 698 643 l 1,30,-1
 750 864 l 1,31,-1
 530 864 l 1,28,-1
EndSplineSet
EndChar

StartChar: dollar
Encoding: 36 36 106
Width: 1227
GlyphClass: 2
Flags: W
LayerCount: 2
Fore
SplineSet
1100 442 m 0,0,1
 1100 348 1100 348 1059 266.5 c 128,-1,2
 1018 185 1018 185 938.5 124.5 c 128,-1,3
 859 64 859 64 745 35 c 1,4,-1
 745 -195 l 1,5,-1
 508 -195 l 1,6,-1
 508 8 l 1,7,8
 396 10 396 10 281.5 35.5 c 128,-1,9
 167 61 167 61 133 90 c 1,10,-1
 133 465 l 1,11,12
 340 313 340 313 535 313 c 0,13,14
 588 313 588 313 618.5 339 c 128,-1,15
 649 365 649 365 649 410 c 0,16,17
 649 448 649 448 630 470.5 c 128,-1,18
 611 493 611 493 567.5 517 c 128,-1,19
 524 541 524 541 438 575 c 0,20,21
 115 703 115 703 115 987 c 0,22,23
 115 1152 115 1152 219.5 1264 c 128,-1,24
 324 1376 324 1376 508 1409 c 1,25,-1
 508 1608 l 1,26,-1
 745 1608 l 1,27,-1
 745 1419 l 1,28,29
 922 1409 922 1409 1030 1374 c 1,30,-1
 1030 1010 l 1,31,32
 953 1058 953 1058 857.5 1087 c 128,-1,33
 762 1116 762 1116 670 1116 c 0,34,35
 615 1116 615 1116 581 1090.5 c 128,-1,36
 547 1065 547 1065 547 1026 c 0,37,38
 547 978 547 978 587.5 944.5 c 128,-1,39
 628 911 628 911 719 874 c 0,40,41
 917 793 917 793 1008.5 688.5 c 128,-1,42
 1100 584 1100 584 1100 442 c 0,0,1
EndSplineSet
EndChar

StartChar: percent
Encoding: 37 37 107
Width: 1839
GlyphClass: 2
Flags: W
LayerCount: 2
Fore
SplineSet
1737 367 m 0,0,1
 1737 192 1737 192 1634 86 c 128,-1,2
 1531 -20 1531 -20 1356 -20 c 0,3,4
 1194 -20 1194 -20 1096.5 79 c 128,-1,5
 999 178 999 178 999 340 c 0,6,7
 999 518 999 518 1103 622.5 c 128,-1,8
 1207 727 1207 727 1380 727 c 0,9,10
 1546 727 1546 727 1641.5 632 c 128,-1,11
 1737 537 1737 537 1737 367 c 0,0,1
1475 354 m 0,12,13
 1475 425 1475 425 1448 465.5 c 128,-1,14
 1421 506 1421 506 1374 506 c 0,15,16
 1322 506 1322 506 1294 463.5 c 128,-1,17
 1266 421 1266 421 1266 348 c 0,18,19
 1266 279 1266 279 1291.5 240 c 128,-1,20
 1317 201 1317 201 1368 201 c 0,21,22
 1420 201 1420 201 1447.5 241 c 128,-1,23
 1475 281 1475 281 1475 354 c 0,12,13
618 0 m 1,24,-1
 303 0 l 1,25,-1
 1225 1434 l 1,26,-1
 1540 1434 l 1,27,-1
 618 0 l 1,24,-1
838 1092 m 0,28,29
 838 914 838 914 734.5 809.5 c 128,-1,30
 631 705 631 705 459 705 c 0,31,32
 297 705 297 705 199.5 804 c 128,-1,33
 102 903 102 903 102 1065 c 0,34,35
 102 1241 102 1241 203.5 1347.5 c 128,-1,36
 305 1454 305 1454 481 1454 c 0,37,38
 647 1454 647 1454 742.5 1357 c 128,-1,39
 838 1260 838 1260 838 1092 c 0,28,29
575 1081 m 0,40,41
 575 1150 575 1150 549.5 1190.5 c 128,-1,42
 524 1231 524 1231 477 1231 c 0,43,44
 425 1231 425 1231 397 1188.5 c 128,-1,45
 369 1146 369 1146 369 1073 c 0,46,47
 369 1004 369 1004 394.5 965 c 128,-1,48
 420 926 420 926 471 926 c 0,49,50
 521 926 521 926 548 966 c 128,-1,51
 575 1006 575 1006 575 1081 c 0,40,41
EndSplineSet
EndChar

StartChar: ampersand
Encoding: 38 38 108
Width: 1513
GlyphClass: 2
Flags: W
LayerCount: 2
Fore
SplineSet
1081 -2 m 1,0,-1
 997 96 l 1,1,2
 930 44 930 44 809.5 9.5 c 128,-1,3
 689 -25 689 -25 578 -25 c 0,4,5
 333 -25 333 -25 197 81.5 c 128,-1,6
 61 188 61 188 61 379 c 0,7,8
 61 492 61 492 143 595 c 128,-1,9
 225 698 225 698 393 782 c 1,10,11
 250 940 250 940 250 1098 c 0,12,13
 250 1258 250 1258 375.5 1358 c 128,-1,14
 501 1458 501 1458 702 1458 c 0,15,16
 893 1458 893 1458 1009.5 1368.5 c 128,-1,17
 1126 1279 1126 1279 1126 1130 c 0,18,19
 1126 1011 1126 1011 1057 925 c 128,-1,20
 988 839 988 839 838 770 c 1,21,-1
 1042 539 l 1,22,23
 1087 629 1087 629 1087 782 c 1,24,-1
 1413 782 l 1,25,26
 1413 637 1413 637 1372 521.5 c 128,-1,27
 1331 406 1331 406 1239 311 c 1,28,-1
 1526 -2 l 1,29,-1
 1081 -2 l 1,0,-1
797 1108 m 0,30,31
 797 1151 797 1151 765.5 1181.5 c 128,-1,32
 734 1212 734 1212 692 1212 c 0,33,34
 642 1212 642 1212 612 1185 c 128,-1,35
 582 1158 582 1158 582 1110 c 0,36,37
 582 1079 582 1079 600.5 1046.5 c 128,-1,38
 619 1014 619 1014 686 938 c 1,39,40
 748 976 748 976 772.5 1016.5 c 128,-1,41
 797 1057 797 1057 797 1108 c 0,30,31
543 608 m 1,42,43
 501 588 501 588 472.5 538.5 c 128,-1,44
 444 489 444 489 444 428 c 0,45,46
 444 343 444 343 500.5 291.5 c 128,-1,47
 557 240 557 240 639 240 c 0,48,49
 690 240 690 240 737.5 256.5 c 128,-1,50
 785 273 785 273 817 299 c 1,51,-1
 543 608 l 1,42,43
EndSplineSet
EndChar

StartChar: quotesingle
Encoding: 39 39 109
Width: 705
GlyphClass: 2
Flags: W
LayerCount: 2
Fore
SplineSet
481 1026 m 1,0,-1
 219 1026 l 1,1,-1
 174 1468 l 1,2,-1
 530 1468 l 1,3,-1
 481 1026 l 1,0,-1
EndSplineSet
EndChar

StartChar: parenleft
Encoding: 40 40 110
Width: 862
GlyphClass: 2
Flags: W
LayerCount: 2
Fore
SplineSet
512 -326 m 1,0,1
 340 -140 340 -140 258 74 c 128,-1,2
 176 288 176 288 176 549 c 0,3,4
 176 1036 176 1036 510 1434 c 1,5,-1
 846 1434 l 1,6,7
 696 1224 696 1224 623.5 1005.5 c 128,-1,8
 551 787 551 787 551 549 c 0,9,10
 551 302 551 302 624 90.5 c 128,-1,11
 697 -121 697 -121 848 -326 c 1,12,-1
 512 -326 l 1,0,1
EndSplineSet
EndChar

StartChar: parenright
Encoding: 41 41 111
Width: 862
GlyphClass: 2
Flags: W
LayerCount: 2
Fore
SplineSet
686 549 m 0,0,1
 686 286 686 286 603.5 72 c 128,-1,2
 521 -142 521 -142 350 -326 c 1,3,-1
 14 -326 l 1,4,5
 313 75 313 75 313 549 c 0,6,7
 313 782 313 782 241.5 1000.5 c 128,-1,8
 170 1219 170 1219 16 1434 c 1,9,-1
 352 1434 l 1,10,11
 686 1038 686 1038 686 549 c 0,0,1
EndSplineSet
EndChar

StartChar: asterisk
Encoding: 42 42 112
Width: 991
GlyphClass: 2
Flags: W
LayerCount: 2
Fore
SplineSet
649 989 m 1,0,-1
 856 795 l 1,1,-1
 625 637 l 1,2,-1
 496 887 l 1,3,-1
 367 639 l 1,4,-1
 135 795 l 1,5,-1
 342 989 l 1,6,-1
 61 1016 l 1,7,-1
 152 1272 l 1,8,-1
 403 1153 l 1,9,-1
 344 1434 l 1,10,-1
 647 1434 l 1,11,-1
 588 1153 l 1,12,-1
 840 1272 l 1,13,-1
 930 1016 l 1,14,-1
 649 989 l 1,0,-1
EndSplineSet
EndChar

StartChar: plus
Encoding: 43 43 113
Width: 1464
GlyphClass: 2
Flags: W
LayerCount: 2
Fore
SplineSet
856 455 m 1,0,-1
 856 82 l 1,1,-1
 608 82 l 1,2,-1
 608 455 l 1,3,-1
 238 455 l 1,4,-1
 238 702 l 1,5,-1
 608 702 l 1,6,-1
 608 1073 l 1,7,-1
 856 1073 l 1,8,-1
 856 702 l 1,9,-1
 1229 702 l 1,10,-1
 1229 455 l 1,11,-1
 856 455 l 1,0,-1
EndSplineSet
EndChar

StartChar: comma
Encoding: 44 44 114
Width: 655
GlyphClass: 2
Flags: W
LayerCount: 2
Fore
SplineSet
387 -238 m 1,0,-1
 43 -238 l 1,1,-1
 145 272 l 1,2,-1
 530 272 l 1,3,-1
 387 -238 l 1,0,-1
EndSplineSet
EndChar

StartChar: hyphen
Encoding: 45 45 115
Width: 834
GlyphClass: 2
Flags: W
LayerCount: 2
Fore
SplineSet
143 393 m 1,0,-1
 143 680 l 1,1,-1
 690 680 l 1,2,-1
 690 393 l 1,3,-1
 143 393 l 1,0,-1
EndSplineSet
EndChar

StartChar: period
Encoding: 46 46 116
Width: 655
GlyphClass: 2
Flags: W
LayerCount: 2
Fore
SplineSet
565 178 m 0,0,1
 565 87 565 87 501 31 c 128,-1,2
 437 -25 437 -25 324 -25 c 0,3,4
 221 -25 221 -25 155.5 33.5 c 128,-1,5
 90 92 90 92 90 178 c 0,6,7
 90 266 90 266 154.5 320.5 c 128,-1,8
 219 375 219 375 328 375 c 0,9,10
 434 375 434 375 499.5 320.5 c 128,-1,11
 565 266 565 266 565 178 c 0,0,1
EndSplineSet
EndChar

StartChar: slash
Encoding: 47 47 117
Width: 987
GlyphClass: 2
Flags: W
LayerCount: 2
Fore
SplineSet
307 -238 m 1,0,-1
 -68 -238 l 1,1,-1
 641 1434 l 1,2,-1
 1016 1434 l 1,3,-1
 307 -238 l 1,0,-1
EndSplineSet
EndChar

StartChar: zero
Encoding: 48 48 118
Width: 1227
GlyphClass: 2
Flags: W
LayerCount: 2
Fore
SplineSet
1163 729 m 0,0,1
 1163 360 1163 360 1022.5 167.5 c 128,-1,2
 882 -25 882 -25 612 -25 c 0,3,4
 336 -25 336 -25 199.5 152 c 128,-1,5
 63 329 63 329 63 700 c 0,6,7
 63 1072 63 1072 210.5 1265 c 128,-1,8
 358 1458 358 1458 637 1458 c 0,9,10
 1163 1458 1163 1458 1163 729 c 0,0,1
743 729 m 0,11,12
 743 943 743 943 713 1045 c 128,-1,13
 683 1147 683 1147 616 1147 c 0,14,15
 485 1147 485 1147 485 709 c 0,16,17
 485 494 485 494 515.5 390.5 c 128,-1,18
 546 287 546 287 612 287 c 0,19,20
 743 287 743 287 743 729 c 0,11,12
EndSplineSet
Substitution2: "SegoeUIBlack-'sups' Superscript in Latin lookup 3 subtable" uni2070
Substitution2: "SegoeUIBlack-'subs' Subscript in Latin lookup 2 subtable" uni2080
EndChar

StartChar: one
Encoding: 49 49 119
Width: 990
GlyphClass: 2
Flags: W
LayerCount: 2
Fore
SplineSet
395 0 m 1,0,-1
 395 1032 l 1,1,2
 325 991 325 991 250 969.5 c 128,-1,3
 175 948 175 948 80 938 c 1,4,-1
 80 1258 l 1,5,6
 215 1281 215 1281 331.5 1330.5 c 128,-1,7
 448 1380 448 1380 570 1466 c 1,8,-1
 821 1466 l 1,9,-1
 821 0 l 1,10,-1
 395 0 l 1,0,-1
EndSplineSet
Substitution2: "SegoeUIBlack-'sups' Superscript in Latin lookup 3 subtable" uni00B9
Substitution2: "SegoeUIBlack-'subs' Subscript in Latin lookup 2 subtable" uni2081
EndChar

StartChar: two
Encoding: 50 50 120
Width: 1227
GlyphClass: 2
Flags: W
LayerCount: 2
Fore
SplineSet
90 0 m 1,0,-1
 90 115 l 2,1,2
 90 237 90 237 120 327 c 128,-1,3
 150 417 150 417 214.5 496 c 128,-1,4
 279 575 279 575 439 699 c 0,5,6
 553 789 553 789 590.5 828.5 c 128,-1,7
 628 868 628 868 646.5 905 c 128,-1,8
 665 942 665 942 665 985 c 0,9,10
 665 1128 665 1128 493 1128 c 0,11,12
 318 1128 318 1128 162 1001 c 1,13,-1
 162 1350 l 1,14,15
 281 1410 281 1410 384.5 1434 c 128,-1,16
 488 1458 488 1458 597 1458 c 0,17,18
 831 1458 831 1458 959 1346 c 128,-1,19
 1087 1234 1087 1234 1087 1032 c 0,20,21
 1087 877 1087 877 1020 769 c 128,-1,22
 953 661 953 661 771 544 c 0,23,24
 632 454 632 454 586.5 412.5 c 128,-1,25
 541 371 541 371 540 342 c 1,26,-1
 1100 342 l 1,27,-1
 1100 0 l 1,28,-1
 90 0 l 1,0,-1
EndSplineSet
Substitution2: "SegoeUIBlack-'sups' Superscript in Latin lookup 3 subtable" uni00B2
Substitution2: "SegoeUIBlack-'subs' Subscript in Latin lookup 2 subtable" uni2082
EndChar

StartChar: three
Encoding: 51 51 121
Width: 1227
GlyphClass: 2
Flags: W
LayerCount: 2
Fore
SplineSet
1080 410 m 0,0,1
 1080 203 1080 203 930 89 c 128,-1,2
 780 -25 780 -25 501 -25 c 0,3,4
 397 -25 397 -25 295 -7.5 c 128,-1,5
 193 10 193 10 120 39 c 1,6,-1
 120 373 l 1,7,8
 187 333 187 333 273 310 c 128,-1,9
 359 287 359 287 447 287 c 0,10,11
 549 287 549 287 603.5 323.5 c 128,-1,12
 658 360 658 360 658 428 c 0,13,14
 658 497 658 497 591 536 c 128,-1,15
 524 575 524 575 404 575 c 2,16,-1
 266 575 l 1,17,-1
 266 889 l 1,18,-1
 388 889 l 2,19,20
 509 889 509 889 566.5 926.5 c 128,-1,21
 624 964 624 964 624 1024 c 0,22,23
 624 1081 624 1081 580.5 1114 c 128,-1,24
 537 1147 537 1147 447 1147 c 0,25,26
 308 1147 308 1147 169 1067 c 1,27,-1
 169 1386 l 1,28,29
 343 1458 343 1458 535 1458 c 0,30,31
 773 1458 773 1458 908 1361 c 128,-1,32
 1043 1264 1043 1264 1043 1092 c 0,33,34
 1043 958 1043 958 970.5 867 c 128,-1,35
 898 776 898 776 767 748 c 1,36,-1
 767 743 l 1,37,38
 912 723 912 723 996 632.5 c 128,-1,39
 1080 542 1080 542 1080 410 c 0,0,1
EndSplineSet
Substitution2: "SegoeUIBlack-'sups' Superscript in Latin lookup 3 subtable" uni00B3
Substitution2: "SegoeUIBlack-'subs' Subscript in Latin lookup 2 subtable" uni2083
EndChar

StartChar: four
Encoding: 52 52 122
Width: 1271
GlyphClass: 2
Flags: W
LayerCount: 2
Fore
SplineSet
1028 1434 m 1,0,-1
 1028 530 l 1,1,-1
 1231 530 l 1,2,-1
 1231 246 l 1,3,-1
 1027 246 l 1,4,-1
 1027 0 l 1,5,-1
 652 0 l 1,6,-1
 652 246 l 1,7,-1
 45 246 l 1,8,-1
 45 541 l 1,9,10
 205 725 205 725 363.5 968 c 128,-1,11
 522 1211 522 1211 621 1434 c 1,12,-1
 1028 1434 l 1,0,-1
651 530 m 1,13,-1
 651 950 l 1,14,15
 559 747 559 747 398 530 c 1,16,-1
 651 530 l 1,13,-1
EndSplineSet
Substitution2: "SegoeUIBlack-'sups' Superscript in Latin lookup 3 subtable" uni2074
Substitution2: "SegoeUIBlack-'subs' Subscript in Latin lookup 2 subtable" uni2084
EndChar

StartChar: five
Encoding: 53 53 123
Width: 1227
GlyphClass: 2
Flags: W
LayerCount: 2
Fore
SplineSet
1090 485 m 0,0,1
 1090 338 1090 338 1020.5 221.5 c 128,-1,2
 951 105 951 105 820 40 c 128,-1,3
 689 -25 689 -25 511 -25 c 0,4,5
 412 -25 412 -25 304.5 -8 c 128,-1,6
 197 9 197 9 128 35 c 1,7,-1
 128 367 l 1,8,9
 278 287 278 287 445 287 c 0,10,11
 555 287 555 287 611.5 327 c 128,-1,12
 668 367 668 367 668 440 c 0,13,14
 668 598 668 598 406 598 c 0,15,16
 275 598 275 598 163 573 c 1,17,-1
 217 1434 l 1,18,-1
 1027 1434 l 1,19,-1
 1027 1102 l 1,20,-1
 547 1102 l 1,21,-1
 533 901 l 1,22,23
 591 907 591 907 642 907 c 0,24,25
 852 907 852 907 971 793.5 c 128,-1,26
 1090 680 1090 680 1090 485 c 0,0,1
EndSplineSet
Substitution2: "SegoeUIBlack-'sups' Superscript in Latin lookup 3 subtable" uni2075
Substitution2: "SegoeUIBlack-'subs' Subscript in Latin lookup 2 subtable" uni2085
EndChar

StartChar: six
Encoding: 54 54 124
Width: 1227
GlyphClass: 2
Flags: W
LayerCount: 2
Fore
SplineSet
1167 496 m 0,0,1
 1167 352 1167 352 1100.5 232.5 c 128,-1,2
 1034 113 1034 113 912.5 45 c 128,-1,3
 791 -23 791 -23 643 -23 c 0,4,5
 380 -23 380 -23 238 152 c 128,-1,6
 96 327 96 327 96 647 c 0,7,8
 96 889 96 889 182 1076.5 c 128,-1,9
 268 1264 268 1264 423.5 1361 c 128,-1,10
 579 1458 579 1458 793 1458 c 0,11,12
 957 1458 957 1458 1057 1421 c 1,13,-1
 1057 1087 l 1,14,15
 958 1147 958 1147 823 1147 c 0,16,17
 686 1147 686 1147 600.5 1057.5 c 128,-1,18
 515 968 515 968 506 821 c 1,19,-1
 512 821 l 1,20,21
 613 944 613 944 801 944 c 0,22,23
 970 944 970 944 1068.5 820 c 128,-1,24
 1167 696 1167 696 1167 496 c 0,0,1
762 477 m 0,25,26
 762 556 762 556 731.5 601.5 c 128,-1,27
 701 647 701 647 639 647 c 0,28,29
 580 647 580 647 548 599.5 c 128,-1,30
 516 552 516 552 516 471 c 0,31,32
 516 395 516 395 550.5 346 c 128,-1,33
 585 297 585 297 639 297 c 0,34,35
 696 297 696 297 729 345.5 c 128,-1,36
 762 394 762 394 762 477 c 0,25,26
EndSplineSet
Substitution2: "SegoeUIBlack-'sups' Superscript in Latin lookup 3 subtable" uni2076
Substitution2: "SegoeUIBlack-'subs' Subscript in Latin lookup 2 subtable" uni2086
EndChar

StartChar: seven
Encoding: 55 55 125
Width: 1227
GlyphClass: 2
Flags: W
LayerCount: 2
Fore
SplineSet
273 0 m 1,0,1
 303 197 303 197 358 367 c 128,-1,2
 413 537 413 537 489.5 695 c 128,-1,3
 566 853 566 853 722 1102 c 1,4,-1
 98 1102 l 1,5,-1
 98 1434 l 1,6,-1
 1147 1434 l 1,7,-1
 1147 1182 l 1,8,9
 1004 927 1004 927 930.5 756 c 128,-1,10
 857 585 857 585 803.5 400.5 c 128,-1,11
 750 216 750 216 716 0 c 1,12,-1
 273 0 l 1,0,1
EndSplineSet
Substitution2: "SegoeUIBlack-'sups' Superscript in Latin lookup 3 subtable" uni2077
Substitution2: "SegoeUIBlack-'subs' Subscript in Latin lookup 2 subtable" uni2087
EndChar

StartChar: eight
Encoding: 56 56 126
Width: 1227
GlyphClass: 2
Flags: W
LayerCount: 2
Fore
SplineSet
67 390 m 0,0,1
 67 522 67 522 134 612 c 128,-1,2
 201 702 201 702 331 759 c 1,3,4
 222 814 222 814 167 900 c 128,-1,5
 112 986 112 986 112 1089 c 0,6,7
 112 1191 112 1191 177.5 1276.5 c 128,-1,8
 243 1362 243 1362 359.5 1410 c 128,-1,9
 476 1458 476 1458 617 1458 c 0,10,11
 764 1458 764 1458 881 1410.5 c 128,-1,12
 998 1363 998 1363 1062 1278 c 128,-1,13
 1126 1193 1126 1193 1126 1088 c 0,14,15
 1126 987 1126 987 1067 899 c 128,-1,16
 1008 811 1008 811 895 757 c 1,17,18
 1035 696 1035 696 1097 605.5 c 128,-1,19
 1159 515 1159 515 1159 393 c 0,20,21
 1159 273 1159 273 1089.5 177 c 128,-1,22
 1020 81 1020 81 894.5 29 c 128,-1,23
 769 -23 769 -23 613 -23 c 0,24,25
 371 -23 371 -23 219 93 c 128,-1,26
 67 209 67 209 67 390 c 0,0,1
454 425 m 0,27,28
 454 348 454 348 498 304 c 128,-1,29
 542 260 542 260 614 260 c 0,30,31
 687 260 687 260 731 307 c 128,-1,32
 775 354 775 354 775 425 c 0,33,34
 775 497 775 497 729 544.5 c 128,-1,35
 683 592 683 592 614 592 c 0,36,37
 546 592 546 592 500 545.5 c 128,-1,38
 454 499 454 499 454 425 c 0,27,28
490 1040 m 0,39,40
 490 981 490 981 527.5 936 c 128,-1,41
 565 891 565 891 620 891 c 0,42,43
 676 891 676 891 713.5 936 c 128,-1,44
 751 981 751 981 751 1040 c 0,45,46
 751 1104 751 1104 713 1147 c 128,-1,47
 675 1190 675 1190 620 1190 c 0,48,49
 564 1190 564 1190 527 1147 c 128,-1,50
 490 1104 490 1104 490 1040 c 0,39,40
EndSplineSet
Substitution2: "SegoeUIBlack-'sups' Superscript in Latin lookup 3 subtable" uni2078
Substitution2: "SegoeUIBlack-'subs' Subscript in Latin lookup 2 subtable" uni2088
EndChar

StartChar: nine
Encoding: 57 57 127
Width: 1227
GlyphClass: 2
Flags: W
LayerCount: 2
Fore
SplineSet
1141 776 m 0,0,1
 1141 400 1141 400 966 187.5 c 128,-1,2
 791 -25 791 -25 483 -25 c 0,3,4
 294 -25 294 -25 154 31 c 1,5,-1
 154 360 l 1,6,7
 196 330 196 330 277.5 308.5 c 128,-1,8
 359 287 359 287 424 287 c 0,9,10
 574 287 574 287 653.5 370 c 128,-1,11
 733 453 733 453 735 614 c 1,12,-1
 729 614 l 1,13,14
 635 494 635 494 455 494 c 0,15,16
 348 494 348 494 258.5 549.5 c 128,-1,17
 169 605 169 605 118.5 704.5 c 128,-1,18
 68 804 68 804 68 932 c 0,19,20
 68 1090 68 1090 134.5 1210 c 128,-1,21
 201 1330 201 1330 322.5 1394 c 128,-1,22
 444 1458 444 1458 602 1458 c 0,23,24
 766 1458 766 1458 891 1373 c 128,-1,25
 1016 1288 1016 1288 1078.5 1137 c 128,-1,26
 1141 986 1141 986 1141 776 c 0,0,1
719 963 m 0,27,28
 719 1036 719 1036 686 1087.5 c 128,-1,29
 653 1139 653 1139 598 1139 c 0,30,31
 544 1139 544 1139 508.5 1095.5 c 128,-1,32
 473 1052 473 1052 473 961 c 0,33,34
 473 876 473 876 508 832 c 128,-1,35
 543 788 543 788 596 788 c 0,36,37
 656 788 656 788 687.5 836.5 c 128,-1,38
 719 885 719 885 719 963 c 0,27,28
EndSplineSet
Substitution2: "SegoeUIBlack-'sups' Superscript in Latin lookup 3 subtable" uni2079
Substitution2: "SegoeUIBlack-'subs' Subscript in Latin lookup 2 subtable" uni2089
EndChar

StartChar: colon
Encoding: 58 58 128
Width: 655
GlyphClass: 2
Flags: W
LayerCount: 2
Fore
SplineSet
565 827 m 0,0,1
 565 736 565 736 500.5 680.5 c 128,-1,2
 436 625 436 625 324 625 c 0,3,4
 222 625 222 625 156 683 c 128,-1,5
 90 741 90 741 90 827 c 0,6,7
 90 915 90 915 154.5 969.5 c 128,-1,8
 219 1024 219 1024 328 1024 c 0,9,10
 434 1024 434 1024 499.5 969.5 c 128,-1,11
 565 915 565 915 565 827 c 0,0,1
565 178 m 0,12,13
 565 87 565 87 501 31 c 128,-1,14
 437 -25 437 -25 324 -25 c 0,15,16
 221 -25 221 -25 155.5 33.5 c 128,-1,17
 90 92 90 92 90 178 c 0,18,19
 90 266 90 266 154.5 320.5 c 128,-1,20
 219 375 219 375 328 375 c 0,21,22
 434 375 434 375 499.5 320.5 c 128,-1,23
 565 266 565 266 565 178 c 0,12,13
EndSplineSet
EndChar

StartChar: semicolon
Encoding: 59 59 129
Width: 655
GlyphClass: 2
Flags: W
LayerCount: 2
Fore
SplineSet
575 827 m 0,0,1
 575 736 575 736 510.5 680.5 c 128,-1,2
 446 625 446 625 334 625 c 0,3,4
 232 625 232 625 166 683 c 128,-1,5
 100 741 100 741 100 827 c 0,6,7
 100 915 100 915 164.5 969.5 c 128,-1,8
 229 1024 229 1024 338 1024 c 0,9,10
 444 1024 444 1024 509.5 969.5 c 128,-1,11
 575 915 575 915 575 827 c 0,0,1
387 -238 m 1,12,-1
 43 -238 l 1,13,-1
 145 272 l 1,14,-1
 530 272 l 1,15,-1
 387 -238 l 1,12,-1
EndSplineSet
EndChar

StartChar: less
Encoding: 60 60 130
Width: 1464
GlyphClass: 2
Flags: W
LayerCount: 2
Fore
SplineSet
238 436 m 1,0,-1
 238 676 l 1,1,-1
 1229 1083 l 1,2,-1
 1229 791 l 1,3,-1
 526 555 l 1,4,-1
 526 551 l 1,5,-1
 1229 315 l 1,6,-1
 1229 23 l 1,7,-1
 238 436 l 1,0,-1
EndSplineSet
EndChar

StartChar: equal
Encoding: 61 61 131
Width: 1464
GlyphClass: 2
Flags: W
LayerCount: 2
Fore
SplineSet
238 666 m 1,0,-1
 238 913 l 1,1,-1
 1229 913 l 1,2,-1
 1229 666 l 1,3,-1
 238 666 l 1,0,-1
238 236 m 1,4,-1
 238 483 l 1,5,-1
 1229 483 l 1,6,-1
 1229 236 l 1,7,-1
 238 236 l 1,4,-1
EndSplineSet
EndChar

StartChar: greater
Encoding: 62 62 132
Width: 1464
GlyphClass: 2
Flags: W
LayerCount: 2
Fore
SplineSet
238 43 m 1,0,-1
 238 338 l 1,1,-1
 938 571 l 1,2,-1
 938 575 l 1,3,-1
 238 809 l 1,4,-1
 238 1104 l 1,5,-1
 1229 696 l 1,6,-1
 1229 457 l 1,7,-1
 238 43 l 1,0,-1
EndSplineSet
EndChar

StartChar: question
Encoding: 63 63 133
Width: 866
GlyphClass: 2
Flags: W
LayerCount: 2
Fore
SplineSet
907 1100 m 0,0,1
 907 878 907 878 692 709 c 0,2,3
 619 651 619 651 589 607 c 128,-1,4
 559 563 559 563 559 498 c 2,5,-1
 559 463 l 1,6,-1
 223 463 l 1,7,-1
 223 551 l 2,8,9
 223 734 223 734 344 838 c 0,10,11
 423 905 423 905 445.5 930 c 128,-1,12
 468 955 468 955 477.5 978 c 128,-1,13
 487 1001 487 1001 487 1032 c 0,14,15
 487 1070 487 1070 453.5 1096 c 128,-1,16
 420 1122 420 1122 367 1122 c 0,17,18
 206 1122 206 1122 29 993 c 1,19,-1
 29 1386 l 1,20,21
 94 1423 94 1423 204.5 1450 c 128,-1,22
 315 1477 315 1477 403 1477 c 0,23,24
 648 1477 648 1477 777.5 1380.5 c 128,-1,25
 907 1284 907 1284 907 1100 c 0,0,1
641 178 m 0,26,27
 641 89 641 89 576.5 32 c 128,-1,28
 512 -25 512 -25 403 -25 c 0,29,30
 298 -25 298 -25 232 33.5 c 128,-1,31
 166 92 166 92 166 178 c 0,32,33
 166 266 166 266 230.5 320.5 c 128,-1,34
 295 375 295 375 403 375 c 0,35,36
 510 375 510 375 575.5 320.5 c 128,-1,37
 641 266 641 266 641 178 c 0,26,27
EndSplineSet
EndChar

StartChar: at
Encoding: 64 64 134
Width: 1944
GlyphClass: 2
Flags: W
LayerCount: 2
Fore
SplineSet
1843 766 m 0,0,1
 1843 593 1843 593 1776.5 460 c 128,-1,2
 1710 327 1710 327 1589.5 253.5 c 128,-1,3
 1469 180 1469 180 1321 180 c 0,4,5
 1233 180 1233 180 1165 223 c 128,-1,6
 1097 266 1097 266 1081 330 c 1,7,-1
 1075 330 l 1,8,9
 1040 263 1040 263 980 221.5 c 128,-1,10
 920 180 920 180 848 180 c 0,11,12
 707 180 707 180 623 282.5 c 128,-1,13
 539 385 539 385 539 561 c 0,14,15
 539 706 539 706 586 820 c 128,-1,16
 633 934 633 934 726 1003.5 c 128,-1,17
 819 1073 819 1073 918 1073 c 0,18,19
 1054 1073 1054 1073 1098 965 c 1,20,-1
 1102 965 l 1,21,-1
 1110 1051 l 1,22,-1
 1411 1051 l 1,23,24
 1401 959 1401 959 1383.5 744.5 c 128,-1,25
 1366 530 1366 530 1366 485 c 2,26,-1
 1366 465 l 2,27,28
 1366 440 1366 440 1379 423 c 128,-1,29
 1392 406 1392 406 1417 406 c 0,30,31
 1477 406 1477 406 1515.5 496.5 c 128,-1,32
 1554 587 1554 587 1554 762 c 0,33,34
 1554 899 1554 899 1496 1005.5 c 128,-1,35
 1438 1112 1438 1112 1327 1171.5 c 128,-1,36
 1216 1231 1216 1231 1061 1231 c 0,37,38
 878 1231 878 1231 726.5 1144 c 128,-1,39
 575 1057 575 1057 486 901.5 c 128,-1,40
 397 746 397 746 397 569 c 0,41,42
 397 310 397 310 552 170.5 c 128,-1,43
 707 31 707 31 993 31 c 0,44,45
 1091 31 1091 31 1200.5 56.5 c 128,-1,46
 1310 82 1310 82 1395 123 c 1,47,-1
 1395 -113 l 1,48,49
 1218 -188 1218 -188 948 -188 c 0,50,51
 694 -188 694 -188 497.5 -90.5 c 128,-1,52
 301 7 301 7 200.5 179 c 128,-1,53
 100 351 100 351 100 584 c 0,54,55
 100 818 100 818 221 1022.5 c 128,-1,56
 342 1227 342 1227 552.5 1339.5 c 128,-1,57
 763 1452 763 1452 1028 1452 c 0,58,59
 1276 1452 1276 1452 1460 1369.5 c 128,-1,60
 1644 1287 1644 1287 1743.5 1131 c 128,-1,61
 1843 975 1843 975 1843 766 c 0,0,1
1092 715 m 0,62,63
 1092 780 1092 780 1062.5 817 c 128,-1,64
 1033 854 1033 854 985 854 c 0,65,66
 922 854 922 854 879 769 c 128,-1,67
 836 684 836 684 836 569 c 0,68,69
 836 490 836 490 861.5 444.5 c 128,-1,70
 887 399 887 399 934 399 c 0,71,72
 1005 399 1005 399 1048.5 487.5 c 128,-1,73
 1092 576 1092 576 1092 715 c 0,62,63
EndSplineSet
EndChar

StartChar: A
Encoding: 65 65 135
Width: 1536
GlyphClass: 2
Flags: W
AnchorPoint: "Anchor-14" 0 2100 basechar 0
AnchorPoint: "Anchor-13" 1402 2100 basechar 0
AnchorPoint: "Anchor-10" 1125 0 basechar 0
AnchorPoint: "Anchor-9" 741 -50 basechar 0
AnchorPoint: "Anchor-8" 901 1434 basechar 0
AnchorPoint: "Anchor-7" 1379 -420 basechar 0
AnchorPoint: "Anchor-6" 1456 1900 basechar 0
AnchorPoint: "Anchor-5" 768 717 basechar 0
AnchorPoint: "Anchor-4" 861 1434 basechar 0
AnchorPoint: "Anchor-2" 768 -15 basechar 0
AnchorPoint: "Anchor-1" 996 1500 basechar 0
AnchorPoint: "Anchor-0" 768 1600 basechar 0
LayerCount: 2
Fore
SplineSet
1040 0 m 1,0,-1
 977 264 l 1,1,-1
 549 264 l 1,2,-1
 481 0 l 1,3,-1
 14 0 l 1,4,-1
 508 1434 l 1,5,-1
 1044 1434 l 1,6,-1
 1509 0 l 1,7,-1
 1040 0 l 1,0,-1
768 1122 m 1,8,-1
 758 1122 l 1,9,10
 756 1098 756 1098 744 1043 c 128,-1,11
 732 988 732 988 623 571 c 1,12,-1
 897 571 l 1,13,-1
 797 961 l 2,14,15
 776 1047 776 1047 768 1122 c 1,8,-1
EndSplineSet
EndChar

StartChar: B
Encoding: 66 66 136
Width: 1415
GlyphClass: 2
Flags: W
AnchorPoint: "Anchor-14" 0 2100 basechar 0
AnchorPoint: "Anchor-13" 1263 2100 basechar 0
AnchorPoint: "Anchor-10" 600 0 basechar 0
AnchorPoint: "Anchor-8" 1103 1274 basechar 0
AnchorPoint: "Anchor-7" 1160 -420 basechar 0
AnchorPoint: "Anchor-6" 1326 1900 basechar 0
AnchorPoint: "Anchor-5" 676 717 basechar 0
AnchorPoint: "Anchor-4" 1049 1314 basechar 0
AnchorPoint: "Anchor-2" 659 -15 basechar 0
AnchorPoint: "Anchor-1" 1089 1500 basechar 0
AnchorPoint: "Anchor-0" 659 1600 basechar 0
LayerCount: 2
Fore
SplineSet
1366 440 m 0,0,1
 1366 229 1366 229 1218 114.5 c 128,-1,2
 1070 0 1070 0 795 0 c 2,3,-1
 141 0 l 1,4,-1
 141 1434 l 1,5,-1
 750 1434 l 2,6,7
 1321 1434 1321 1434 1321 1087 c 0,8,9
 1321 1012 1321 1012 1285 949.5 c 128,-1,10
 1249 887 1249 887 1175.5 840 c 128,-1,11
 1102 793 1102 793 1014 776 c 1,12,-1
 1014 772 l 1,13,14
 1116 760 1116 760 1197 711.5 c 128,-1,15
 1278 663 1278 663 1322 590.5 c 128,-1,16
 1366 518 1366 518 1366 440 c 0,0,1
862 1012 m 0,17,18
 862 1145 862 1145 653 1145 c 2,19,-1
 573 1145 l 1,20,-1
 573 874 l 1,21,-1
 698 874 l 2,22,23
 770 874 770 874 816 912.5 c 128,-1,24
 862 951 862 951 862 1012 c 0,17,18
907 442 m 0,25,26
 907 504 907 504 862 544 c 128,-1,27
 817 584 817 584 743 584 c 2,28,-1
 573 584 l 1,29,-1
 573 291 l 1,30,-1
 717 291 l 2,31,32
 805 291 805 291 856 331.5 c 128,-1,33
 907 372 907 372 907 442 c 0,25,26
EndSplineSet
EndChar

StartChar: C
Encoding: 67 67 137
Width: 1290
GlyphClass: 2
Flags: W
AnchorPoint: "Anchor-14" 0 2100 basechar 0
AnchorPoint: "Anchor-13" 1277 2100 basechar 0
AnchorPoint: "Anchor-10" 869 -15 basechar 0
AnchorPoint: "Anchor-9" 743 -15 basechar 0
AnchorPoint: "Anchor-8" 1162 1401 basechar 0
AnchorPoint: "Anchor-7" 1173 -420 basechar 0
AnchorPoint: "Anchor-6" 1281 1900 basechar 0
AnchorPoint: "Anchor-5" 763 741 basechar 0
AnchorPoint: "Anchor-4" 1175 1410 basechar 0
AnchorPoint: "Anchor-2" 759 -25 basechar 0
AnchorPoint: "Anchor-1" 1229 1500 basechar 0
AnchorPoint: "Anchor-0" 779 1600 basechar 0
LayerCount: 2
Fore
SplineSet
1208 39 m 1,0,1
 1030 -25 1030 -25 797 -25 c 0,2,3
 568 -25 568 -25 402 62.5 c 128,-1,4
 236 150 236 150 148.5 311.5 c 128,-1,5
 61 473 61 473 61 684 c 0,6,7
 61 911 61 911 159 1088 c 128,-1,8
 257 1265 257 1265 436 1361.5 c 128,-1,9
 615 1458 615 1458 848 1458 c 0,10,11
 1034 1458 1034 1458 1208 1413 c 1,12,-1
 1208 1014 l 1,13,14
 1148 1050 1148 1050 1065 1070 c 128,-1,15
 982 1090 982 1090 897 1090 c 0,16,17
 721 1090 721 1090 619.5 989 c 128,-1,18
 518 888 518 888 518 715 c 0,19,20
 518 543 518 543 619.5 443.5 c 128,-1,21
 721 344 721 344 891 344 c 0,22,23
 1048 344 1048 344 1208 424 c 1,24,-1
 1208 39 l 1,0,1
EndSplineSet
EndChar

StartChar: D
Encoding: 68 68 138
Width: 1554
GlyphClass: 2
Flags: W
AnchorPoint: "Anchor-14" 0 2100 basechar 0
AnchorPoint: "Anchor-13" 1479 2100 basechar 0
AnchorPoint: "Anchor-10" 600 0 basechar 0
AnchorPoint: "Anchor-8" 1243 1274 basechar 0
AnchorPoint: "Anchor-7" 1385 -420 basechar 0
AnchorPoint: "Anchor-6" 1512 1900 basechar 0
AnchorPoint: "Anchor-5" 803 717 basechar 0
AnchorPoint: "Anchor-4" 1242 1287 basechar 0
AnchorPoint: "Anchor-2" 743 -15 basechar 0
AnchorPoint: "Anchor-1" 1273 1500 basechar 0
AnchorPoint: "Anchor-0" 743 1600 basechar 0
LayerCount: 2
Fore
SplineSet
1493 735 m 0,0,1
 1493 517 1493 517 1401.5 349.5 c 128,-1,2
 1310 182 1310 182 1140 91 c 128,-1,3
 970 0 970 0 748 0 c 2,4,-1
 141 0 l 1,5,-1
 141 1434 l 1,6,-1
 735 1434 l 2,7,8
 1493 1434 1493 1434 1493 735 c 0,0,1
1034 731 m 0,9,10
 1034 836 1034 836 991.5 920 c 128,-1,11
 949 1004 949 1004 870 1050 c 128,-1,12
 791 1096 791 1096 684 1096 c 2,13,-1
 573 1096 l 1,14,-1
 573 338 l 1,15,-1
 694 338 l 2,16,17
 849 338 849 338 941.5 444.5 c 128,-1,18
 1034 551 1034 551 1034 731 c 0,9,10
EndSplineSet
EndChar

StartChar: E
Encoding: 69 69 139
Width: 1130
GlyphClass: 2
Flags: W
AnchorPoint: "Anchor-14" 0 2100 basechar 0
AnchorPoint: "Anchor-13" 1071 2100 basechar 0
AnchorPoint: "Anchor-10" 760 0 basechar 0
AnchorPoint: "Anchor-9" 560 0 basechar 0
AnchorPoint: "Anchor-8" 915 1434 basechar 0
AnchorPoint: "Anchor-7" 983 -420 basechar 0
AnchorPoint: "Anchor-6" 1095 1900 basechar 0
AnchorPoint: "Anchor-5" 553 717 basechar 0
AnchorPoint: "Anchor-4" 951 1434 basechar 0
AnchorPoint: "Anchor-2" 635 -15 basechar 0
AnchorPoint: "Anchor-1" 1015 1500 basechar 0
AnchorPoint: "Anchor-0" 635 1600 basechar 0
LayerCount: 2
Fore
SplineSet
141 0 m 1,0,-1
 141 1434 l 1,1,-1
 1034 1434 l 1,2,-1
 1034 1096 l 1,3,-1
 573 1096 l 1,4,-1
 573 887 l 1,5,-1
 1006 887 l 1,6,-1
 1006 549 l 1,7,-1
 573 549 l 1,8,-1
 573 338 l 1,9,-1
 1067 338 l 1,10,-1
 1067 0 l 1,11,-1
 141 0 l 1,0,-1
EndSplineSet
EndChar

StartChar: F
Encoding: 70 70 140
Width: 1108
GlyphClass: 2
Flags: W
AnchorPoint: "Anchor-14" 0 2100 basechar 0
AnchorPoint: "Anchor-13" 1040 2100 basechar 0
AnchorPoint: "Anchor-10" 230 0 basechar 0
AnchorPoint: "Anchor-8" 920 1434 basechar 0
AnchorPoint: "Anchor-7" 956 -420 basechar 0
AnchorPoint: "Anchor-6" 1069 1900 basechar 0
AnchorPoint: "Anchor-5" 540 717 basechar 0
AnchorPoint: "Anchor-4" 965 1434 basechar 0
AnchorPoint: "Anchor-2" 640 -15 basechar 0
AnchorPoint: "Anchor-1" 1020 1500 basechar 0
AnchorPoint: "Anchor-0" 640 1600 basechar 0
LayerCount: 2
Fore
SplineSet
573 1096 m 1,0,-1
 573 838 l 1,1,-1
 999 838 l 1,2,-1
 999 500 l 1,3,-1
 573 500 l 1,4,-1
 573 0 l 1,5,-1
 141 0 l 1,6,-1
 141 1434 l 1,7,-1
 1040 1434 l 1,8,-1
 1040 1096 l 1,9,-1
 573 1096 l 1,0,-1
EndSplineSet
EndChar

StartChar: G
Encoding: 71 71 141
Width: 1489
GlyphClass: 2
Flags: W
AnchorPoint: "Anchor-14" 0 2100 basechar 0
AnchorPoint: "Anchor-13" 1436 2100 basechar 0
AnchorPoint: "Anchor-10" 935 0 basechar 0
AnchorPoint: "Anchor-9" 791 -15 basechar 0
AnchorPoint: "Anchor-8" 1267 1385 basechar 0
AnchorPoint: "Anchor-7" 1291 -420 basechar 0
AnchorPoint: "Anchor-6" 1459 1900 basechar 0
AnchorPoint: "Anchor-5" 733 741 basechar 0
AnchorPoint: "Anchor-4" 1262 1344 basechar 0
AnchorPoint: "Anchor-2" 851 -25 basechar 0
AnchorPoint: "Anchor-1" 1311 1500 basechar 0
AnchorPoint: "Anchor-0" 851 1600 basechar 0
LayerCount: 2
Fore
SplineSet
1397 94 m 1,0,1
 1316 48 1316 48 1155 11.5 c 128,-1,2
 994 -25 994 -25 848 -25 c 0,3,4
 471 -25 471 -25 266 163.5 c 128,-1,5
 61 352 61 352 61 692 c 0,6,7
 61 920 61 920 164.5 1097 c 128,-1,8
 268 1274 268 1274 456 1366 c 128,-1,9
 644 1458 644 1458 899 1458 c 0,10,11
 1086 1458 1086 1458 1298 1405 c 1,12,-1
 1298 1028 l 1,13,14
 1199 1073 1199 1073 1108 1090.5 c 128,-1,15
 1017 1108 1017 1108 909 1108 c 0,16,17
 731 1108 731 1108 625.5 1001 c 128,-1,18
 520 894 520 894 520 707 c 0,19,20
 520 528 520 528 608.5 427 c 128,-1,21
 697 326 697 326 856 326 c 0,22,23
 930 326 930 326 965 334 c 1,24,-1
 965 539 l 1,25,-1
 690 539 l 1,26,-1
 690 866 l 1,27,-1
 1397 866 l 1,28,-1
 1397 94 l 1,0,1
EndSplineSet
EndChar

StartChar: H
Encoding: 72 72 142
Width: 1643
GlyphClass: 2
Flags: W
AnchorPoint: "Anchor-14" 0 2100 basechar 0
AnchorPoint: "Anchor-13" 1523 2100 basechar 0
AnchorPoint: "Anchor-10" 1100 0 basechar 0
AnchorPoint: "Anchor-8" 1363 1434 basechar 0
AnchorPoint: "Anchor-7" 1335 -420 basechar 0
AnchorPoint: "Anchor-6" 1575 1900 basechar 0
AnchorPoint: "Anchor-5" 822 717 basechar 0
AnchorPoint: "Anchor-4" 1340 1434 basechar 0
AnchorPoint: "Anchor-2" 822 -15 basechar 0
AnchorPoint: "Anchor-1" 1389 1500 basechar 0
AnchorPoint: "Anchor-0" 822 1600 basechar 0
LayerCount: 2
Fore
SplineSet
1069 0 m 1,0,-1
 1069 535 l 1,1,-1
 573 535 l 1,2,-1
 573 0 l 1,3,-1
 141 0 l 1,4,-1
 141 1434 l 1,5,-1
 573 1434 l 1,6,-1
 573 903 l 1,7,-1
 1069 903 l 1,8,-1
 1069 1434 l 1,9,-1
 1501 1434 l 1,10,-1
 1501 0 l 1,11,-1
 1069 0 l 1,0,-1
EndSplineSet
EndChar

StartChar: I
Encoding: 73 73 143
Width: 714
GlyphClass: 2
Flags: W
AnchorPoint: "Anchor-14" 0 2100 basechar 0
AnchorPoint: "Anchor-13" 635 2100 basechar 0
AnchorPoint: "Anchor-10" 230 0 basechar 0
AnchorPoint: "Anchor-9" 290 0 basechar 0
AnchorPoint: "Anchor-8" 600 1434 basechar 0
AnchorPoint: "Anchor-7" 586 -420 basechar 0
AnchorPoint: "Anchor-6" 682 1900 basechar 0
AnchorPoint: "Anchor-5" 402 717 basechar 0
AnchorPoint: "Anchor-4" 570 1434 basechar 0
AnchorPoint: "Anchor-2" 386 -15 basechar 0
AnchorPoint: "Anchor-1" 610 1500 basechar 0
AnchorPoint: "Anchor-0" 386 1600 basechar 0
LayerCount: 2
Fore
SplineSet
141 0 m 1,0,-1
 141 1434 l 1,1,-1
 573 1434 l 1,2,-1
 573 0 l 1,3,-1
 141 0 l 1,0,-1
EndSplineSet
EndChar

StartChar: J
Encoding: 74 74 144
Width: 1047
GlyphClass: 2
Flags: W
AnchorPoint: "Anchor-14" 0 2100 basechar 0
AnchorPoint: "Anchor-13" 849 2100 basechar 0
AnchorPoint: "Anchor-10" 200 0 basechar 0
AnchorPoint: "Anchor-8" 689 1434 basechar 0
AnchorPoint: "Anchor-7" 673 -420 basechar 0
AnchorPoint: "Anchor-6" 930 1900 basechar 0
AnchorPoint: "Anchor-5" 644 729 basechar 0
AnchorPoint: "Anchor-4" 675 1440 basechar 0
AnchorPoint: "Anchor-2" 498 -15 basechar 0
AnchorPoint: "Anchor-1" 718 1500 basechar 0
AnchorPoint: "Anchor-0" 657 1600 basechar 0
LayerCount: 2
Fore
SplineSet
922 612 m 2,0,1
 922 -25 922 -25 303 -25 c 0,2,3
 253 -25 253 -25 183 -13 c 128,-1,4
 113 -1 113 -1 41 23 c 1,5,-1
 41 422 l 1,6,7
 92 387 92 387 154.5 365.5 c 128,-1,8
 217 344 217 344 258 344 c 0,9,10
 374 344 374 344 431.5 415.5 c 128,-1,11
 489 487 489 487 489 637 c 2,12,-1
 489 1434 l 1,13,-1
 922 1434 l 1,14,-1
 922 612 l 2,0,1
EndSplineSet
EndChar

StartChar: K
Encoding: 75 75 145
Width: 1413
GlyphClass: 2
Flags: W
AnchorPoint: "Anchor-14" 0 2100 basechar 0
AnchorPoint: "Anchor-13" 1269 2100 basechar 0
AnchorPoint: "Anchor-10" 970 0 basechar 0
AnchorPoint: "Anchor-9" 691 -50 basechar 0
AnchorPoint: "Anchor-8" 1109 1434 basechar 0
AnchorPoint: "Anchor-7" 1267 -420 basechar 0
AnchorPoint: "Anchor-6" 1332 1900 basechar 0
AnchorPoint: "Anchor-5" 376 1003 basechar 0
AnchorPoint: "Anchor-4" 1149 1434 basechar 0
AnchorPoint: "Anchor-2" 731 -15 basechar 0
AnchorPoint: "Anchor-1" 1281 1500 basechar 0
AnchorPoint: "Anchor-0" 731 1600 basechar 0
LayerCount: 2
Fore
SplineSet
934 0 m 1,0,-1
 616 606 l 1,1,2
 584 678 584 678 578 705 c 1,3,-1
 573 705 l 1,4,-1
 573 0 l 1,5,-1
 141 0 l 1,6,-1
 141 1434 l 1,7,-1
 573 1434 l 1,8,-1
 573 752 l 1,9,-1
 578 752 l 1,10,11
 597 806 597 806 621 852 c 2,12,-1
 907 1434 l 1,13,-1
 1419 1434 l 1,14,-1
 1012 750 l 1,15,-1
 1458 0 l 1,16,-1
 934 0 l 1,0,-1
EndSplineSet
EndChar

StartChar: L
Encoding: 76 76 146
Width: 1108
GlyphClass: 2
Flags: W
AnchorPoint: "Anchor-14" 0 2100 basechar 0
AnchorPoint: "Anchor-13" 1018 2100 basechar 0
AnchorPoint: "Anchor-10" 730 0 basechar 0
AnchorPoint: "Anchor-9" 562 0 basechar 0
AnchorPoint: "Anchor-8" 376 1434 basechar 0
AnchorPoint: "Anchor-7" 986 -420 basechar 0
AnchorPoint: "Anchor-6" 1055 1900 basechar 0
AnchorPoint: "Anchor-5" 349 717 basechar 0
AnchorPoint: "Anchor-4" 416 1434 basechar 0
AnchorPoint: "Anchor-2" 644 -15 basechar 0
AnchorPoint: "Anchor-1" 954 1500 basechar 0
AnchorPoint: "Anchor-0" 644 1600 basechar 0
LayerCount: 2
Fore
SplineSet
141 0 m 1,0,-1
 141 1434 l 1,1,-1
 573 1434 l 1,2,-1
 573 338 l 1,3,-1
 1067 338 l 1,4,-1
 1067 0 l 1,5,-1
 141 0 l 1,0,-1
EndSplineSet
EndChar

StartChar: M
Encoding: 77 77 147
Width: 2021
GlyphClass: 2
Flags: W
AnchorPoint: "Anchor-14" 0 2100 basechar 0
AnchorPoint: "Anchor-13" 1903 2100 basechar 0
AnchorPoint: "Anchor-10" 1490 0 basechar 0
AnchorPoint: "Anchor-8" 1774 1434 basechar 0
AnchorPoint: "Anchor-7" 1714 -420 basechar 0
AnchorPoint: "Anchor-6" 1957 1900 basechar 0
AnchorPoint: "Anchor-5" 1010 834 basechar 0
AnchorPoint: "Anchor-4" 1709 1434 basechar 0
AnchorPoint: "Anchor-2" 1010 -15 basechar 0
AnchorPoint: "Anchor-1" 1764 1500 basechar 0
AnchorPoint: "Anchor-0" 1010 1600 basechar 0
LayerCount: 2
Fore
SplineSet
1454 0 m 1,0,-1
 1454 786 l 2,1,2
 1454 897 1454 897 1461 1030 c 2,3,-1
 1464 1096 l 1,4,-1
 1452 1096 l 1,5,6
 1420 927 1420 927 1403 862 c 2,7,-1
 1192 0 l 1,8,-1
 786 0 l 1,9,-1
 565 852 l 2,10,11
 556 884 556 884 518 1096 c 1,12,-1
 506 1096 l 1,13,14
 520 760 520 760 520 676 c 2,15,-1
 520 0 l 1,16,-1
 141 0 l 1,17,-1
 141 1434 l 1,18,-1
 788 1434 l 1,19,-1
 985 655 l 2,20,21
 992 631 992 631 1003.5 557.5 c 128,-1,22
 1015 484 1015 484 1018 444 c 1,23,-1
 1024 444 l 1,24,25
 1035 535 1035 535 1059 659 c 1,26,-1
 1243 1434 l 1,27,-1
 1880 1434 l 1,28,-1
 1880 0 l 1,29,-1
 1454 0 l 1,0,-1
EndSplineSet
EndChar

StartChar: N
Encoding: 78 78 148
Width: 1663
GlyphClass: 2
Flags: W
AnchorPoint: "Anchor-14" 0 2100 basechar 0
AnchorPoint: "Anchor-13" 1578 2100 basechar 0
AnchorPoint: "Anchor-10" 1160 0 basechar 0
AnchorPoint: "Anchor-9" 812 -50 basechar 0
AnchorPoint: "Anchor-8" 1418 1434 basechar 0
AnchorPoint: "Anchor-7" 1390 -420 basechar 0
AnchorPoint: "Anchor-6" 1617 1900 basechar 0
AnchorPoint: "Anchor-5" 846 717 basechar 0
AnchorPoint: "Anchor-4" 1395 1434 basechar 0
AnchorPoint: "Anchor-2" 846 -15 basechar 0
AnchorPoint: "Anchor-1" 1446 1500 basechar 0
AnchorPoint: "Anchor-0" 831 1600 basechar 0
LayerCount: 2
Fore
SplineSet
1143 0 m 1,0,-1
 637 692 l 2,1,2
 577 774 577 774 539 840 c 1,3,-1
 535 840 l 1,4,5
 541 734 541 734 541 602 c 2,6,-1
 541 0 l 1,7,-1
 141 0 l 1,8,-1
 141 1434 l 1,9,-1
 549 1434 l 1,10,-1
 1034 776 l 2,11,12
 1043 763 1043 763 1056 745 c 128,-1,13
 1069 727 1069 727 1082 708 c 128,-1,14
 1095 689 1095 689 1106.5 671 c 128,-1,15
 1118 653 1118 653 1124 639 c 1,16,-1
 1128 639 l 1,17,18
 1122 683 1122 683 1122 791 c 2,19,-1
 1122 1434 l 1,20,-1
 1522 1434 l 1,21,-1
 1522 0 l 1,22,-1
 1143 0 l 1,0,-1
EndSplineSet
EndChar

StartChar: O
Encoding: 79 79 149
Width: 1567
GlyphClass: 2
Flags: W
AnchorPoint: "Anchor-14" 0 2100 basechar 0
AnchorPoint: "Anchor-13" 1554 2100 basechar 0
AnchorPoint: "Anchor-10" 840 -15 basechar 0
AnchorPoint: "Anchor-9" 782 -15 basechar 0
AnchorPoint: "Anchor-8" 1250 1320 basechar 0
AnchorPoint: "Anchor-7" 1460 -420 basechar 0
AnchorPoint: "Anchor-6" 1558 1900 basechar 0
AnchorPoint: "Anchor-5" 784 741 basechar 0
AnchorPoint: "Anchor-4" 1371 1172 basechar 0
AnchorPoint: "Anchor-2" 780 -25 basechar 0
AnchorPoint: "Anchor-1" 1310 1500 basechar 0
AnchorPoint: "Anchor-0" 784 1600 basechar 0
LayerCount: 2
Fore
SplineSet
1505 721 m 0,0,1
 1505 505 1505 505 1412 334.5 c 128,-1,2
 1319 164 1319 164 1152 69.5 c 128,-1,3
 985 -25 985 -25 778 -25 c 0,4,5
 576 -25 576 -25 410.5 66.5 c 128,-1,6
 245 158 245 158 153 323.5 c 128,-1,7
 61 489 61 489 61 698 c 0,8,9
 61 917 61 917 154 1092 c 128,-1,10
 247 1267 247 1267 415 1362.5 c 128,-1,11
 583 1458 583 1458 797 1458 c 0,12,13
 1003 1458 1003 1458 1165.5 1366.5 c 128,-1,14
 1328 1275 1328 1275 1416.5 1105.5 c 128,-1,15
 1505 936 1505 936 1505 721 c 0,0,1
1047 709 m 0,16,17
 1047 886 1047 886 979 988 c 128,-1,18
 911 1090 911 1090 793 1090 c 0,19,20
 664 1090 664 1090 592 992 c 128,-1,21
 520 894 520 894 520 715 c 0,22,23
 520 540 520 540 591.5 442 c 128,-1,24
 663 344 663 344 786 344 c 0,25,26
 861 344 861 344 921 388 c 128,-1,27
 981 432 981 432 1014 514 c 128,-1,28
 1047 596 1047 596 1047 709 c 0,16,17
EndSplineSet
EndChar

StartChar: P
Encoding: 80 80 150
Width: 1343
GlyphClass: 2
Flags: W
AnchorPoint: "Anchor-14" 0 2100 basechar 0
AnchorPoint: "Anchor-13" 1220 2100 basechar 0
AnchorPoint: "Anchor-10" 230 0 basechar 0
AnchorPoint: "Anchor-8" 1060 1274 basechar 0
AnchorPoint: "Anchor-7" 1138 -420 basechar 0
AnchorPoint: "Anchor-6" 1270 1900 basechar 0
AnchorPoint: "Anchor-5" 745 1003 basechar 0
AnchorPoint: "Anchor-4" 1100 1314 basechar 0
AnchorPoint: "Anchor-2" 683 -15 basechar 0
AnchorPoint: "Anchor-1" 1073 1500 basechar 0
AnchorPoint: "Anchor-0" 683 1600 basechar 0
LayerCount: 2
Fore
SplineSet
1313 961 m 0,0,1
 1313 814 1313 814 1238.5 700 c 128,-1,2
 1164 586 1164 586 1026 523.5 c 128,-1,3
 888 461 888 461 705 461 c 2,4,-1
 573 461 l 1,5,-1
 573 0 l 1,6,-1
 141 0 l 1,7,-1
 141 1434 l 1,8,-1
 729 1434 l 2,9,10
 1032 1434 1032 1434 1172.5 1319 c 128,-1,11
 1313 1204 1313 1204 1313 961 c 0,0,1
856 946 m 0,12,13
 856 1034 856 1034 805 1079 c 128,-1,14
 754 1124 754 1124 655 1124 c 2,15,-1
 573 1124 l 1,16,-1
 573 770 l 1,17,-1
 670 770 l 2,18,19
 856 770 856 770 856 946 c 0,12,13
EndSplineSet
EndChar

StartChar: Q
Encoding: 81 81 151
Width: 1567
GlyphClass: 2
Flags: W
AnchorPoint: "Anchor-14" 0 2100 basechar 0
AnchorPoint: "Anchor-13" 1554 2100 basechar 0
AnchorPoint: "Anchor-10" 890 -180 basechar 0
AnchorPoint: "Anchor-8" 1250 1320 basechar 0
AnchorPoint: "Anchor-7" 1494 -420 basechar 0
AnchorPoint: "Anchor-6" 1558 1900 basechar 0
AnchorPoint: "Anchor-5" 784 738 basechar 0
AnchorPoint: "Anchor-4" 1371 1172 basechar 0
AnchorPoint: "Anchor-2" 780 -270 basechar 0
AnchorPoint: "Anchor-1" 1310 1500 basechar 0
AnchorPoint: "Anchor-0" 784 1600 basechar 0
LayerCount: 2
Fore
SplineSet
1505 721 m 0,0,1
 1505 388 1505 388 1290 173 c 1,2,-1
 1669 -193 l 1,3,-1
 1127 -193 l 1,4,-1
 945 -8 l 1,5,6
 865 -25 865 -25 778 -25 c 0,7,8
 576 -25 576 -25 410.5 66.5 c 128,-1,9
 245 158 245 158 153 323.5 c 128,-1,10
 61 489 61 489 61 698 c 0,11,12
 61 917 61 917 154 1092 c 128,-1,13
 247 1267 247 1267 415 1362.5 c 128,-1,14
 583 1458 583 1458 797 1458 c 0,15,16
 1003 1458 1003 1458 1165.5 1366.5 c 128,-1,17
 1328 1275 1328 1275 1416.5 1105.5 c 128,-1,18
 1505 936 1505 936 1505 721 c 0,0,1
1047 709 m 0,19,20
 1047 886 1047 886 979 988 c 128,-1,21
 911 1090 911 1090 793 1090 c 0,22,23
 664 1090 664 1090 592 992 c 128,-1,24
 520 894 520 894 520 715 c 0,25,26
 520 540 520 540 591.5 442 c 128,-1,27
 663 344 663 344 786 344 c 0,28,29
 903 344 903 344 975 443 c 128,-1,30
 1047 542 1047 542 1047 709 c 0,19,20
EndSplineSet
EndChar

StartChar: R
Encoding: 82 82 152
Width: 1397
GlyphClass: 2
Flags: W
AnchorPoint: "Anchor-14" 0 2100 basechar 0
AnchorPoint: "Anchor-13" 1286 2100 basechar 0
AnchorPoint: "Anchor-10" 1040 0 basechar 0
AnchorPoint: "Anchor-9" 673 -50 basechar 0
AnchorPoint: "Anchor-8" 1126 1274 basechar 0
AnchorPoint: "Anchor-7" 1277 -420 basechar 0
AnchorPoint: "Anchor-6" 1336 1900 basechar 0
AnchorPoint: "Anchor-5" 723 1003 basechar 0
AnchorPoint: "Anchor-4" 1076 1314 basechar 0
AnchorPoint: "Anchor-2" 731 -15 basechar 0
AnchorPoint: "Anchor-1" 1101 1500 basechar 0
AnchorPoint: "Anchor-0" 671 1600 basechar 0
LayerCount: 2
Fore
SplineSet
885 0 m 1,0,-1
 778 309 l 2,1,2
 747 400 747 400 697.5 452 c 128,-1,3
 648 504 648 504 590 504 c 2,4,-1
 573 504 l 1,5,-1
 573 0 l 1,6,-1
 141 0 l 1,7,-1
 141 1434 l 1,8,-1
 715 1434 l 2,9,10
 1016 1434 1016 1434 1159.5 1335.5 c 128,-1,11
 1303 1237 1303 1237 1303 1040 c 0,12,13
 1303 892 1303 892 1219.5 792 c 128,-1,14
 1136 692 1136 692 971 647 c 1,15,-1
 971 643 l 1,16,17
 1062 615 1062 615 1122.5 552 c 128,-1,18
 1183 489 1183 489 1231 365 c 2,19,-1
 1372 0 l 1,20,-1
 885 0 l 1,0,-1
844 979 m 0,21,22
 844 1051 844 1051 800 1093 c 128,-1,23
 756 1135 756 1135 662 1135 c 2,24,-1
 573 1135 l 1,25,-1
 573 807 l 1,26,-1
 651 807 l 2,27,28
 738 807 738 807 791 856 c 128,-1,29
 844 905 844 905 844 979 c 0,21,22
EndSplineSet
EndChar

StartChar: S
Encoding: 83 83 153
Width: 1171
GlyphClass: 2
Flags: W
AnchorPoint: "Anchor-14" 0 2100 basechar 0
AnchorPoint: "Anchor-13" 1116 2100 basechar 0
AnchorPoint: "Anchor-10" 610 0 basechar 0
AnchorPoint: "Anchor-9" 572 -15 basechar 0
AnchorPoint: "Anchor-8" 956 1428 basechar 0
AnchorPoint: "Anchor-7" 1018 -420 basechar 0
AnchorPoint: "Anchor-6" 1143 1900 basechar 0
AnchorPoint: "Anchor-5" 612 741 basechar 0
AnchorPoint: "Anchor-4" 969 1410 basechar 0
AnchorPoint: "Anchor-2" 578 -25 basechar 0
AnchorPoint: "Anchor-1" 1008 1500 basechar 0
AnchorPoint: "Anchor-0" 598 1600 basechar 0
LayerCount: 2
Fore
SplineSet
1137 434 m 0,0,1
 1137 291 1137 291 1060.5 185 c 128,-1,2
 984 79 984 79 846 27 c 128,-1,3
 708 -25 708 -25 514 -25 c 0,4,5
 289 -25 289 -25 102 51 c 1,6,-1
 102 444 l 1,7,8
 192 378 192 378 301 337.5 c 128,-1,9
 410 297 410 297 504 297 c 0,10,11
 575 297 575 297 614 322.5 c 128,-1,12
 653 348 653 348 653 397 c 0,13,14
 653 432 653 432 633.5 458.5 c 128,-1,15
 614 485 614 485 574.5 508 c 128,-1,16
 535 531 535 531 428 571 c 0,17,18
 82 704 82 704 82 1001 c 0,19,20
 82 1209 82 1209 240 1333.5 c 128,-1,21
 398 1458 398 1458 664 1458 c 0,22,23
 739 1458 739 1458 802 1452 c 128,-1,24
 865 1446 865 1446 916.5 1437 c 128,-1,25
 968 1428 968 1428 1061 1403 c 1,26,-1
 1061 1038 l 1,27,28
 880 1137 880 1137 705 1137 c 0,29,30
 633 1137 633 1137 589 1110 c 128,-1,31
 545 1083 545 1083 545 1036 c 0,32,33
 545 991 545 991 580.5 961.5 c 128,-1,34
 616 932 616 932 729 885 c 0,35,36
 952 795 952 795 1044.5 688 c 128,-1,37
 1137 581 1137 581 1137 434 c 0,0,1
EndSplineSet
EndChar

StartChar: T
Encoding: 84 84 154
Width: 1303
GlyphClass: 2
Flags: W
AnchorPoint: "Anchor-14" 0 2100 basechar 0
AnchorPoint: "Anchor-13" 1160 2100 basechar 0
AnchorPoint: "Anchor-10" 460 0 basechar 0
AnchorPoint: "Anchor-9" 536 0 basechar 0
AnchorPoint: "Anchor-8" 1117 1443 basechar 0
AnchorPoint: "Anchor-7" 1123 -420 basechar 0
AnchorPoint: "Anchor-6" 1217 1900 basechar 0
AnchorPoint: "Anchor-5" 650 717 basechar 0
AnchorPoint: "Anchor-4" 1112 1434 basechar 0
AnchorPoint: "Anchor-2" 652 -15 basechar 0
AnchorPoint: "Anchor-1" 1187 1500 basechar 0
AnchorPoint: "Anchor-0" 652 1600 basechar 0
LayerCount: 2
Fore
SplineSet
866 1096 m 1,0,-1
 866 0 l 1,1,-1
 432 0 l 1,2,-1
 432 1096 l 1,3,-1
 31 1096 l 1,4,-1
 31 1434 l 1,5,-1
 1272 1434 l 1,6,-1
 1272 1096 l 1,7,-1
 866 1096 l 1,0,-1
EndSplineSet
EndChar

StartChar: U
Encoding: 85 85 155
Width: 1516
GlyphClass: 2
Flags: W
AnchorPoint: "Anchor-14" 0 2100 basechar 0
AnchorPoint: "Anchor-13" 1445 2100 basechar 0
AnchorPoint: "Anchor-10" 760 0 basechar 0
AnchorPoint: "Anchor-9" 741 -15 basechar 0
AnchorPoint: "Anchor-8" 1280 1439 basechar 0
AnchorPoint: "Anchor-7" 1275 -420 basechar 0
AnchorPoint: "Anchor-6" 1478 1900 basechar 0
AnchorPoint: "Anchor-5" 758 729 basechar 0
AnchorPoint: "Anchor-4" 1271 1440 basechar 0
AnchorPoint: "Anchor-2" 778 -25 basechar 0
AnchorPoint: "Anchor-1" 1338 1500 basechar 0
AnchorPoint: "Anchor-0" 758 1600 basechar 0
LayerCount: 2
Fore
SplineSet
1391 655 m 2,0,1
 1391 310 1391 310 1233.5 142.5 c 128,-1,2
 1076 -25 1076 -25 748 -25 c 0,3,4
 442 -25 442 -25 283.5 142.5 c 128,-1,5
 125 310 125 310 125 647 c 2,6,-1
 125 1434 l 1,7,-1
 559 1434 l 1,8,-1
 559 631 l 2,9,10
 559 493 559 493 610.5 418.5 c 128,-1,11
 662 344 662 344 758 344 c 0,12,13
 855 344 855 344 905.5 414 c 128,-1,14
 956 484 956 484 956 621 c 2,15,-1
 956 1434 l 1,16,-1
 1391 1434 l 1,17,-1
 1391 655 l 2,0,1
EndSplineSet
EndChar

StartChar: V
Encoding: 86 86 156
Width: 1438
GlyphClass: 2
Flags: W
AnchorPoint: "Anchor-14" 0 2100 basechar 0
AnchorPoint: "Anchor-13" 1334 2100 basechar 0
AnchorPoint: "Anchor-10" 560 0 basechar 0
AnchorPoint: "Anchor-8" 1255 1434 basechar 0
AnchorPoint: "Anchor-7" 1316 -420 basechar 0
AnchorPoint: "Anchor-6" 1376 1900 basechar 0
AnchorPoint: "Anchor-5" 719 717 basechar 0
AnchorPoint: "Anchor-4" 1295 1434 basechar 0
AnchorPoint: "Anchor-2" 719 -15 basechar 0
AnchorPoint: "Anchor-1" 1362 1500 basechar 0
AnchorPoint: "Anchor-0" 719 1600 basechar 0
LayerCount: 2
Fore
SplineSet
958 0 m 1,0,-1
 473 0 l 1,1,-1
 10 1434 l 1,2,-1
 475 1434 l 1,3,-1
 694 551 l 2,4,5
 720 444 720 444 723 391 c 1,6,-1
 733 391 l 1,7,8
 739 458 739 458 764 557 c 2,9,-1
 977 1434 l 1,10,-1
 1427 1434 l 1,11,-1
 958 0 l 1,0,-1
EndSplineSet
EndChar

StartChar: W
Encoding: 87 87 157
Width: 2157
GlyphClass: 2
Flags: W
AnchorPoint: "Anchor-14" 0 2100 basechar 0
AnchorPoint: "Anchor-13" 2003 2100 basechar 0
AnchorPoint: "Anchor-10" 1305 0 basechar 0
AnchorPoint: "Anchor-8" 1970 1434 basechar 0
AnchorPoint: "Anchor-7" 1978 -420 basechar 0
AnchorPoint: "Anchor-6" 2068 1900 basechar 0
AnchorPoint: "Anchor-5" 1079 717 basechar 0
AnchorPoint: "Anchor-4" 1953 1434 basechar 0
AnchorPoint: "Anchor-2" 1079 -15 basechar 0
AnchorPoint: "Anchor-1" 2040 1500 basechar 0
AnchorPoint: "Anchor-0" 1079 1600 basechar 0
LayerCount: 2
Fore
SplineSet
1774 0 m 1,0,-1
 1315 0 l 1,1,-1
 1116 817 l 2,2,3
 1107 852 1107 852 1096 991 c 1,4,-1
 1092 991 l 1,5,6
 1077 868 1077 868 1063 817 c 2,7,-1
 848 0 l 1,8,-1
 362 0 l 1,9,-1
 20 1434 l 1,10,-1
 494 1434 l 1,11,-1
 614 590 l 2,12,13
 617 574 617 574 623 497 c 2,14,-1
 629 414 l 1,15,-1
 635 414 l 1,16,17
 637 440 637 440 647 502.5 c 128,-1,18
 657 565 657 565 666 596 c 2,19,-1
 887 1434 l 1,20,-1
 1358 1434 l 1,21,-1
 1542 584 l 1,22,-1
 1555 499 l 1,23,-1
 1565 416 l 1,24,-1
 1569 416 l 1,25,-1
 1572 451 l 1,26,-1
 1585 590 l 1,27,-1
 1710 1434 l 1,28,-1
 2136 1434 l 1,29,-1
 1774 0 l 1,0,-1
EndSplineSet
EndChar

StartChar: X
Encoding: 88 88 158
Width: 1438
GlyphClass: 2
Flags: W
AnchorPoint: "Anchor-14" 0 2100 basechar 0
AnchorPoint: "Anchor-13" 1293 2100 basechar 0
AnchorPoint: "Anchor-10" 970 0 basechar 0
AnchorPoint: "Anchor-8" 1165 1434 basechar 0
AnchorPoint: "Anchor-7" 1263 -420 basechar 0
AnchorPoint: "Anchor-6" 1353 1900 basechar 0
AnchorPoint: "Anchor-5" 719 717 basechar 0
AnchorPoint: "Anchor-4" 1213 1434 basechar 0
AnchorPoint: "Anchor-2" 719 -15 basechar 0
AnchorPoint: "Anchor-1" 1315 1500 basechar 0
AnchorPoint: "Anchor-0" 719 1600 basechar 0
LayerCount: 2
Fore
SplineSet
930 0 m 1,0,-1
 752 393 l 2,1,2
 735 430 735 430 729.5 465.5 c 128,-1,3
 724 501 724 501 721 524 c 1,4,-1
 717 524 l 1,5,6
 711 500 711 500 703 461 c 128,-1,7
 695 422 695 422 680 385 c 2,8,-1
 514 0 l 1,9,-1
 0 0 l 1,10,-1
 430 715 l 1,11,-1
 39 1434 l 1,12,-1
 561 1434 l 1,13,-1
 700 1055 l 2,14,15
 719 1002 719 1002 735 915 c 1,16,-1
 739 915 l 1,17,18
 755 1013 755 1013 776 1057 c 2,19,-1
 938 1434 l 1,20,-1
 1419 1434 l 1,21,-1
 1016 723 l 1,22,-1
 1438 0 l 1,23,-1
 930 0 l 1,0,-1
EndSplineSet
EndChar

StartChar: Y
Encoding: 89 89 159
Width: 1331
GlyphClass: 2
Flags: W
AnchorPoint: "Anchor-14" 0 2100 basechar 0
AnchorPoint: "Anchor-13" 1207 2100 basechar 0
AnchorPoint: "Anchor-10" 500 0 basechar 0
AnchorPoint: "Anchor-8" 1155 1434 basechar 0
AnchorPoint: "Anchor-7" 1195 -420 basechar 0
AnchorPoint: "Anchor-6" 1257 1900 basechar 0
AnchorPoint: "Anchor-5" 659 430 basechar 0
AnchorPoint: "Anchor-4" 1155 1434 basechar 0
AnchorPoint: "Anchor-2" 655 -15 basechar 0
AnchorPoint: "Anchor-1" 1275 1500 basechar 0
AnchorPoint: "Anchor-0" 655 1600 basechar 0
LayerCount: 2
Fore
SplineSet
874 498 m 1,0,-1
 874 0 l 1,1,-1
 442 0 l 1,2,-1
 442 492 l 1,3,-1
 0 1434 l 1,4,-1
 496 1434 l 1,5,-1
 651 983 l 2,6,7
 667 937 667 937 673.5 903 c 128,-1,8
 680 869 680 869 688 834 c 1,9,-1
 692 834 l 1,10,11
 705 925 705 925 721 975 c 2,12,-1
 874 1434 l 1,13,-1
 1331 1434 l 1,14,-1
 874 498 l 1,0,-1
EndSplineSet
EndChar

StartChar: Z
Encoding: 90 90 160
Width: 1313
GlyphClass: 2
Flags: W
AnchorPoint: "Anchor-14" 0 2100 basechar 0
AnchorPoint: "Anchor-13" 1224 2100 basechar 0
AnchorPoint: "Anchor-10" 910 0 basechar 0
AnchorPoint: "Anchor-8" 1136 1434 basechar 0
AnchorPoint: "Anchor-7" 1180 -420 basechar 0
AnchorPoint: "Anchor-6" 1258 1900 basechar 0
AnchorPoint: "Anchor-5" 640 717 basechar 0
AnchorPoint: "Anchor-4" 1156 1434 basechar 0
AnchorPoint: "Anchor-2" 676 -15 basechar 0
AnchorPoint: "Anchor-1" 1256 1500 basechar 0
AnchorPoint: "Anchor-0" 676 1600 basechar 0
LayerCount: 2
Fore
SplineSet
616 338 m 1,0,-1
 1264 338 l 1,1,-1
 1264 0 l 1,2,-1
 61 0 l 1,3,-1
 61 303 l 1,4,-1
 723 1096 l 1,5,-1
 102 1096 l 1,6,-1
 102 1434 l 1,7,-1
 1243 1434 l 1,8,-1
 1243 1133 l 1,9,-1
 616 338 l 1,0,-1
EndSplineSet
EndChar

StartChar: bracketleft
Encoding: 91 91 161
Width: 862
GlyphClass: 2
Flags: W
LayerCount: 2
Fore
SplineSet
233 -326 m 1,0,-1
 233 1434 l 1,1,-1
 776 1434 l 1,2,-1
 776 1176 l 1,3,-1
 575 1176 l 1,4,-1
 575 -68 l 1,5,-1
 776 -68 l 1,6,-1
 776 -326 l 1,7,-1
 233 -326 l 1,0,-1
EndSplineSet
EndChar

StartChar: backslash
Encoding: 92 92 162
Width: 987
GlyphClass: 2
Flags: W
LayerCount: 2
Fore
SplineSet
719 -238 m 1,0,-1
 20 1434 l 1,1,-1
 393 1434 l 1,2,-1
 1090 -238 l 1,3,-1
 719 -238 l 1,0,-1
EndSplineSet
EndChar

StartChar: bracketright
Encoding: 93 93 163
Width: 862
GlyphClass: 2
Flags: W
LayerCount: 2
Fore
SplineSet
86 -326 m 1,0,-1
 86 -68 l 1,1,-1
 287 -68 l 1,2,-1
 287 1176 l 1,3,-1
 86 1176 l 1,4,-1
 86 1434 l 1,5,-1
 629 1434 l 1,6,-1
 629 -326 l 1,7,-1
 86 -326 l 1,0,-1
EndSplineSet
EndChar

StartChar: asciicircum
Encoding: 94 94 164
Width: 1464
GlyphClass: 2
Flags: W
LayerCount: 2
Fore
SplineSet
971 629 m 1,0,-1
 735 1182 l 1,1,-1
 729 1182 l 1,2,-1
 494 629 l 1,3,-1
 188 629 l 1,4,-1
 612 1458 l 1,5,-1
 852 1458 l 1,6,-1
 1276 629 l 1,7,-1
 971 629 l 1,0,-1
EndSplineSet
EndChar

StartChar: underscore
Encoding: 95 95 165
Width: 850
GlyphClass: 2
Flags: W
LayerCount: 2
Fore
SplineSet
0 -297 m 1,0,-1
 0 -178 l 1,1,-1
 850 -178 l 1,2,-1
 850 -297 l 1,3,-1
 0 -297 l 1,0,-1
EndSplineSet
EndChar

StartChar: grave
Encoding: 96 96 166
Width: 711
GlyphClass: 2
Flags: W
LayerCount: 2
Fore
SplineSet
385 1186 m 1,0,-1
 29 1507 l 1,1,-1
 387 1507 l 1,2,-1
 686 1186 l 1,3,-1
 385 1186 l 1,0,-1
EndSplineSet
EndChar

StartChar: a
Encoding: 97 97 167
Width: 1149
GlyphClass: 2
Flags: W
AnchorPoint: "Anchor-14" 0 2100 basechar 0
AnchorPoint: "Anchor-13" 1082 2100 basechar 0
AnchorPoint: "Anchor-10" 750 0 basechar 0
AnchorPoint: "Anchor-9" 490 -15 basechar 0
AnchorPoint: "Anchor-8" 840 1009 basechar 0
AnchorPoint: "Anchor-7" 939 -420 basechar 0
AnchorPoint: "Anchor-6" 1109 1900 basechar 0
AnchorPoint: "Anchor-5" 561 321 basechar 0
AnchorPoint: "Anchor-4" 920 910 basechar 0
AnchorPoint: "Anchor-2" 560 -25 basechar 0
AnchorPoint: "Anchor-1" 940 1200 basechar 0
AnchorPoint: "Anchor-0" 560 1300 basechar 0
LayerCount: 2
Fore
SplineSet
670 0 m 1,0,-1
 670 156 l 1,1,-1
 666 156 l 1,2,3
 564 -25 564 -25 354 -25 c 0,4,5
 209 -25 209 -25 127 61 c 128,-1,6
 45 147 45 147 45 291 c 0,7,8
 45 593 45 593 416 641 c 2,9,-1
 670 674 l 1,10,11
 670 724 670 724 625 756 c 128,-1,12
 580 788 580 788 504 788 c 0,13,14
 332 788 332 788 141 690 c 1,15,-1
 141 967 l 1,16,17
 224 1003 224 1003 349 1026 c 128,-1,18
 474 1049 474 1049 563 1049 c 0,19,20
 824 1049 824 1049 941.5 937.5 c 128,-1,21
 1059 826 1059 826 1059 565 c 2,22,-1
 1059 0 l 1,23,-1
 670 0 l 1,0,-1
418 348 m 0,24,25
 418 306 418 306 444.5 279 c 128,-1,26
 471 252 471 252 520 252 c 0,27,28
 587 252 587 252 628.5 302 c 128,-1,29
 670 352 670 352 670 430 c 2,30,-1
 670 469 l 1,31,-1
 526 449 l 2,32,33
 418 431 418 431 418 348 c 0,24,25
EndSplineSet
EndChar

StartChar: b
Encoding: 98 98 168
Width: 1315
GlyphClass: 2
Flags: W
AnchorPoint: "Anchor-14" 0 2100 basechar 0
AnchorPoint: "Anchor-13" 1245 2100 basechar 0
AnchorPoint: "Anchor-12" 883 80 basechar 0
AnchorPoint: "Anchor-11" 883 80 basechar 0
AnchorPoint: "Anchor-10" 710 0 basechar 0
AnchorPoint: "Anchor-8" 1085 950 basechar 0
AnchorPoint: "Anchor-7" 1149 -420 basechar 0
AnchorPoint: "Anchor-6" 1275 1900 basechar 0
AnchorPoint: "Anchor-5" 731 462 basechar 0
AnchorPoint: "Anchor-4" 1080 914 basechar 0
AnchorPoint: "Anchor-2" 661 -25 basechar 0
AnchorPoint: "Anchor-1" 1011 1400 basechar 0
AnchorPoint: "Anchor-0" 641 1650 basechar 0
LayerCount: 2
Fore
SplineSet
1257 543 m 0,0,1
 1257 375 1257 375 1201.5 245.5 c 128,-1,2
 1146 116 1146 116 1044 45.5 c 128,-1,3
 942 -25 942 -25 813 -25 c 0,4,5
 714 -25 714 -25 643.5 11.5 c 128,-1,6
 573 48 573 48 532 106 c 1,7,-1
 528 106 l 1,8,-1
 528 0 l 1,9,-1
 102 0 l 1,10,-1
 102 1516 l 1,11,-1
 528 1516 l 1,12,-1
 528 885 l 1,13,-1
 532 885 l 1,14,15
 582 961 582 961 667.5 1005 c 128,-1,16
 753 1049 753 1049 856 1049 c 0,17,18
 1050 1049 1050 1049 1153.5 920 c 128,-1,19
 1257 791 1257 791 1257 543 c 0,0,1
825 530 m 0,20,21
 825 633 825 633 785.5 685 c 128,-1,22
 746 737 746 737 672 737 c 0,23,24
 607 737 607 737 563.5 682.5 c 128,-1,25
 520 628 520 628 520 541 c 2,26,-1
 520 479 l 2,27,28
 520 391 520 391 559 339 c 128,-1,29
 598 287 598 287 664 287 c 0,30,31
 741 287 741 287 783 350.5 c 128,-1,32
 825 414 825 414 825 530 c 0,20,21
EndSplineSet
EndChar

StartChar: c
Encoding: 99 99 169
Width: 1014
GlyphClass: 2
Flags: W
AnchorPoint: "Anchor-14" 0 2100 basechar 0
AnchorPoint: "Anchor-13" 972 2100 basechar 0
AnchorPoint: "Anchor-12" 751 26 basechar 0
AnchorPoint: "Anchor-11" 751 26 basechar 0
AnchorPoint: "Anchor-10" 660 0 basechar 0
AnchorPoint: "Anchor-9" 596 -15 basechar 0
AnchorPoint: "Anchor-8" 883 1009 basechar 0
AnchorPoint: "Anchor-7" 892 -420 basechar 0
AnchorPoint: "Anchor-6" 989 1900 basechar 0
AnchorPoint: "Anchor-5" 599 536 basechar 0
AnchorPoint: "Anchor-4" 887 991 basechar 0
AnchorPoint: "Anchor-2" 596 -25 basechar 0
AnchorPoint: "Anchor-1" 946 1200 basechar 0
AnchorPoint: "Anchor-0" 576 1300 basechar 0
LayerCount: 2
Fore
SplineSet
946 29 m 1,0,1
 905 5 905 5 817 -10 c 128,-1,2
 729 -25 729 -25 614 -25 c 0,3,4
 452 -25 452 -25 324.5 40.5 c 128,-1,5
 197 106 197 106 127 224 c 128,-1,6
 57 342 57 342 57 489 c 0,7,8
 57 665 57 665 131.5 790.5 c 128,-1,9
 206 916 206 916 344 982.5 c 128,-1,10
 482 1049 482 1049 664 1049 c 0,11,12
 764 1049 764 1049 843.5 1036 c 128,-1,13
 923 1023 923 1023 946 1006 c 1,14,-1
 946 674 l 1,15,16
 914 699 914 699 854 718 c 128,-1,17
 794 737 794 737 743 737 c 0,18,19
 618 737 618 737 553.5 677.5 c 128,-1,20
 489 618 489 618 489 510 c 0,21,22
 489 404 489 404 552.5 345.5 c 128,-1,23
 616 287 616 287 727 287 c 0,24,25
 846 287 846 287 946 344 c 1,26,-1
 946 29 l 1,0,1
EndSplineSet
EndChar

StartChar: d
Encoding: 100 100 170
Width: 1315
GlyphClass: 2
Flags: W
AnchorPoint: "Anchor-14" 0 2100 basechar 0
AnchorPoint: "Anchor-13" 1247 2100 basechar 0
AnchorPoint: "Anchor-12" 956 0 basechar 0
AnchorPoint: "Anchor-11" 997 9 basechar 0
AnchorPoint: "Anchor-10" 870 0 basechar 0
AnchorPoint: "Anchor-8" 1069 1522 basechar 0
AnchorPoint: "Anchor-7" 1081 -420 basechar 0
AnchorPoint: "Anchor-6" 1275 1900 basechar 0
AnchorPoint: "Anchor-5" 651 539 basechar 0
AnchorPoint: "Anchor-4" 1073 1513 basechar 0
AnchorPoint: "Anchor-2" 581 -25 basechar 0
AnchorPoint: "Anchor-1" 1141 1600 basechar 0
AnchorPoint: "Anchor-0" 581 1650 basechar 0
LayerCount: 2
Fore
SplineSet
786 0 m 1,0,-1
 786 119 l 1,1,-1
 782 119 l 1,2,3
 731 52 731 52 649 13.5 c 128,-1,4
 567 -25 567 -25 487 -25 c 0,5,6
 356 -25 356 -25 256 39.5 c 128,-1,7
 156 104 156 104 106.5 220 c 128,-1,8
 57 336 57 336 57 494 c 0,9,10
 57 657 57 657 116 783 c 128,-1,11
 175 909 175 909 282 979 c 128,-1,12
 389 1049 389 1049 522 1049 c 0,13,14
 585 1049 585 1049 638.5 1031 c 128,-1,15
 692 1013 692 1013 731.5 982.5 c 128,-1,16
 771 952 771 952 782 922 c 1,17,-1
 786 922 l 1,18,-1
 786 1516 l 1,19,-1
 1212 1516 l 1,20,-1
 1212 0 l 1,21,-1
 786 0 l 1,0,-1
795 543 m 2,22,23
 795 635 795 635 754.5 686 c 128,-1,24
 714 737 714 737 645 737 c 256,25,26
 576 737 576 737 532.5 673.5 c 128,-1,27
 489 610 489 610 489 504 c 0,28,29
 489 287 489 287 639 287 c 0,30,31
 710 287 710 287 752.5 345.5 c 128,-1,32
 795 404 795 404 795 516 c 2,33,-1
 795 543 l 2,22,23
EndSplineSet
EndChar

StartChar: e
Encoding: 101 101 171
Width: 1147
GlyphClass: 2
Flags: W
AnchorPoint: "Anchor-14" 0 2100 basechar 0
AnchorPoint: "Anchor-13" 1101 2100 basechar 0
AnchorPoint: "Anchor-10" 670 0 basechar 0
AnchorPoint: "Anchor-9" 585 -15 basechar 0
AnchorPoint: "Anchor-8" 911 973 basechar 0
AnchorPoint: "Anchor-7" 1019 -420 basechar 0
AnchorPoint: "Anchor-6" 1118 1900 basechar 0
AnchorPoint: "Anchor-5" 595 600 basechar 0
AnchorPoint: "Anchor-4" 950 910 basechar 0
AnchorPoint: "Anchor-2" 600 -25 basechar 0
AnchorPoint: "Anchor-1" 930 1200 basechar 0
AnchorPoint: "Anchor-0" 600 1300 basechar 0
LayerCount: 2
Fore
SplineSet
469 391 m 1,0,1
 480 325 480 325 545 287.5 c 128,-1,2
 610 250 610 250 717 250 c 0,3,4
 866 250 866 250 999 307 c 1,5,-1
 999 37 l 1,6,7
 844 -25 844 -25 623 -25 c 0,8,9
 355 -25 355 -25 206 112 c 128,-1,10
 57 249 57 249 57 489 c 0,11,12
 57 654 57 654 122.5 780 c 128,-1,13
 188 906 188 906 316.5 977.5 c 128,-1,14
 445 1049 445 1049 600 1049 c 0,15,16
 759 1049 759 1049 872 987 c 128,-1,17
 985 925 985 925 1043.5 813 c 128,-1,18
 1102 701 1102 701 1102 551 c 2,19,-1
 1102 391 l 1,20,-1
 469 391 l 1,0,1
725 614 m 1,21,22
 725 791 725 791 598 791 c 0,23,24
 545 791 545 791 509 742.5 c 128,-1,25
 473 694 473 694 467 614 c 1,26,-1
 725 614 l 1,21,22
EndSplineSet
EndChar

StartChar: f
Encoding: 102 102 172
Width: 883
GlyphClass: 2
Flags: W
AnchorPoint: "Anchor-14" 0 2100 basechar 0
AnchorPoint: "Anchor-13" 730 2100 basechar 0
AnchorPoint: "Anchor-12" 320 0 basechar 0
AnchorPoint: "Anchor-11" 320 0 basechar 0
AnchorPoint: "Anchor-10" 240 0 basechar 0
AnchorPoint: "Anchor-8" 759 1538 basechar 0
AnchorPoint: "Anchor-7" 761 -420 basechar 0
AnchorPoint: "Anchor-6" 795 1900 basechar 0
AnchorPoint: "Anchor-5" 429 615 basechar 0
AnchorPoint: "Anchor-4" 763 1520 basechar 0
AnchorPoint: "Anchor-2" 439 -15 basechar 0
AnchorPoint: "Anchor-1" 839 1600 basechar 0
AnchorPoint: "Anchor-0" 569 1650 basechar 0
LayerCount: 2
Fore
SplineSet
891 1206 m 1,0,1
 825 1229 825 1229 768 1229 c 0,2,3
 697 1229 697 1229 663 1192.5 c 128,-1,4
 629 1156 629 1156 629 1094 c 2,5,-1
 629 1024 l 1,6,-1
 866 1024 l 1,7,-1
 866 729 l 1,8,-1
 629 729 l 1,9,-1
 629 0 l 1,10,-1
 203 0 l 1,11,-1
 203 729 l 1,12,-1
 31 729 l 1,13,-1
 31 1024 l 1,14,-1
 203 1024 l 1,15,-1
 203 1118 l 2,16,17
 203 1243 203 1243 261 1338.5 c 128,-1,18
 319 1434 319 1434 429.5 1487 c 128,-1,19
 540 1540 540 1540 698 1540 c 0,20,21
 812 1540 812 1540 891 1518 c 1,22,-1
 891 1206 l 1,0,1
EndSplineSet
EndChar

StartChar: g
Encoding: 103 103 173
Width: 1315
GlyphClass: 2
Flags: W
AnchorPoint: "Anchor-14" 0 2100 basechar 0
AnchorPoint: "Anchor-13" 1247 2100 basechar 0
AnchorPoint: "Anchor-12" 881 -320 basechar 0
AnchorPoint: "Anchor-11" 867 -365 basechar 0
AnchorPoint: "Anchor-10" 763 -400 basechar 0
AnchorPoint: "Anchor-9" 621 -450 basechar 0
AnchorPoint: "Anchor-8" 1078 1028 basechar 0
AnchorPoint: "Anchor-7" 1081 -420 basechar 0
AnchorPoint: "Anchor-6" 1275 1900 basechar 0
AnchorPoint: "Anchor-5" 651 508 basechar 0
AnchorPoint: "Anchor-4" 1073 1023 basechar 0
AnchorPoint: "Anchor-2" 611 -470 basechar 0
AnchorPoint: "Anchor-1" 1121 1200 basechar 0
AnchorPoint: "Anchor-0" 611 1300 basechar 0
LayerCount: 2
Fore
SplineSet
1212 143 m 2,0,1
 1212 -152 1212 -152 1026.5 -316.5 c 128,-1,2
 841 -481 841 -481 485 -481 c 0,3,4
 389 -481 389 -481 299 -466 c 128,-1,5
 209 -451 209 -451 170 -432 c 1,6,-1
 170 -98 l 1,7,8
 234 -138 234 -138 320 -162 c 128,-1,9
 406 -186 406 -186 473 -186 c 0,10,11
 616 -186 616 -186 702 -117 c 128,-1,12
 788 -48 788 -48 788 66 c 2,13,-1
 788 129 l 1,14,-1
 784 129 l 1,15,16
 738 59 738 59 657.5 17 c 128,-1,17
 577 -25 577 -25 485 -25 c 0,18,19
 287 -25 287 -25 172 112.5 c 128,-1,20
 57 250 57 250 57 492 c 0,21,22
 57 658 57 658 117 785 c 128,-1,23
 177 912 177 912 284 980.5 c 128,-1,24
 391 1049 391 1049 520 1049 c 0,25,26
 697 1049 697 1049 784 918 c 1,27,-1
 788 918 l 1,28,-1
 788 1024 l 1,29,-1
 1212 1024 l 1,30,-1
 1212 143 l 2,0,1
795 541 m 2,31,32
 795 631 795 631 754.5 684 c 128,-1,33
 714 737 714 737 647 737 c 0,34,35
 575 737 575 737 532 673 c 128,-1,36
 489 609 489 609 489 502 c 0,37,38
 489 403 489 403 525 345 c 128,-1,39
 561 287 561 287 639 287 c 0,40,41
 712 287 712 287 753.5 346.5 c 128,-1,42
 795 406 795 406 795 506 c 2,43,-1
 795 541 l 2,31,32
EndSplineSet
EndChar

StartChar: h
Encoding: 104 104 174
Width: 1264
GlyphClass: 2
Flags: W
AnchorPoint: "Anchor-14" 0 2100 basechar 0
AnchorPoint: "Anchor-13" 1195 2100 basechar 0
AnchorPoint: "Anchor-12" 936 0 basechar 0
AnchorPoint: "Anchor-11" 936 0 basechar 0
AnchorPoint: "Anchor-10" 860 0 basechar 0
AnchorPoint: "Anchor-8" 1017 938 basechar 0
AnchorPoint: "Anchor-7" 1052 -420 basechar 0
AnchorPoint: "Anchor-6" 1228 1900 basechar 0
AnchorPoint: "Anchor-5" 312 1137 basechar 0
AnchorPoint: "Anchor-4" 1030 821 basechar 0
AnchorPoint: "Anchor-2" 632 -15 basechar 0
AnchorPoint: "Anchor-1" 1006 1400 basechar 0
AnchorPoint: "Anchor-0" 626 1650 basechar 0
LayerCount: 2
Fore
SplineSet
762 0 m 1,0,-1
 762 584 l 2,1,2
 762 737 762 737 645 737 c 0,3,4
 588 737 588 737 558 693.5 c 128,-1,5
 528 650 528 650 528 582 c 2,6,-1
 528 0 l 1,7,-1
 102 0 l 1,8,-1
 102 1516 l 1,9,-1
 528 1516 l 1,10,-1
 528 885 l 1,11,-1
 532 885 l 1,12,13
 587 964 587 964 665.5 1006.5 c 128,-1,14
 744 1049 744 1049 834 1049 c 0,15,16
 1000 1049 1000 1049 1087 942.5 c 128,-1,17
 1174 836 1174 836 1174 629 c 2,18,-1
 1174 0 l 1,19,-1
 762 0 l 1,0,-1
EndSplineSet
EndChar

StartChar: i
Encoding: 105 105 175
Width: 631
GlyphClass: 2
Flags: W
AnchorPoint: "Anchor-14" 0 2100 basechar 0
AnchorPoint: "Anchor-13" 544 2100 basechar 0
AnchorPoint: "Anchor-10" 230 0 basechar 0
AnchorPoint: "Anchor-9" 298 20 basechar 0
AnchorPoint: "Anchor-8" 393 1025 basechar 0
AnchorPoint: "Anchor-7" 406 -420 basechar 0
AnchorPoint: "Anchor-6" 583 1900 basechar 0
AnchorPoint: "Anchor-5" 324 550 basechar 0
AnchorPoint: "Anchor-4" 378 1020 basechar 0
AnchorPoint: "Anchor-2" 316 -15 basechar 0
AnchorPoint: "Anchor-1" 468 1550 basechar 0
AnchorPoint: "Anchor-0" 316 1650 basechar 0
LayerCount: 2
Fore
SplineSet
553 1300 m 0,0,1
 553 1210 553 1210 487.5 1154 c 128,-1,2
 422 1098 422 1098 315 1098 c 0,3,4
 211 1098 211 1098 144.5 1156 c 128,-1,5
 78 1214 78 1214 78 1300 c 0,6,7
 78 1388 78 1388 142.5 1442.5 c 128,-1,8
 207 1497 207 1497 315 1497 c 0,9,10
 422 1497 422 1497 487.5 1442.5 c 128,-1,11
 553 1388 553 1388 553 1300 c 0,0,1
102 0 m 1,12,-1
 102 1024 l 1,13,-1
 528 1024 l 1,14,-1
 528 0 l 1,15,-1
 102 0 l 1,12,-1
EndSplineSet
Substitution2: "SegoeUIBlack-Single Substitution lookup 5 subtable" dotlessi
Substitution2: "SegoeUIBlack-'sups' Superscript in Latin lookup 3 subtable" uni2071
EndChar

StartChar: j
Encoding: 106 106 176
Width: 631
GlyphClass: 2
Flags: W
AnchorPoint: "Anchor-14" 0 2100 basechar 0
AnchorPoint: "Anchor-13" 544 2100 basechar 0
AnchorPoint: "Anchor-12" 179 -375 basechar 0
AnchorPoint: "Anchor-11" 179 -375 basechar 0
AnchorPoint: "Anchor-10" 98 -420 basechar 0
AnchorPoint: "Anchor-8" 384 1025 basechar 0
AnchorPoint: "Anchor-7" 406 -420 basechar 0
AnchorPoint: "Anchor-6" 583 1900 basechar 0
AnchorPoint: "Anchor-5" 324 495 basechar 0
AnchorPoint: "Anchor-4" 379 1016 basechar 0
AnchorPoint: "Anchor-2" 128 -470 basechar 0
AnchorPoint: "Anchor-1" 468 1550 basechar 0
AnchorPoint: "Anchor-0" 316 1650 basechar 0
LayerCount: 2
Fore
SplineSet
553 1300 m 0,0,1
 553 1210 553 1210 487.5 1154 c 128,-1,2
 422 1098 422 1098 315 1098 c 0,3,4
 211 1098 211 1098 144.5 1156 c 128,-1,5
 78 1214 78 1214 78 1300 c 0,6,7
 78 1388 78 1388 142.5 1442.5 c 128,-1,8
 207 1497 207 1497 315 1497 c 0,9,10
 422 1497 422 1497 487.5 1442.5 c 128,-1,11
 553 1388 553 1388 553 1300 c 0,0,1
528 -10 m 2,12,13
 528 -145 528 -145 475 -256.5 c 128,-1,14
 422 -368 422 -368 319 -424.5 c 128,-1,15
 216 -481 216 -481 74 -481 c 0,16,17
 -4 -481 -4 -481 -96 -451 c 1,18,-1
 -96 -139 l 1,19,20
 -40 -170 -40 -170 6 -170 c 0,21,22
 59 -170 59 -170 80.5 -134.5 c 128,-1,23
 102 -99 102 -99 102 -27 c 2,24,-1
 102 1024 l 1,25,-1
 528 1024 l 1,26,-1
 528 -10 l 2,12,13
EndSplineSet
Substitution2: "SegoeUIBlack-Single Substitution lookup 5 subtable" uni0237
EndChar

StartChar: k
Encoding: 107 107 177
Width: 1214
GlyphClass: 2
Flags: W
AnchorPoint: "Anchor-14" 0 2100 basechar 0
AnchorPoint: "Anchor-13" 1088 2100 basechar 0
AnchorPoint: "Anchor-12" 858 0 basechar 0
AnchorPoint: "Anchor-11" 858 0 basechar 0
AnchorPoint: "Anchor-10" 790 0 basechar 0
AnchorPoint: "Anchor-9" 579 -50 basechar 0
AnchorPoint: "Anchor-8" 1018 1035 basechar 0
AnchorPoint: "Anchor-7" 1086 -420 basechar 0
AnchorPoint: "Anchor-6" 1145 1900 basechar 0
AnchorPoint: "Anchor-5" 346 1061 basechar 0
AnchorPoint: "Anchor-4" 968 1026 basechar 0
AnchorPoint: "Anchor-2" 660 -15 basechar 0
AnchorPoint: "Anchor-1" 970 1400 basechar 0
AnchorPoint: "Anchor-0" 660 1650 basechar 0
LayerCount: 2
Fore
SplineSet
760 0 m 1,0,-1
 532 526 l 1,1,-1
 528 526 l 1,2,-1
 528 0 l 1,3,-1
 102 0 l 1,4,-1
 102 1516 l 1,5,-1
 528 1516 l 1,6,-1
 528 543 l 1,7,-1
 532 543 l 1,8,-1
 739 1024 l 1,9,-1
 1219 1024 l 1,10,-1
 942 555 l 1,11,-1
 1235 0 l 1,12,-1
 760 0 l 1,0,-1
EndSplineSet
EndChar

StartChar: l
Encoding: 108 108 178
Width: 631
GlyphClass: 2
Flags: W
AnchorPoint: "Anchor-14" 0 2100 basechar 0
AnchorPoint: "Anchor-13" 544 2100 basechar 0
AnchorPoint: "Anchor-12" 250 0 basechar 0
AnchorPoint: "Anchor-11" 250 0 basechar 0
AnchorPoint: "Anchor-10" 180 0 basechar 0
AnchorPoint: "Anchor-9" 250 0 basechar 0
AnchorPoint: "Anchor-8" 407 1522 basechar 0
AnchorPoint: "Anchor-7" 378 -420 basechar 0
AnchorPoint: "Anchor-6" 583 1900 basechar 0
AnchorPoint: "Anchor-5" 324 761 basechar 0
AnchorPoint: "Anchor-4" 368 1513 basechar 0
AnchorPoint: "Anchor-2" 316 -15 basechar 0
AnchorPoint: "Anchor-1" 428 1600 basechar 0
AnchorPoint: "Anchor-0" 316 1650 basechar 0
LayerCount: 2
Fore
SplineSet
102 0 m 1,0,-1
 102 1516 l 1,1,-1
 528 1516 l 1,2,-1
 528 0 l 1,3,-1
 102 0 l 1,0,-1
EndSplineSet
EndChar

StartChar: m
Encoding: 109 109 179
Width: 1946
GlyphClass: 2
Flags: W
AnchorPoint: "Anchor-14" 0 2100 basechar 0
AnchorPoint: "Anchor-13" 1830 2100 basechar 0
AnchorPoint: "Anchor-12" 1532 0 basechar 0
AnchorPoint: "Anchor-11" 1532 0 basechar 0
AnchorPoint: "Anchor-10" 1450 0 basechar 0
AnchorPoint: "Anchor-8" 1670 888 basechar 0
AnchorPoint: "Anchor-7" 1686 -420 basechar 0
AnchorPoint: "Anchor-6" 1880 1900 basechar 0
AnchorPoint: "Anchor-5" 973 524 basechar 0
AnchorPoint: "Anchor-4" 1666 928 basechar 0
AnchorPoint: "Anchor-2" 982 -15 basechar 0
AnchorPoint: "Anchor-1" 1666 1200 basechar 0
AnchorPoint: "Anchor-0" 982 1300 basechar 0
LayerCount: 2
Fore
SplineSet
1430 0 m 1,0,-1
 1430 590 l 2,1,2
 1430 664 1430 664 1403.5 700.5 c 128,-1,3
 1377 737 1377 737 1317 737 c 0,4,5
 1258 737 1258 737 1225 692.5 c 128,-1,6
 1192 648 1192 648 1192 569 c 2,7,-1
 1192 0 l 1,8,-1
 766 0 l 1,9,-1
 766 580 l 2,10,11
 766 737 766 737 659 737 c 0,12,13
 594 737 594 737 561 691.5 c 128,-1,14
 528 646 528 646 528 561 c 2,15,-1
 528 0 l 1,16,-1
 102 0 l 1,17,-1
 102 1024 l 1,18,-1
 528 1024 l 1,19,-1
 528 862 l 1,20,-1
 532 862 l 1,21,22
 556 905 556 905 608.5 949.5 c 128,-1,23
 661 994 661 994 727 1021.5 c 128,-1,24
 793 1049 793 1049 870 1049 c 0,25,26
 979 1049 979 1049 1053.5 1006 c 128,-1,27
 1128 963 1128 963 1178 870 c 1,28,29
 1232 956 1232 956 1322 1002.5 c 128,-1,30
 1412 1049 1412 1049 1522 1049 c 0,31,32
 1683 1049 1683 1049 1769 944 c 128,-1,33
 1855 839 1855 839 1855 641 c 2,34,-1
 1855 0 l 1,35,-1
 1430 0 l 1,0,-1
EndSplineSet
EndChar

StartChar: n
Encoding: 110 110 180
Width: 1282
GlyphClass: 2
Flags: W
AnchorPoint: "Anchor-14" 0 2100 basechar 0
AnchorPoint: "Anchor-13" 1203 2100 basechar 0
AnchorPoint: "Anchor-12" 936 0 basechar 0
AnchorPoint: "Anchor-11" 974 9 basechar 0
AnchorPoint: "Anchor-10" 860 0 basechar 0
AnchorPoint: "Anchor-9" 623 -50 basechar 0
AnchorPoint: "Anchor-8" 1043 888 basechar 0
AnchorPoint: "Anchor-7" 1060 -420 basechar 0
AnchorPoint: "Anchor-6" 1239 1900 basechar 0
AnchorPoint: "Anchor-5" 654 524 basechar 0
AnchorPoint: "Anchor-4" 1024 928 basechar 0
AnchorPoint: "Anchor-2" 640 -15 basechar 0
AnchorPoint: "Anchor-1" 1044 1200 basechar 0
AnchorPoint: "Anchor-0" 640 1300 basechar 0
LayerCount: 2
Fore
SplineSet
766 0 m 1,0,-1
 766 559 l 2,1,2
 766 654 766 654 737.5 695.5 c 128,-1,3
 709 737 709 737 645 737 c 0,4,5
 590 737 590 737 559 694 c 128,-1,6
 528 651 528 651 528 584 c 2,7,-1
 528 0 l 1,8,-1
 102 0 l 1,9,-1
 102 1024 l 1,10,-1
 528 1024 l 1,11,-1
 528 864 l 1,12,-1
 532 864 l 1,13,14
 583 952 583 952 669 1000.5 c 128,-1,15
 755 1049 755 1049 856 1049 c 0,16,17
 1192 1049 1192 1049 1192 625 c 2,18,-1
 1192 0 l 1,19,-1
 766 0 l 1,0,-1
EndSplineSet
Substitution2: "SegoeUIBlack-'sups' Superscript in Latin lookup 3 subtable" uni207F
EndChar

StartChar: o
Encoding: 111 111 181
Width: 1298
GlyphClass: 2
Flags: W
AnchorPoint: "Anchor-14" 0 2100 basechar 0
AnchorPoint: "Anchor-13" 1238 2100 basechar 0
AnchorPoint: "Anchor-10" 670 0 basechar 0
AnchorPoint: "Anchor-9" 638 -15 basechar 0
AnchorPoint: "Anchor-8" 1028 900 basechar 0
AnchorPoint: "Anchor-7" 1142 -420 basechar 0
AnchorPoint: "Anchor-6" 1261 1900 basechar 0
AnchorPoint: "Anchor-5" 650 536 basechar 0
AnchorPoint: "Anchor-4" 1058 910 basechar 0
AnchorPoint: "Anchor-2" 650 -25 basechar 0
AnchorPoint: "Anchor-1" 1038 1200 basechar 0
AnchorPoint: "Anchor-0" 650 1300 basechar 0
LayerCount: 2
Fore
SplineSet
1241 530 m 0,0,1
 1241 271 1241 271 1084.5 123 c 128,-1,2
 928 -25 928 -25 647 -25 c 0,3,4
 368 -25 368 -25 212.5 119.5 c 128,-1,5
 57 264 57 264 57 518 c 0,6,7
 57 681 57 681 130 801 c 128,-1,8
 203 921 203 921 338 985 c 128,-1,9
 473 1049 473 1049 649 1049 c 0,10,11
 831 1049 831 1049 964.5 982 c 128,-1,12
 1098 915 1098 915 1169.5 796 c 128,-1,13
 1241 677 1241 677 1241 530 c 0,0,1
809 528 m 0,14,15
 809 737 809 737 649 737 c 256,16,17
 489 737 489 737 489 518 c 0,18,19
 489 287 489 287 651 287 c 0,20,21
 809 287 809 287 809 528 c 0,14,15
EndSplineSet
EndChar

StartChar: p
Encoding: 112 112 182
Width: 1315
GlyphClass: 2
Flags: W
AnchorPoint: "Anchor-14" 0 2100 basechar 0
AnchorPoint: "Anchor-13" 1245 2100 basechar 0
AnchorPoint: "Anchor-12" 901 63 basechar 0
AnchorPoint: "Anchor-11" 901 63 basechar 0
AnchorPoint: "Anchor-10" 211 -480 basechar 0
AnchorPoint: "Anchor-8" 1085 903 basechar 0
AnchorPoint: "Anchor-7" 1149 -420 basechar 0
AnchorPoint: "Anchor-6" 1275 1900 basechar 0
AnchorPoint: "Anchor-5" 707 495 basechar 0
AnchorPoint: "Anchor-4" 1061 943 basechar 0
AnchorPoint: "Anchor-2" 631 -470 basechar 0
AnchorPoint: "Anchor-1" 1091 1200 basechar 0
AnchorPoint: "Anchor-0" 641 1300 basechar 0
LayerCount: 2
Fore
SplineSet
1257 543 m 0,0,1
 1257 375 1257 375 1200 246 c 128,-1,2
 1143 117 1143 117 1039 46 c 128,-1,3
 935 -25 935 -25 805 -25 c 0,4,5
 625 -25 625 -25 532 106 c 1,6,-1
 528 106 l 1,7,-1
 528 -471 l 1,8,-1
 102 -471 l 1,9,-1
 102 1024 l 1,10,-1
 528 1024 l 1,11,-1
 528 885 l 1,12,-1
 532 885 l 1,13,14
 583 962 583 962 664 1005.5 c 128,-1,15
 745 1049 745 1049 848 1049 c 0,16,17
 1046 1049 1046 1049 1151.5 917 c 128,-1,18
 1257 785 1257 785 1257 543 c 0,0,1
825 530 m 0,19,20
 825 627 825 627 787.5 682 c 128,-1,21
 750 737 750 737 672 737 c 0,22,23
 604 737 604 737 562 679 c 128,-1,24
 520 621 520 621 520 520 c 2,25,-1
 520 500 l 2,26,27
 520 403 520 403 556 345 c 128,-1,28
 592 287 592 287 664 287 c 0,29,30
 741 287 741 287 783 350.5 c 128,-1,31
 825 414 825 414 825 530 c 0,19,20
EndSplineSet
EndChar

StartChar: q
Encoding: 113 113 183
Width: 1315
GlyphClass: 2
Flags: W
AnchorPoint: "Anchor-14" 0 2100 basechar 0
AnchorPoint: "Anchor-13" 1247 2100 basechar 0
AnchorPoint: "Anchor-12" 988 -446 basechar 0
AnchorPoint: "Anchor-11" 988 -446 basechar 0
AnchorPoint: "Anchor-10" 921 -480 basechar 0
AnchorPoint: "Anchor-8" 1069 1027 basechar 0
AnchorPoint: "Anchor-7" 1081 -420 basechar 0
AnchorPoint: "Anchor-6" 1275 1900 basechar 0
AnchorPoint: "Anchor-5" 646 531 basechar 0
AnchorPoint: "Anchor-4" 1073 1027 basechar 0
AnchorPoint: "Anchor-2" 631 -470 basechar 0
AnchorPoint: "Anchor-1" 1131 1200 basechar 0
AnchorPoint: "Anchor-0" 631 1300 basechar 0
LayerCount: 2
Fore
SplineSet
786 -471 m 1,0,-1
 786 117 l 1,1,-1
 782 117 l 1,2,3
 734 53 734 53 652.5 14 c 128,-1,4
 571 -25 571 -25 485 -25 c 0,5,6
 358 -25 358 -25 261.5 35 c 128,-1,7
 165 95 165 95 111 209.5 c 128,-1,8
 57 324 57 324 57 492 c 0,9,10
 57 658 57 658 117 785 c 128,-1,11
 177 912 177 912 284 980.5 c 128,-1,12
 391 1049 391 1049 520 1049 c 0,13,14
 695 1049 695 1049 782 918 c 1,15,-1
 786 918 l 1,16,-1
 786 1024 l 1,17,-1
 1212 1024 l 1,18,-1
 1212 -471 l 1,19,-1
 786 -471 l 1,0,-1
795 539 m 2,20,21
 795 632 795 632 754.5 684.5 c 128,-1,22
 714 737 714 737 647 737 c 0,23,24
 577 737 577 737 533 673 c 128,-1,25
 489 609 489 609 489 502 c 0,26,27
 489 403 489 403 526 345 c 128,-1,28
 563 287 563 287 637 287 c 256,29,30
 711 287 711 287 753 345 c 128,-1,31
 795 403 795 403 795 506 c 2,32,-1
 795 539 l 2,20,21
EndSplineSet
EndChar

StartChar: r
Encoding: 114 114 184
Width: 893
GlyphClass: 2
Flags: W
AnchorPoint: "Anchor-14" 0 2100 basechar 0
AnchorPoint: "Anchor-13" 780 2100 basechar 0
AnchorPoint: "Anchor-12" 248 0 basechar 0
AnchorPoint: "Anchor-11" 248 0 basechar 0
AnchorPoint: "Anchor-10" 180 0 basechar 0
AnchorPoint: "Anchor-9" 246 0 basechar 0
AnchorPoint: "Anchor-8" 773 1026 basechar 0
AnchorPoint: "Anchor-7" 768 -420 basechar 0
AnchorPoint: "Anchor-6" 826 1900 basechar 0
AnchorPoint: "Anchor-5" 344 485 basechar 0
AnchorPoint: "Anchor-4" 759 1030 basechar 0
AnchorPoint: "Anchor-2" 368 -15 basechar 0
AnchorPoint: "Anchor-1" 808 1200 basechar 0
AnchorPoint: "Anchor-0" 528 1300 basechar 0
LayerCount: 2
Fore
SplineSet
872 659 m 1,0,1
 848 670 848 670 807 679 c 128,-1,2
 766 688 766 688 739 688 c 0,3,4
 528 688 528 688 528 444 c 2,5,-1
 528 0 l 1,6,-1
 102 0 l 1,7,-1
 102 1024 l 1,8,-1
 528 1024 l 1,9,-1
 528 844 l 1,10,-1
 532 844 l 1,11,12
 571 941 571 941 643 991.5 c 128,-1,13
 715 1042 715 1042 811 1042 c 0,14,15
 846 1042 846 1042 872 1030 c 1,16,-1
 872 659 l 1,0,1
EndSplineSet
EndChar

StartChar: s
Encoding: 115 115 185
Width: 989
GlyphClass: 2
Flags: W
AnchorPoint: "Anchor-14" 0 2100 basechar 0
AnchorPoint: "Anchor-13" 922 2100 basechar 0
AnchorPoint: "Anchor-12" 661 80 basechar 0
AnchorPoint: "Anchor-11" 661 80 basechar 0
AnchorPoint: "Anchor-10" 460 0 basechar 0
AnchorPoint: "Anchor-9" 477 -15 basechar 0
AnchorPoint: "Anchor-8" 789 1011 basechar 0
AnchorPoint: "Anchor-7" 836 -420 basechar 0
AnchorPoint: "Anchor-6" 936 1900 basechar 0
AnchorPoint: "Anchor-5" 487 536 basechar 0
AnchorPoint: "Anchor-4" 793 1020 basechar 0
AnchorPoint: "Anchor-2" 483 -25 basechar 0
AnchorPoint: "Anchor-1" 823 1200 basechar 0
AnchorPoint: "Anchor-0" 483 1300 basechar 0
LayerCount: 2
Fore
SplineSet
934 340 m 0,0,1
 934 166 934 166 801.5 70.5 c 128,-1,2
 669 -25 669 -25 432 -25 c 0,3,4
 363 -25 363 -25 261.5 -11 c 128,-1,5
 160 3 160 3 96 23 c 1,6,-1
 96 322 l 1,7,8
 285 238 285 238 412 238 c 0,9,10
 537 238 537 238 537 303 c 0,11,12
 537 330 537 330 508 347.5 c 128,-1,13
 479 365 479 365 356 406 c 0,14,15
 220 449 220 449 158 520 c 128,-1,16
 96 591 96 591 96 705 c 0,17,18
 96 864 96 864 222.5 956.5 c 128,-1,19
 349 1049 349 1049 578 1049 c 0,20,21
 712 1049 712 1049 862 1010 c 1,22,-1
 862 723 l 1,23,24
 799 750 799 750 724 768 c 128,-1,25
 649 786 649 786 598 786 c 0,26,27
 556 786 556 786 531 772 c 128,-1,28
 506 758 506 758 506 733 c 0,29,30
 506 704 506 704 533 686 c 128,-1,31
 560 668 560 668 641 643 c 0,32,33
 798 597 798 597 866 525 c 128,-1,34
 934 453 934 453 934 340 c 0,0,1
EndSplineSet
EndChar

StartChar: t
Encoding: 116 116 186
Width: 854
GlyphClass: 2
Flags: W
AnchorPoint: "Anchor-14" 0 2100 basechar 0
AnchorPoint: "Anchor-13" 751 2100 basechar 0
AnchorPoint: "Anchor-12" 543 0 basechar 0
AnchorPoint: "Anchor-11" 543 0 basechar 0
AnchorPoint: "Anchor-10" 497 -15 basechar 0
AnchorPoint: "Anchor-9" 447 0 basechar 0
AnchorPoint: "Anchor-8" 681 1027 basechar 0
AnchorPoint: "Anchor-7" 698 -420 basechar 0
AnchorPoint: "Anchor-6" 797 1900 basechar 0
AnchorPoint: "Anchor-5" 387 539 basechar 0
AnchorPoint: "Anchor-4" 685 1022 basechar 0
AnchorPoint: "Anchor-2" 457 -25 basechar 0
AnchorPoint: "Anchor-1" 537 1400 basechar 0
AnchorPoint: "Anchor-0" 387 1500 basechar 0
LayerCount: 2
Fore
SplineSet
823 14 m 1,0,1
 794 0 794 0 728 -12.5 c 128,-1,2
 662 -25 662 -25 569 -25 c 0,3,4
 391 -25 391 -25 290.5 73 c 128,-1,5
 190 171 190 171 190 352 c 2,6,-1
 190 729 l 1,7,-1
 29 729 l 1,8,-1
 29 1024 l 1,9,-1
 190 1024 l 1,10,-1
 190 1225 l 1,11,-1
 610 1341 l 1,12,-1
 610 1024 l 1,13,-1
 823 1024 l 1,14,-1
 823 729 l 1,15,-1
 610 729 l 1,16,-1
 610 422 l 2,17,18
 610 287 610 287 717 287 c 0,19,20
 767 287 767 287 823 309 c 1,21,-1
 823 14 l 1,0,1
EndSplineSet
EndChar

StartChar: u
Encoding: 117 117 187
Width: 1282
GlyphClass: 2
Flags: W
AnchorPoint: "Anchor-14" 0 2100 basechar 0
AnchorPoint: "Anchor-13" 1203 2100 basechar 0
AnchorPoint: "Anchor-12" 909 0 basechar 0
AnchorPoint: "Anchor-11" 909 0 basechar 0
AnchorPoint: "Anchor-10" 830 0 basechar 0
AnchorPoint: "Anchor-9" 573 -15 basechar 0
AnchorPoint: "Anchor-8" 1024 1020 basechar 0
AnchorPoint: "Anchor-7" 1038 -420 basechar 0
AnchorPoint: "Anchor-6" 1239 1900 basechar 0
AnchorPoint: "Anchor-5" 639 524 basechar 0
AnchorPoint: "Anchor-4" 1034 1020 basechar 0
AnchorPoint: "Anchor-2" 594 -25 basechar 0
AnchorPoint: "Anchor-1" 1074 1200 basechar 0
AnchorPoint: "Anchor-0" 634 1300 basechar 0
LayerCount: 2
Fore
SplineSet
754 0 m 1,0,-1
 754 158 l 1,1,-1
 750 158 l 1,2,3
 697 85 697 85 654.5 51 c 128,-1,4
 612 17 612 17 558.5 -4 c 128,-1,5
 505 -25 505 -25 434 -25 c 0,6,7
 266 -25 266 -25 178 84 c 128,-1,8
 90 193 90 193 90 406 c 2,9,-1
 90 1024 l 1,10,-1
 516 1024 l 1,11,-1
 516 438 l 2,12,13
 516 287 516 287 629 287 c 0,14,15
 691 287 691 287 722.5 328 c 128,-1,16
 754 369 754 369 754 444 c 2,17,-1
 754 1024 l 1,18,-1
 1180 1024 l 1,19,-1
 1180 0 l 1,20,-1
 754 0 l 1,0,-1
EndSplineSet
EndChar

StartChar: v
Encoding: 118 118 188
Width: 1204
GlyphClass: 2
Flags: W
AnchorPoint: "Anchor-14" 0 2100 basechar 0
AnchorPoint: "Anchor-13" 1064 2100 basechar 0
AnchorPoint: "Anchor-12" 490 0 basechar 0
AnchorPoint: "Anchor-11" 490 0 basechar 0
AnchorPoint: "Anchor-10" 420 0 basechar 0
AnchorPoint: "Anchor-8" 1030 1024 basechar 0
AnchorPoint: "Anchor-7" 1054 -420 basechar 0
AnchorPoint: "Anchor-6" 1122 1900 basechar 0
AnchorPoint: "Anchor-5" 603 620 basechar 0
AnchorPoint: "Anchor-4" 1044 1024 basechar 0
AnchorPoint: "Anchor-2" 623 -15 basechar 0
AnchorPoint: "Anchor-1" 1123 1200 basechar 0
AnchorPoint: "Anchor-0" 623 1300 basechar 0
LayerCount: 2
Fore
SplineSet
848 0 m 1,0,-1
 342 0 l 1,1,-1
 0 1024 l 1,2,-1
 444 1024 l 1,3,-1
 569 465 l 2,4,5
 599 330 599 330 602 262 c 1,6,-1
 608 262 l 1,7,8
 610 282 610 282 613.5 303 c 128,-1,9
 617 324 617 324 762 1024 c 1,10,-1
 1204 1024 l 1,11,-1
 848 0 l 1,0,-1
EndSplineSet
EndChar

StartChar: w
Encoding: 119 119 189
Width: 1731
GlyphClass: 2
Flags: W
AnchorPoint: "Anchor-14" 0 2100 basechar 0
AnchorPoint: "Anchor-13" 1571 2100 basechar 0
AnchorPoint: "Anchor-12" 1063 0 basechar 0
AnchorPoint: "Anchor-11" 1154 9 basechar 0
AnchorPoint: "Anchor-10" 990 0 basechar 0
AnchorPoint: "Anchor-8" 1537 1024 basechar 0
AnchorPoint: "Anchor-7" 1547 -420 basechar 0
AnchorPoint: "Anchor-6" 1640 1900 basechar 0
AnchorPoint: "Anchor-5" 866 512 basechar 0
AnchorPoint: "Anchor-4" 1531 1024 basechar 0
AnchorPoint: "Anchor-2" 866 -15 basechar 0
AnchorPoint: "Anchor-1" 1611 1200 basechar 0
AnchorPoint: "Anchor-0" 866 1300 basechar 0
LayerCount: 2
Fore
SplineSet
1430 0 m 1,0,-1
 987 0 l 1,1,-1
 885 498 l 2,2,3
 866 588 866 588 866 657 c 1,4,-1
 860 657 l 1,5,6
 849 551 849 551 838 504 c 2,7,-1
 727 0 l 1,8,-1
 285 0 l 1,9,-1
 14 1024 l 1,10,-1
 442 1024 l 1,11,-1
 530 428 l 1,12,-1
 545 295 l 1,13,-1
 551 295 l 1,14,15
 564 412 564 412 569 432 c 2,16,-1
 700 1024 l 1,17,-1
 1106 1024 l 1,18,-1
 1219 432 l 1,19,-1
 1228 361 l 1,20,-1
 1233 297 l 1,21,-1
 1239 297 l 1,22,-1
 1242 326 l 1,23,-1
 1333 1024 l 1,24,-1
 1716 1024 l 1,25,-1
 1430 0 l 1,0,-1
EndSplineSet
EndChar

StartChar: x
Encoding: 120 120 190
Width: 1272
GlyphClass: 2
Flags: W
AnchorPoint: "Anchor-14" 0 2100 basechar 0
AnchorPoint: "Anchor-13" 1063 2100 basechar 0
AnchorPoint: "Anchor-10" 720 0 basechar 0
AnchorPoint: "Anchor-8" 1002 1024 basechar 0
AnchorPoint: "Anchor-7" 1037 -420 basechar 0
AnchorPoint: "Anchor-6" 1149 1900 basechar 0
AnchorPoint: "Anchor-5" 636 512 basechar 0
AnchorPoint: "Anchor-4" 993 1024 basechar 0
AnchorPoint: "Anchor-2" 636 -15 basechar 0
AnchorPoint: "Anchor-1" 1093 1200 basechar 0
AnchorPoint: "Anchor-0" 636 1300 basechar 0
LayerCount: 2
Fore
SplineSet
944 545 m 1,0,-1
 1274 0 l 1,1,-1
 784 0 l 1,2,-1
 674 233 l 2,3,4
 655 272 655 272 631 340 c 1,5,-1
 627 340 l 1,6,7
 606 272 606 272 600 256.5 c 128,-1,8
 594 241 594 241 483 0 c 1,9,-1
 -4 0 l 1,10,-1
 336 516 l 1,11,-1
 16 1024 l 1,12,-1
 508 1024 l 1,13,-1
 618 786 l 2,14,15
 640 745 640 745 662 674 c 1,16,-1
 666 674 l 1,17,18
 695 761 695 761 707 788 c 2,19,-1
 811 1024 l 1,20,-1
 1276 1024 l 1,21,-1
 944 545 l 1,0,-1
EndSplineSet
EndChar

StartChar: y
Encoding: 121 121 191
Width: 1176
GlyphClass: 2
Flags: W
AnchorPoint: "Anchor-14" 0 2100 basechar 0
AnchorPoint: "Anchor-13" 1059 2100 basechar 0
AnchorPoint: "Anchor-10" 288 -440 basechar 0
AnchorPoint: "Anchor-8" 1016 1036 basechar 0
AnchorPoint: "Anchor-7" 1049 -420 basechar 0
AnchorPoint: "Anchor-6" 1109 1900 basechar 0
AnchorPoint: "Anchor-5" 598 602 basechar 0
AnchorPoint: "Anchor-4" 1028 1020 basechar 0
AnchorPoint: "Anchor-2" 573 -470 basechar 0
AnchorPoint: "Anchor-1" 1118 1200 basechar 0
AnchorPoint: "Anchor-0" 588 1300 basechar 0
LayerCount: 2
Fore
SplineSet
301 -481 m 0,0,1
 241 -481 241 -481 172 -470.5 c 128,-1,2
 103 -460 103 -460 49 -440 c 1,3,-1
 49 -119 l 1,4,5
 74 -138 74 -138 123.5 -154 c 128,-1,6
 173 -170 173 -170 217 -170 c 0,7,8
 336 -170 336 -170 375 -76 c 2,9,-1
 408 4 l 1,10,-1
 -20 1024 l 1,11,-1
 451 1024 l 1,12,-1
 575 530 l 2,13,14
 611 392 611 392 614 344 c 1,15,-1
 618 344 l 1,16,17
 621 366 621 366 626.5 393 c 128,-1,18
 632 420 632 420 782 1024 c 1,19,-1
 1196 1024 l 1,20,-1
 819 -29 l 2,21,22
 734 -271 734 -271 608.5 -376 c 128,-1,23
 483 -481 483 -481 301 -481 c 0,0,1
EndSplineSet
EndChar

StartChar: z
Encoding: 122 122 192
Width: 1042
GlyphClass: 2
Flags: W
AnchorPoint: "Anchor-14" 0 2100 basechar 0
AnchorPoint: "Anchor-13" 972 2100 basechar 0
AnchorPoint: "Anchor-12" 775 0 basechar 0
AnchorPoint: "Anchor-11" 821 -9 basechar 0
AnchorPoint: "Anchor-10" 670 0 basechar 0
AnchorPoint: "Anchor-8" 866 1024 basechar 0
AnchorPoint: "Anchor-7" 926 -420 basechar 0
AnchorPoint: "Anchor-6" 997 1900 basechar 0
AnchorPoint: "Anchor-5" 509 512 basechar 0
AnchorPoint: "Anchor-4" 896 1024 basechar 0
AnchorPoint: "Anchor-2" 526 -15 basechar 0
AnchorPoint: "Anchor-1" 966 1200 basechar 0
AnchorPoint: "Anchor-0" 526 1300 basechar 0
LayerCount: 2
Fore
SplineSet
584 295 m 1,0,-1
 1006 295 l 1,1,-1
 1006 0 l 1,2,-1
 25 0 l 1,3,-1
 25 197 l 1,4,-1
 485 729 l 1,5,-1
 68 729 l 1,6,-1
 68 1024 l 1,7,-1
 997 1024 l 1,8,-1
 997 782 l 1,9,-1
 584 295 l 1,0,-1
EndSplineSet
EndChar

StartChar: braceleft
Encoding: 123 123 193
Width: 862
GlyphClass: 2
Flags: W
LayerCount: 2
Fore
SplineSet
762 -326 m 1,0,1
 577 -326 577 -326 470 -287.5 c 128,-1,2
 363 -249 363 -249 315.5 -167.5 c 128,-1,3
 268 -86 268 -86 268 82 c 2,4,-1
 268 262 l 2,5,6
 268 442 268 442 119 442 c 1,7,-1
 119 666 l 1,8,9
 268 666 268 666 268 848 c 2,10,-1
 268 1016 l 2,11,12
 268 1192 268 1192 314.5 1274.5 c 128,-1,13
 361 1357 361 1357 467.5 1395.5 c 128,-1,14
 574 1434 574 1434 762 1434 c 1,15,-1
 762 1210 l 1,16,17
 680 1210 680 1210 641 1173 c 128,-1,18
 602 1136 602 1136 602 1047 c 2,19,-1
 602 905 l 2,20,21
 602 769 602 769 565 683 c 128,-1,22
 528 597 528 597 444 557 c 1,23,-1
 444 553 l 1,24,25
 527 513 527 513 564.5 424 c 128,-1,26
 602 335 602 335 602 190 c 2,27,-1
 602 63 l 2,28,29
 602 -27 602 -27 639 -64.5 c 128,-1,30
 676 -102 676 -102 762 -102 c 1,31,-1
 762 -326 l 1,0,1
EndSplineSet
EndChar

StartChar: bar
Encoding: 124 124 194
Width: 815
GlyphClass: 2
Flags: W
LayerCount: 2
Fore
SplineSet
244 -481 m 1,0,-1
 244 1567 l 1,1,-1
 571 1567 l 1,2,-1
 571 -481 l 1,3,-1
 244 -481 l 1,0,-1
EndSplineSet
EndChar

StartChar: braceright
Encoding: 125 125 195
Width: 862
GlyphClass: 2
Flags: W
LayerCount: 2
Fore
SplineSet
743 442 m 1,0,1
 594 442 594 442 594 260 c 2,2,-1
 594 92 l 2,3,4
 594 -84 594 -84 547.5 -166.5 c 128,-1,5
 501 -249 501 -249 394.5 -287.5 c 128,-1,6
 288 -326 288 -326 100 -326 c 1,7,-1
 100 -102 l 1,8,9
 183 -102 183 -102 221.5 -65 c 128,-1,10
 260 -28 260 -28 260 61 c 2,11,-1
 260 203 l 2,12,13
 260 338 260 338 296.5 424 c 128,-1,14
 333 510 333 510 418 551 c 1,15,-1
 418 555 l 1,16,17
 335 596 335 596 297.5 686 c 128,-1,18
 260 776 260 776 260 918 c 2,19,-1
 260 1044 l 2,20,21
 260 1133 260 1133 224 1171.5 c 128,-1,22
 188 1210 188 1210 100 1210 c 1,23,-1
 100 1434 l 1,24,25
 286 1434 286 1434 392.5 1395.5 c 128,-1,26
 499 1357 499 1357 546.5 1275.5 c 128,-1,27
 594 1194 594 1194 594 1026 c 2,28,-1
 594 846 l 2,29,30
 594 666 594 666 743 666 c 1,31,-1
 743 442 l 1,0,1
EndSplineSet
EndChar

StartChar: asciitilde
Encoding: 126 126 196
Width: 1464
GlyphClass: 2
Flags: W
LayerCount: 2
Fore
SplineSet
1270 776 m 1,0,1
 1264 601 1264 601 1177 495 c 128,-1,2
 1090 389 1090 389 946 389 c 0,3,4
 866 389 866 389 807 409.5 c 128,-1,5
 748 430 748 430 673 474 c 0,6,7
 597 518 597 518 557 518 c 0,8,9
 509 518 509 518 478.5 482 c 128,-1,10
 448 446 448 446 442 377 c 1,11,-1
 195 377 l 1,12,13
 200 558 200 558 288 662 c 128,-1,14
 376 766 376 766 526 766 c 0,15,16
 595 766 595 766 647.5 749 c 128,-1,17
 700 732 700 732 750 705 c 0,18,19
 797 679 797 679 836 658 c 128,-1,20
 875 637 875 637 913 637 c 0,21,22
 961 637 961 637 990 676.5 c 128,-1,23
 1019 716 1019 716 1022 776 c 1,24,-1
 1270 776 l 1,0,1
EndSplineSet
EndChar

StartChar: Aring
Encoding: 197 197 198
Width: 1536
GlyphClass: 2
Flags: W
AnchorPoint: "Anchor-14" 0 2100 basechar 0
AnchorPoint: "Anchor-13" 1402 2100 basechar 0
AnchorPoint: "Anchor-10" 1125 0 basechar 0
AnchorPoint: "Anchor-7" 1379 -420 basechar 0
AnchorPoint: "Anchor-6" 1456 2100 basechar 0
AnchorPoint: "Anchor-2" 768 -15 basechar 0
AnchorPoint: "Anchor-1" 1156 1660 basechar 0
AnchorPoint: "Anchor-0" 770 1920 basechar 0
LayerCount: 2
Fore
SplineSet
1040 0 m 1,0,-1
 977 264 l 1,1,-1
 549 264 l 1,2,-1
 481 0 l 1,3,-1
 14 0 l 1,4,-1
 508 1434 l 1,5,6
 481 1488 481 1488 481 1548 c 0,7,8
 481 1664 481 1664 562.5 1734 c 128,-1,9
 644 1804 644 1804 772 1804 c 0,10,11
 908 1804 908 1804 988.5 1733 c 128,-1,12
 1069 1662 1069 1662 1069 1548 c 0,13,14
 1069 1481 1069 1481 1044 1434 c 1,15,-1
 1509 0 l 1,16,-1
 1040 0 l 1,0,-1
879 1548 m 0,17,18
 879 1583 879 1583 852.5 1609.5 c 128,-1,19
 826 1636 826 1636 772 1636 c 0,20,21
 723 1636 723 1636 698.5 1610.5 c 128,-1,22
 674 1585 674 1585 674 1548 c 256,23,24
 674 1511 674 1511 701 1485.5 c 128,-1,25
 728 1460 728 1460 772 1460 c 0,26,27
 820 1460 820 1460 849.5 1485 c 128,-1,28
 879 1510 879 1510 879 1548 c 0,17,18
768 1106 m 1,29,-1
 758 1106 l 1,30,31
 749 1049 749 1049 745 1032 c 128,-1,32
 741 1015 741 1015 631 602 c 1,33,-1
 889 602 l 1,34,-1
 795 961 l 2,35,36
 781 1016 781 1016 776 1051 c 2,37,-1
 768 1106 l 1,29,-1
EndSplineSet
EndChar

StartChar: Ccedilla
Encoding: 199 199 199
Width: 1290
GlyphClass: 2
Flags: W
AnchorPoint: "Anchor-14" 0 2100 basechar 0
AnchorPoint: "Anchor-13" 1277 2100 basechar 0
AnchorPoint: "Anchor-10" 769 -400 basechar 0
AnchorPoint: "Anchor-7" 1173 -420 basechar 0
AnchorPoint: "Anchor-6" 1281 1900 basechar 0
AnchorPoint: "Anchor-2" 759 -440 basechar 0
AnchorPoint: "Anchor-1" 1229 1500 basechar 0
AnchorPoint: "Anchor-0" 779 1600 basechar 0
LayerCount: 2
Fore
SplineSet
1208 39 m 1,0,1
 1076 -11 1076 -11 862 -23 c 1,2,-1
 862 -66 l 1,3,4
 1057 -80 1057 -80 1057 -244 c 0,5,6
 1057 -355 1057 -355 966.5 -414 c 128,-1,7
 876 -473 876 -473 709 -473 c 0,8,9
 656 -473 656 -473 594 -467 c 1,10,-1
 594 -295 l 1,11,12
 631 -303 631 -303 676 -303 c 0,13,14
 733 -303 733 -303 762 -286.5 c 128,-1,15
 791 -270 791 -270 791 -244 c 0,16,17
 791 -213 791 -213 767.5 -198.5 c 128,-1,18
 744 -184 744 -184 688 -184 c 2,19,-1
 670 -184 l 1,20,-1
 649 -186 l 1,21,-1
 649 -14 l 1,22,23
 465 11 465 11 333 104 c 128,-1,24
 201 197 201 197 131 345.5 c 128,-1,25
 61 494 61 494 61 684 c 0,26,27
 61 911 61 911 159 1088 c 128,-1,28
 257 1265 257 1265 436 1361.5 c 128,-1,29
 615 1458 615 1458 848 1458 c 0,30,31
 1034 1458 1034 1458 1208 1413 c 1,32,-1
 1208 1014 l 1,33,34
 1148 1050 1148 1050 1065 1070 c 128,-1,35
 982 1090 982 1090 897 1090 c 0,36,37
 721 1090 721 1090 619.5 989 c 128,-1,38
 518 888 518 888 518 715 c 0,39,40
 518 543 518 543 619.5 443.5 c 128,-1,41
 721 344 721 344 891 344 c 0,42,43
 1048 344 1048 344 1208 424 c 1,44,-1
 1208 39 l 1,0,1
EndSplineSet
EndChar

StartChar: ccedilla
Encoding: 231 231 210
Width: 1014
GlyphClass: 2
Flags: W
AnchorPoint: "Anchor-14" 0 2100 basechar 0
AnchorPoint: "Anchor-13" 972 2100 basechar 0
AnchorPoint: "Anchor-10" 606 -400 basechar 0
AnchorPoint: "Anchor-7" 892 -420 basechar 0
AnchorPoint: "Anchor-6" 989 1900 basechar 0
AnchorPoint: "Anchor-2" 596 -440 basechar 0
AnchorPoint: "Anchor-1" 946 1200 basechar 0
AnchorPoint: "Anchor-0" 576 1300 basechar 0
LayerCount: 2
Fore
SplineSet
946 29 m 1,0,1
 862 -21 862 -21 630 -25 c 1,2,-1
 630 -66 l 1,3,4
 825 -80 825 -80 825 -244 c 0,5,6
 825 -355 825 -355 734.5 -414 c 128,-1,7
 644 -473 644 -473 477 -473 c 0,8,9
 423 -473 423 -473 362 -467 c 1,10,-1
 362 -295 l 1,11,12
 399 -303 399 -303 444 -303 c 0,13,14
 501 -303 501 -303 530 -286.5 c 128,-1,15
 559 -270 559 -270 559 -244 c 0,16,17
 559 -213 559 -213 536 -198.5 c 128,-1,18
 513 -184 513 -184 456 -184 c 2,19,-1
 438 -184 l 1,20,-1
 417 -186 l 1,21,-1
 417 3 l 1,22,23
 248 55 248 55 152.5 185 c 128,-1,24
 57 315 57 315 57 489 c 0,25,26
 57 665 57 665 131.5 790.5 c 128,-1,27
 206 916 206 916 344 982.5 c 128,-1,28
 482 1049 482 1049 664 1049 c 0,29,30
 764 1049 764 1049 843.5 1036 c 128,-1,31
 923 1023 923 1023 946 1006 c 1,32,-1
 946 674 l 1,33,34
 914 699 914 699 854 718 c 128,-1,35
 794 737 794 737 743 737 c 0,36,37
 617 737 617 737 553 678 c 128,-1,38
 489 619 489 619 489 510 c 0,39,40
 489 404 489 404 552 345.5 c 128,-1,41
 615 287 615 287 727 287 c 0,42,43
 846 287 846 287 946 344 c 1,44,-1
 946 29 l 1,0,1
EndSplineSet
EndChar

StartChar: dagger
Encoding: 8224 8224 229
Width: 885
GlyphClass: 2
Flags: W
LayerCount: 2
Fore
SplineSet
575 907 m 1,0,-1
 575 242 l 1,1,-1
 309 242 l 1,2,-1
 309 907 l 1,3,-1
 61 907 l 1,4,-1
 61 1135 l 1,5,-1
 309 1135 l 1,6,-1
 309 1434 l 1,7,-1
 575 1434 l 1,8,-1
 575 1135 l 1,9,-1
 823 1135 l 1,10,-1
 823 907 l 1,11,-1
 575 907 l 1,0,-1
EndSplineSet
EndChar

StartChar: degree
Encoding: 176 176 230
Width: 791
GlyphClass: 2
Flags: W
LayerCount: 2
Fore
SplineSet
700 1184 m 0,0,1
 700 1110 700 1110 662.5 1046 c 128,-1,2
 625 982 625 982 558.5 944.5 c 128,-1,3
 492 907 492 907 418 907 c 0,4,5
 300 907 300 907 217.5 987.5 c 128,-1,6
 135 1068 135 1068 135 1184 c 0,7,8
 135 1297 135 1297 216.5 1377.5 c 128,-1,9
 298 1458 298 1458 418 1458 c 0,10,11
 535 1458 535 1458 617.5 1378 c 128,-1,12
 700 1298 700 1298 700 1184 c 0,0,1
522 1184 m 256,13,14
 522 1230 522 1230 492 1261 c 128,-1,15
 462 1292 462 1292 418 1292 c 0,16,17
 371 1292 371 1292 340 1261 c 128,-1,18
 309 1230 309 1230 309 1184 c 256,19,20
 309 1138 309 1138 341 1105.5 c 128,-1,21
 373 1073 373 1073 418 1073 c 0,22,23
 461 1073 461 1073 491.5 1105.5 c 128,-1,24
 522 1138 522 1138 522 1184 c 256,13,14
EndSplineSet
EndChar

StartChar: cent
Encoding: 162 162 231
Width: 1227
GlyphClass: 2
Flags: W
LayerCount: 2
Fore
SplineSet
1032 205 m 1,0,1
 984 178 984 178 885 164 c 1,2,-1
 885 -31 l 1,3,-1
 647 -31 l 1,4,-1
 647 154 l 1,5,6
 508 162 508 162 389 233.5 c 128,-1,7
 270 305 270 305 211 416 c 128,-1,8
 152 527 152 527 152 668 c 0,9,10
 152 819 152 819 209 935.5 c 128,-1,11
 266 1052 266 1052 381.5 1127.5 c 128,-1,12
 497 1203 497 1203 647 1219 c 1,13,-1
 647 1425 l 1,14,-1
 885 1425 l 1,15,-1
 885 1219 l 1,16,17
 988 1209 988 1209 1032 1182 c 1,18,-1
 1032 848 l 1,19,20
 1007 871 1007 871 933.5 892 c 128,-1,21
 860 913 860 913 807 913 c 0,22,23
 676 913 676 913 605.5 855 c 128,-1,24
 535 797 535 797 535 688 c 0,25,26
 535 583 535 583 602 523 c 128,-1,27
 669 463 669 463 788 463 c 0,28,29
 846 463 846 463 914 478 c 128,-1,30
 982 493 982 493 1032 522 c 1,31,-1
 1032 205 l 1,0,1
EndSplineSet
EndChar

StartChar: sterling
Encoding: 163 163 232
Width: 1227
GlyphClass: 2
Flags: W
LayerCount: 2
Fore
SplineSet
166 0 m 1,0,-1
 166 291 l 1,1,2
 261 315 261 315 305.5 374.5 c 128,-1,3
 350 434 350 434 350 539 c 2,4,-1
 350 604 l 1,5,-1
 186 604 l 1,6,-1
 186 866 l 1,7,-1
 350 866 l 1,8,-1
 350 1010 l 2,9,10
 350 1219 350 1219 480.5 1338.5 c 128,-1,11
 611 1458 611 1458 844 1458 c 0,12,13
 961 1458 961 1458 1085 1403 c 1,14,-1
 1085 1079 l 1,15,16
 1054 1105 1054 1105 992.5 1126 c 128,-1,17
 931 1147 931 1147 887 1147 c 0,18,19
 805 1147 805 1147 767 1099 c 128,-1,20
 729 1051 729 1051 729 973 c 2,21,-1
 729 866 l 1,22,-1
 975 866 l 1,23,-1
 975 604 l 1,24,-1
 729 604 l 1,25,-1
 729 571 l 2,26,27
 729 494 729 494 696 426.5 c 128,-1,28
 663 359 663 359 606 311 c 1,29,-1
 1190 311 l 1,30,-1
 1190 0 l 1,31,-1
 166 0 l 1,0,-1
EndSplineSet
EndChar

StartChar: section
Encoding: 167 167 233
Width: 1063
GlyphClass: 2
Flags: W
LayerCount: 2
Fore
SplineSet
971 713 m 0,0,1
 971 641 971 641 929 567 c 128,-1,2
 887 493 887 493 821 446 c 1,3,4
 855 412 855 412 876 367 c 128,-1,5
 897 322 897 322 897 279 c 0,6,7
 897 119 897 119 784.5 26.5 c 128,-1,8
 672 -66 672 -66 481 -66 c 0,9,10
 401 -66 401 -66 310 -44 c 128,-1,11
 219 -22 219 -22 156 12 c 1,12,-1
 156 315 l 1,13,14
 368 188 368 188 508 188 c 0,15,16
 555 188 555 188 581.5 208 c 128,-1,17
 608 228 608 228 608 266 c 0,18,19
 608 294 608 294 588.5 313 c 128,-1,20
 569 332 569 332 522 352 c 2,21,-1
 426 393 l 2,22,23
 311 445 311 445 257.5 489.5 c 128,-1,24
 204 534 204 534 173.5 593 c 128,-1,25
 143 652 143 652 143 731 c 0,26,27
 143 808 143 808 176 863 c 128,-1,28
 209 918 209 918 256 961 c 1,29,30
 222 999 222 999 200 1051.5 c 128,-1,31
 178 1104 178 1104 178 1163 c 0,32,33
 178 1314 178 1314 284.5 1402.5 c 128,-1,34
 391 1491 391 1491 578 1491 c 0,35,36
 648 1491 648 1491 727 1473 c 128,-1,37
 806 1455 806 1455 862 1430 c 1,38,-1
 862 1118 l 1,39,40
 769 1184 769 1184 704.5 1213.5 c 128,-1,41
 640 1243 640 1243 578 1243 c 0,42,43
 479 1243 479 1243 479 1171 c 0,44,45
 479 1139 479 1139 512 1113 c 128,-1,46
 545 1087 545 1087 617 1061 c 2,47,-1
 698 1030 l 2,48,49
 848 972 848 972 909.5 896.5 c 128,-1,50
 971 821 971 821 971 713 c 0,0,1
694 682 m 256,51,52
 694 720 694 720 676 740 c 128,-1,53
 658 760 658 760 613 783 c 128,-1,54
 568 806 568 806 467 846 c 1,55,56
 416 812 416 812 416 760 c 0,57,58
 416 705 416 705 467.5 665.5 c 128,-1,59
 519 626 519 626 633 582 c 1,60,61
 656 593 656 593 675 618.5 c 128,-1,62
 694 644 694 644 694 682 c 256,51,52
EndSplineSet
EndChar

StartChar: bullet
Encoding: 8226 8226 234
Width: 885
GlyphClass: 2
Flags: W
LayerCount: 2
Fore
SplineSet
739 487 m 0,0,1
 739 410 739 410 699 342 c 128,-1,2
 659 274 659 274 590.5 234.5 c 128,-1,3
 522 195 522 195 446 195 c 0,4,5
 328 195 328 195 243 280 c 128,-1,6
 158 365 158 365 158 487 c 0,7,8
 158 606 158 606 241.5 691 c 128,-1,9
 325 776 325 776 446 776 c 0,10,11
 570 776 570 776 654.5 689.5 c 128,-1,12
 739 603 739 603 739 487 c 0,0,1
EndSplineSet
EndChar

StartChar: paragraph
Encoding: 182 182 235
Width: 1147
GlyphClass: 2
Flags: W
LayerCount: 2
Fore
SplineSet
948 1225 m 1,0,-1
 948 0 l 1,1,-1
 721 0 l 1,2,-1
 721 1225 l 1,3,-1
 623 1225 l 1,4,-1
 623 0 l 1,5,-1
 395 0 l 1,6,-1
 395 774 l 1,7,8
 270 788 270 788 190.5 882 c 128,-1,9
 111 976 111 976 111 1108 c 0,10,11
 111 1249 111 1249 204.5 1341.5 c 128,-1,12
 298 1434 298 1434 442 1434 c 2,13,-1
 1057 1434 l 1,14,-1
 1057 1225 l 1,15,-1
 948 1225 l 1,0,-1
EndSplineSet
EndChar

StartChar: germandbls
Encoding: 223 223 236
Width: 1417
GlyphClass: 2
Flags: W
AnchorPoint: "Anchor-14" 0 2100 basechar 0
AnchorPoint: "Anchor-13" 1227 2100 basechar 0
AnchorPoint: "Anchor-10" 709 0 basechar 0
AnchorPoint: "Anchor-7" 1157 -420 basechar 0
AnchorPoint: "Anchor-6" 1304 1900 basechar 0
AnchorPoint: "Anchor-2" 683 -25 basechar 0
AnchorPoint: "Anchor-1" 1227 1538 basechar 0
AnchorPoint: "Anchor-0" 670 1698 basechar 0
LayerCount: 2
Fore
SplineSet
1360 416 m 0,0,1
 1360 290 1360 290 1291 185.5 c 128,-1,2
 1222 81 1222 81 1106 28 c 128,-1,3
 990 -25 990 -25 840 -25 c 0,4,5
 790 -25 790 -25 741 -19.5 c 128,-1,6
 692 -14 692 -14 608 8 c 1,7,-1
 608 338 l 1,8,9
 696 287 696 287 780 287 c 0,10,11
 855 287 855 287 891.5 327 c 128,-1,12
 928 367 928 367 928 436 c 0,13,14
 928 523 928 523 844 570.5 c 128,-1,15
 760 618 760 618 608 618 c 1,16,-1
 608 901 l 1,17,18
 706 901 706 901 764.5 942.5 c 128,-1,19
 823 984 823 984 823 1075 c 0,20,21
 823 1140 823 1140 784.5 1184.5 c 128,-1,22
 746 1229 746 1229 682 1229 c 0,23,24
 608 1229 608 1229 568 1173.5 c 128,-1,25
 528 1118 528 1118 528 1024 c 2,26,-1
 528 0 l 1,27,-1
 102 0 l 1,28,-1
 102 989 l 2,29,30
 102 1156 102 1156 172.5 1280 c 128,-1,31
 243 1404 243 1404 378.5 1472 c 128,-1,32
 514 1540 514 1540 707 1540 c 0,33,34
 875 1540 875 1540 998.5 1484.5 c 128,-1,35
 1122 1429 1122 1429 1188.5 1331 c 128,-1,36
 1255 1233 1255 1233 1255 1114 c 0,37,38
 1255 1000 1255 1000 1192 915.5 c 128,-1,39
 1129 831 1129 831 1020 797 c 1,40,-1
 1020 793 l 1,41,42
 1179 759 1179 759 1269.5 662 c 128,-1,43
 1360 565 1360 565 1360 416 c 0,0,1
EndSplineSet
EndChar

StartChar: uni00AD
Encoding: 173 173 237
Width: 834
GlyphClass: 2
Flags: W
LayerCount: 2
Fore
SplineSet
143 393 m 1,0,-1
 143 680 l 1,1,-1
 690 680 l 1,2,-1
 690 393 l 1,3,-1
 143 393 l 1,0,-1
EndSplineSet
EndChar

StartChar: registered
Encoding: 174 174 238
Width: 1755
GlyphClass: 2
Flags: W
LayerCount: 2
Fore
SplineSet
1653 717 m 0,0,1
 1653 511 1653 511 1549.5 340 c 128,-1,2
 1446 169 1446 169 1266.5 72 c 128,-1,3
 1087 -25 1087 -25 874 -25 c 0,4,5
 655 -25 655 -25 477.5 69.5 c 128,-1,6
 300 164 300 164 201 334 c 128,-1,7
 102 504 102 504 102 713 c 0,8,9
 102 920 102 920 204 1091 c 128,-1,10
 306 1262 306 1262 485 1360 c 128,-1,11
 664 1458 664 1458 883 1458 c 0,12,13
 1098 1458 1098 1458 1275.5 1363.5 c 128,-1,14
 1453 1269 1453 1269 1553 1098.5 c 128,-1,15
 1653 928 1653 928 1653 717 c 0,0,1
1485 713 m 0,16,17
 1485 884 1485 884 1407 1022.5 c 128,-1,18
 1329 1161 1329 1161 1190 1238 c 128,-1,19
 1051 1315 1051 1315 879 1315 c 256,20,21
 707 1315 707 1315 566.5 1236 c 128,-1,22
 426 1157 426 1157 348 1019 c 128,-1,23
 270 881 270 881 270 715 c 0,24,25
 270 546 270 546 349 408.5 c 128,-1,26
 428 271 428 271 569 195 c 128,-1,27
 710 119 710 119 879 119 c 0,28,29
 1044 119 1044 119 1184 196 c 128,-1,30
 1324 273 1324 273 1404.5 410 c 128,-1,31
 1485 547 1485 547 1485 713 c 0,16,17
979 276 m 1,32,-1
 926 518 l 2,33,34
 918 556 918 556 898.5 579 c 128,-1,35
 879 602 879 602 854 602 c 2,36,-1
 784 602 l 1,37,-1
 784 276 l 1,38,-1
 518 276 l 1,39,-1
 518 1174 l 1,40,-1
 883 1174 l 2,41,42
 1069 1174 1069 1174 1167.5 1108.5 c 128,-1,43
 1266 1043 1266 1043 1266 909 c 0,44,45
 1266 739 1266 739 1069 680 c 1,46,-1
 1069 676 l 1,47,48
 1108 669 1108 669 1145 634 c 128,-1,49
 1182 599 1182 599 1194 559 c 2,50,-1
 1290 276 l 1,51,-1
 979 276 l 1,32,-1
977 879 m 0,52,53
 977 913 977 913 951.5 937 c 128,-1,54
 926 961 926 961 866 961 c 2,55,-1
 784 961 l 1,56,-1
 784 791 l 1,57,-1
 885 791 l 2,58,59
 927 791 927 791 952 814.5 c 128,-1,60
 977 838 977 838 977 879 c 0,52,53
EndSplineSet
EndChar

StartChar: copyright
Encoding: 169 169 239
Width: 1755
GlyphClass: 2
Flags: W
LayerCount: 2
Fore
SplineSet
1653 719 m 0,0,1
 1653 513 1653 513 1551 342.5 c 128,-1,2
 1449 172 1449 172 1269 73.5 c 128,-1,3
 1089 -25 1089 -25 874 -25 c 0,4,5
 655 -25 655 -25 477.5 69.5 c 128,-1,6
 300 164 300 164 201 334 c 128,-1,7
 102 504 102 504 102 713 c 0,8,9
 102 920 102 920 204 1091 c 128,-1,10
 306 1262 306 1262 485 1360 c 128,-1,11
 664 1458 664 1458 883 1458 c 0,12,13
 1100 1458 1100 1458 1277 1363.5 c 128,-1,14
 1454 1269 1454 1269 1553.5 1098.5 c 128,-1,15
 1653 928 1653 928 1653 719 c 0,0,1
1485 715 m 0,16,17
 1485 885 1485 885 1408 1022.5 c 128,-1,18
 1331 1160 1331 1160 1192 1237.5 c 128,-1,19
 1053 1315 1053 1315 879 1315 c 0,20,21
 707 1315 707 1315 566.5 1236 c 128,-1,22
 426 1157 426 1157 348 1019 c 128,-1,23
 270 881 270 881 270 715 c 0,24,25
 270 546 270 546 349 408.5 c 128,-1,26
 428 271 428 271 569 195 c 128,-1,27
 710 119 710 119 879 119 c 0,28,29
 1043 119 1043 119 1183 196.5 c 128,-1,30
 1323 274 1323 274 1404 411.5 c 128,-1,31
 1485 549 1485 549 1485 715 c 0,16,17
1186 324 m 1,32,33
 1058 258 1058 258 913 258 c 0,34,35
 778 258 778 258 668.5 315 c 128,-1,36
 559 372 559 372 497.5 473.5 c 128,-1,37
 436 575 436 575 436 698 c 0,38,39
 436 914 436 914 577 1046 c 128,-1,40
 718 1178 718 1178 946 1178 c 0,41,42
 1066 1178 1066 1178 1186 1120 c 1,43,-1
 1186 836 l 1,44,45
 1144 867 1144 867 1082.5 888 c 128,-1,46
 1021 909 1021 909 952 909 c 0,47,48
 863 909 863 909 804 853 c 128,-1,49
 745 797 745 797 745 709 c 0,50,51
 745 627 745 627 807.5 573.5 c 128,-1,52
 870 520 870 520 958 520 c 0,53,54
 1091 520 1091 520 1186 592 c 1,55,-1
 1186 324 l 1,32,33
EndSplineSet
EndChar

StartChar: trademark
Encoding: 8482 8482 240
Width: 1577
GlyphClass: 2
Flags: W
LayerCount: 2
Fore
SplineSet
1210 772 m 1,0,-1
 1210 1206 l 1,1,-1
 1204 1206 l 1,2,-1
 1098 772 l 1,3,-1
 891 772 l 1,4,-1
 801 1210 l 1,5,-1
 795 1210 l 1,6,-1
 795 772 l 1,7,-1
 614 772 l 1,8,-1
 614 1434 l 1,9,-1
 905 1434 l 1,10,-1
 999 999 l 1,11,-1
 1004 999 l 1,12,-1
 1122 1434 l 1,13,-1
 1386 1434 l 1,14,-1
 1386 772 l 1,15,-1
 1210 772 l 1,0,-1
403 1296 m 1,16,-1
 403 772 l 1,17,-1
 221 772 l 1,18,-1
 221 1296 l 1,19,-1
 72 1296 l 1,20,-1
 72 1434 l 1,21,-1
 561 1434 l 1,22,-1
 561 1296 l 1,23,-1
 403 1296 l 1,16,-1
EndSplineSet
EndChar

StartChar: acute
Encoding: 180 180 241
Width: 633
GlyphClass: 2
Flags: W
LayerCount: 2
Fore
SplineSet
285 1186 m 1,0,-1
 -16 1186 l 1,1,-1
 283 1507 l 1,2,-1
 641 1507 l 1,3,-1
 285 1186 l 1,0,-1
EndSplineSet
EndChar

StartChar: dieresis
Encoding: 168 168 242
Width: 1024
GlyphClass: 2
Flags: W
LayerCount: 2
Fore
SplineSet
954 1339 m 0,0,1
 954 1266 954 1266 902 1220.5 c 128,-1,2
 850 1175 850 1175 762 1175 c 0,3,4
 678 1175 678 1175 623.5 1221.5 c 128,-1,5
 569 1268 569 1268 569 1339 c 256,6,7
 569 1410 569 1410 622 1454 c 128,-1,8
 675 1498 675 1498 762 1498 c 256,9,10
 849 1498 849 1498 901.5 1453.5 c 128,-1,11
 954 1409 954 1409 954 1339 c 0,0,1
453 1339 m 0,12,13
 453 1268 453 1268 401.5 1221.5 c 128,-1,14
 350 1175 350 1175 260 1175 c 0,15,16
 175 1175 175 1175 121.5 1222.5 c 128,-1,17
 68 1270 68 1270 68 1339 c 0,18,19
 68 1410 68 1410 121 1454 c 128,-1,20
 174 1498 174 1498 260 1498 c 0,21,22
 347 1498 347 1498 400 1454.5 c 128,-1,23
 453 1411 453 1411 453 1339 c 0,12,13
EndSplineSet
EndChar

StartChar: notequal
Encoding: 8800 8800 243
Width: 1464
GlyphClass: 2
Flags: W
LayerCount: 2
Fore
SplineSet
709 236 m 1,0,-1
 584 0 l 1,1,-1
 268 0 l 1,2,-1
 393 236 l 1,3,-1
 238 236 l 1,4,-1
 238 483 l 1,5,-1
 524 483 l 1,6,-1
 621 666 l 1,7,-1
 238 666 l 1,8,-1
 238 913 l 1,9,-1
 752 913 l 1,10,-1
 895 1188 l 1,11,-1
 1210 1188 l 1,12,-1
 1067 913 l 1,13,-1
 1229 913 l 1,14,-1
 1229 666 l 1,15,-1
 936 666 l 1,16,-1
 840 483 l 1,17,-1
 1229 483 l 1,18,-1
 1229 236 l 1,19,-1
 709 236 l 1,0,-1
EndSplineSet
EndChar

StartChar: AE
Encoding: 198 198 244
Width: 2030
GlyphClass: 2
Flags: W
AnchorPoint: "Anchor-14" 0 2100 basechar 0
AnchorPoint: "Anchor-13" 1862 2100 basechar 0
AnchorPoint: "Anchor-10" 1450 0 basechar 0
AnchorPoint: "Anchor-7" 1767 -420 basechar 0
AnchorPoint: "Anchor-6" 1931 1900 basechar 0
AnchorPoint: "Anchor-2" 1100 -15 basechar 0
AnchorPoint: "Anchor-1" 1862 1500 basechar 0
AnchorPoint: "Anchor-0" 1120 1600 basechar 0
LayerCount: 2
Fore
SplineSet
1040 0 m 1,0,-1
 1040 264 l 1,1,-1
 608 264 l 1,2,-1
 489 0 l 1,3,-1
 -12 0 l 1,4,-1
 735 1434 l 1,5,-1
 1933 1434 l 1,6,-1
 1933 1096 l 1,7,-1
 1473 1096 l 1,8,-1
 1473 887 l 1,9,-1
 1905 887 l 1,10,-1
 1905 549 l 1,11,-1
 1473 549 l 1,12,-1
 1473 338 l 1,13,-1
 1966 338 l 1,14,-1
 1966 0 l 1,15,-1
 1040 0 l 1,0,-1
1040 1096 m 1,16,-1
 985 1096 l 1,17,-1
 745 571 l 1,18,-1
 1040 571 l 1,19,-1
 1040 1096 l 1,16,-1
EndSplineSet
EndChar

StartChar: Oslash
Encoding: 216 216 245
Width: 1567
GlyphClass: 2
Flags: W
AnchorPoint: "Anchor-14" 0 2100 basechar 0
AnchorPoint: "Anchor-13" 1554 2100 basechar 0
AnchorPoint: "Anchor-10" 840 -15 basechar 0
AnchorPoint: "Anchor-7" 1460 -420 basechar 0
AnchorPoint: "Anchor-6" 1558 1900 basechar 0
AnchorPoint: "Anchor-2" 780 -25 basechar 0
AnchorPoint: "Anchor-1" 1430 1660 basechar 0
AnchorPoint: "Anchor-0" 784 1600 basechar 0
LayerCount: 2
Fore
SplineSet
1505 721 m 0,0,1
 1505 505 1505 505 1412 334.5 c 128,-1,2
 1319 164 1319 164 1152 69.5 c 128,-1,3
 985 -25 985 -25 778 -25 c 0,4,5
 550 -25 550 -25 369 92 c 1,6,-1
 223 -72 l 1,7,-1
 63 61 l 1,8,-1
 213 233 l 1,9,10
 61 426 61 426 61 698 c 0,11,12
 61 917 61 917 154 1092 c 128,-1,13
 247 1267 247 1267 415 1362.5 c 128,-1,14
 583 1458 583 1458 797 1458 c 0,15,16
 1027 1458 1027 1458 1198 1346 c 1,17,-1
 1325 1489 l 1,18,-1
 1487 1356 l 1,19,-1
 1354 1204 l 1,20,21
 1505 1009 1505 1009 1505 721 c 0,0,1
1094 707 m 0,22,23
 1094 793 1094 793 1083 901 c 1,24,-1
 602 354 l 1,25,26
 684 293 684 293 788 293 c 0,27,28
 872 293 872 293 943 344.5 c 128,-1,29
 1014 396 1014 396 1054 488.5 c 128,-1,30
 1094 581 1094 581 1094 707 c 0,22,23
969 1083 m 1,31,32
 890 1141 890 1141 795 1141 c 0,33,34
 645 1141 645 1141 559 1021.5 c 128,-1,35
 473 902 473 902 473 702 c 0,36,37
 473 605 473 605 483 537 c 1,38,-1
 969 1083 l 1,31,32
EndSplineSet
EndChar

StartChar: infinity
Encoding: 8734 8734 246
Width: 1655
GlyphClass: 2
Flags: W
LayerCount: 2
Fore
SplineSet
1599 569 m 0,0,1
 1599 462 1599 462 1547.5 369 c 128,-1,2
 1496 276 1496 276 1406.5 223 c 128,-1,3
 1317 170 1317 170 1210 170 c 0,4,5
 1083 170 1083 170 991.5 231.5 c 128,-1,6
 900 293 900 293 831 412 c 1,7,8
 765 311 765 311 663 249.5 c 128,-1,9
 561 188 561 188 451 188 c 0,10,11
 280 188 280 188 171.5 301.5 c 128,-1,12
 63 415 63 415 63 602 c 0,13,14
 63 709 63 709 114.5 801.5 c 128,-1,15
 166 894 166 894 256 947.5 c 128,-1,16
 346 1001 346 1001 453 1001 c 0,17,18
 580 1001 580 1001 670.5 940 c 128,-1,19
 761 879 761 879 829 760 c 1,20,21
 895 861 895 861 999 922 c 128,-1,22
 1103 983 1103 983 1212 983 c 0,23,24
 1384 983 1384 983 1491.5 869 c 128,-1,25
 1599 755 1599 755 1599 569 c 0,0,1
1303 573 m 0,26,27
 1303 638 1303 638 1261.5 677.5 c 128,-1,28
 1220 717 1220 717 1153 717 c 0,29,30
 1048 717 1048 717 967 575 c 1,31,32
 1024 490 1024 490 1065 462 c 128,-1,33
 1106 434 1106 434 1157 434 c 0,34,35
 1215 434 1215 434 1259 474.5 c 128,-1,36
 1303 515 1303 515 1303 573 c 0,26,27
696 596 m 1,37,38
 653 660 653 660 628 685 c 128,-1,39
 603 710 603 710 573.5 723.5 c 128,-1,40
 544 737 544 737 506 737 c 0,41,42
 445 737 445 737 402.5 695.5 c 128,-1,43
 360 654 360 654 360 598 c 0,44,45
 360 534 360 534 402.5 494.5 c 128,-1,46
 445 455 445 455 510 455 c 0,47,48
 614 455 614 455 696 596 c 1,37,38
EndSplineSet
EndChar

StartChar: plusminus
Encoding: 177 177 247
Width: 1464
GlyphClass: 2
Flags: W
LayerCount: 2
Fore
SplineSet
856 725 m 1,0,-1
 856 352 l 1,1,-1
 608 352 l 1,2,-1
 608 725 l 1,3,-1
 244 725 l 1,4,-1
 244 973 l 1,5,-1
 608 973 l 1,6,-1
 608 1356 l 1,7,-1
 856 1356 l 1,8,-1
 856 973 l 1,9,-1
 1231 973 l 1,10,-1
 1231 725 l 1,11,-1
 856 725 l 1,0,-1
238 0 m 1,12,-1
 238 248 l 1,13,-1
 1223 248 l 1,14,-1
 1223 0 l 1,15,-1
 238 0 l 1,12,-1
EndSplineSet
EndChar

StartChar: lessequal
Encoding: 8804 8804 248
Width: 1464
GlyphClass: 2
Flags: W
LayerCount: 2
Fore
SplineSet
238 643 m 1,0,-1
 238 901 l 1,1,-1
 1229 1257 l 1,2,-1
 1229 965 l 1,3,-1
 526 770 l 1,4,-1
 526 766 l 1,5,-1
 1229 571 l 1,6,-1
 1229 279 l 1,7,-1
 238 643 l 1,0,-1
238 0 m 1,8,-1
 238 248 l 1,9,-1
 1229 248 l 1,10,-1
 1229 0 l 1,11,-1
 238 0 l 1,8,-1
EndSplineSet
EndChar

StartChar: greaterequal
Encoding: 8805 8805 249
Width: 1464
GlyphClass: 2
Flags: W
LayerCount: 2
Fore
SplineSet
238 279 m 1,0,-1
 238 571 l 1,1,-1
 938 766 l 1,2,-1
 938 770 l 1,3,-1
 238 965 l 1,4,-1
 238 1257 l 1,5,-1
 1229 901 l 1,6,-1
 1229 643 l 1,7,-1
 238 279 l 1,0,-1
238 0 m 1,8,-1
 238 248 l 1,9,-1
 1229 248 l 1,10,-1
 1229 0 l 1,11,-1
 238 0 l 1,8,-1
EndSplineSet
EndChar

StartChar: yen
Encoding: 165 165 250
Width: 1227
GlyphClass: 2
Flags: W
LayerCount: 2
Fore
SplineSet
877 793 m 1,0,-1
 1120 793 l 1,1,-1
 1120 584 l 1,2,-1
 827 584 l 1,3,-1
 827 461 l 1,4,-1
 1120 461 l 1,5,-1
 1120 248 l 1,6,-1
 827 248 l 1,7,-1
 827 0 l 1,8,-1
 418 0 l 1,9,-1
 418 248 l 1,10,-1
 117 248 l 1,11,-1
 117 461 l 1,12,-1
 418 461 l 1,13,-1
 418 584 l 1,14,-1
 117 584 l 1,15,-1
 117 793 l 1,16,-1
 362 793 l 1,17,-1
 18 1434 l 1,18,-1
 424 1434 l 1,19,-1
 616 956 l 1,20,-1
 641 897 l 1,21,-1
 645 897 l 1,22,-1
 670 956 l 1,23,-1
 852 1434 l 1,24,-1
 1237 1434 l 1,25,-1
 877 793 l 1,0,-1
EndSplineSet
EndChar

StartChar: mu
Encoding: 181 181 251
Width: 1294
GlyphClass: 2
Flags: W
LayerCount: 2
Fore
SplineSet
772 0 m 1,0,-1
 774 137 l 1,1,-1
 770 137 l 1,2,3
 752 78 752 78 702 34 c 128,-1,4
 652 -10 652 -10 600 -10 c 0,5,6
 552 -10 552 -10 524 4 c 1,7,-1
 520 4 l 1,8,-1
 524 -301 l 1,9,-1
 102 -301 l 1,10,-1
 102 1024 l 1,11,-1
 528 1024 l 1,12,-1
 528 485 l 2,13,14
 528 299 528 299 635 299 c 0,15,16
 680 299 680 299 714.5 322 c 128,-1,17
 749 345 749 345 766 387 c 1,18,-1
 766 1024 l 1,19,-1
 1192 1024 l 1,20,-1
 1192 0 l 1,21,-1
 772 0 l 1,0,-1
EndSplineSet
EndChar

StartChar: partialdiff
Encoding: 8706 8706 252
Width: 1247
GlyphClass: 2
Flags: W
LayerCount: 2
Fore
SplineSet
1227 907 m 0,0,1
 1227 618 1227 618 1138.5 403 c 128,-1,2
 1050 188 1050 188 889 81.5 c 128,-1,3
 728 -25 728 -25 506 -25 c 0,4,5
 286 -25 286 -25 167.5 87.5 c 128,-1,6
 49 200 49 200 49 410 c 0,7,8
 49 566 49 566 118 707 c 128,-1,9
 187 848 187 848 301.5 920.5 c 128,-1,10
 416 993 416 993 559 993 c 0,11,12
 734 993 734 993 823 862 c 1,13,-1
 827 862 l 1,14,-1
 829 884 l 1,15,-1
 829 905 l 2,16,17
 829 1061 829 1061 771 1133.5 c 128,-1,18
 713 1206 713 1206 592 1206 c 0,19,20
 526 1206 526 1206 450.5 1189 c 128,-1,21
 375 1172 375 1172 307 1141 c 1,22,-1
 387 1452 l 1,23,24
 546 1509 546 1509 694 1509 c 0,25,26
 959 1509 959 1509 1093 1361 c 128,-1,27
 1227 1213 1227 1213 1227 907 c 0,0,1
762 608 m 1,28,29
 751 662 751 662 723.5 691.5 c 128,-1,30
 696 721 696 721 655 721 c 0,31,32
 606 721 606 721 564 676.5 c 128,-1,33
 522 632 522 632 495.5 559.5 c 128,-1,34
 469 487 469 487 469 422 c 0,35,36
 469 351 469 351 496 319 c 128,-1,37
 523 287 523 287 565 287 c 0,38,39
 630 287 630 287 683 374.5 c 128,-1,40
 736 462 736 462 762 608 c 1,28,29
EndSplineSet
EndChar

StartChar: summation
Encoding: 8721 8721 253
Width: 1358
GlyphClass: 2
Flags: W
LayerCount: 2
Fore
SplineSet
49 -471 m 1,0,-1
 49 -231 l 1,1,-1
 608 492 l 1,2,-1
 72 1182 l 1,3,-1
 72 1434 l 1,4,-1
 1292 1434 l 1,5,-1
 1292 1096 l 1,6,-1
 674 1096 l 1,7,-1
 1102 502 l 1,8,-1
 647 -133 l 1,9,-1
 1327 -133 l 1,10,-1
 1327 -471 l 1,11,-1
 49 -471 l 1,0,-1
EndSplineSet
EndChar

StartChar: product
Encoding: 8719 8719 254
Width: 1681
GlyphClass: 2
Flags: W
LayerCount: 2
Fore
SplineSet
1130 -471 m 1,0,-1
 1130 1065 l 1,1,-1
 573 1065 l 1,2,-1
 573 -471 l 1,3,-1
 141 -471 l 1,4,-1
 141 1434 l 1,5,-1
 1563 1434 l 1,6,-1
 1563 -471 l 1,7,-1
 1130 -471 l 1,0,-1
EndSplineSet
EndChar

StartChar: integral
Encoding: 8747 8747 255
Width: 1227
GlyphClass: 2
Flags: W
LayerCount: 2
Fore
SplineSet
1090 1206 m 1,0,1
 1024 1229 1024 1229 967 1229 c 0,2,3
 895 1229 895 1229 861 1192.5 c 128,-1,4
 827 1156 827 1156 827 1094 c 2,5,-1
 827 -74 l 2,6,7
 827 -199 827 -199 769 -294.5 c 128,-1,8
 711 -390 711 -390 600.5 -443 c 128,-1,9
 490 -496 490 -496 332 -496 c 0,10,11
 292 -496 292 -496 234 -489.5 c 128,-1,12
 176 -483 176 -483 139 -473 c 1,13,-1
 139 -162 l 1,14,15
 202 -184 202 -184 262 -184 c 0,16,17
 333 -184 333 -184 367 -147.5 c 128,-1,18
 401 -111 401 -111 401 -49 c 2,19,-1
 401 1118 l 2,20,21
 401 1243 401 1243 459 1338.5 c 128,-1,22
 517 1434 517 1434 627.5 1487 c 128,-1,23
 738 1540 738 1540 897 1540 c 0,24,25
 1011 1540 1011 1540 1090 1518 c 1,26,-1
 1090 1206 l 1,0,1
EndSplineSet
EndChar

StartChar: ordfeminine
Encoding: 170 170 256
Width: 852
GlyphClass: 2
Flags: W
LayerCount: 2
Fore
SplineSet
498 717 m 1,0,-1
 498 805 l 1,1,-1
 494 805 l 1,2,3
 436 739 436 739 389.5 717.5 c 128,-1,4
 343 696 343 696 276 696 c 0,5,6
 184 696 184 696 121.5 758.5 c 128,-1,7
 59 821 59 821 59 915 c 0,8,9
 59 1030 59 1030 128 1089.5 c 128,-1,10
 197 1149 197 1149 338 1167 c 2,11,-1
 498 1188 l 1,12,13
 498 1233 498 1233 464 1251.5 c 128,-1,14
 430 1270 430 1270 362 1270 c 0,15,16
 323 1270 323 1270 253.5 1248 c 128,-1,17
 184 1226 184 1226 125 1198 c 1,18,-1
 125 1401 l 1,19,20
 189 1425 189 1425 269.5 1439.5 c 128,-1,21
 350 1454 350 1454 428 1454 c 0,22,23
 560 1454 560 1454 631.5 1422 c 128,-1,24
 703 1390 703 1390 737.5 1319 c 128,-1,25
 772 1248 772 1248 772 1128 c 2,26,-1
 772 717 l 1,27,-1
 498 717 l 1,0,-1
336 961 m 0,28,29
 336 929 336 929 358.5 910 c 128,-1,30
 381 891 381 891 412 891 c 0,31,32
 447 891 447 891 472.5 919.5 c 128,-1,33
 498 948 498 948 498 983 c 2,34,-1
 498 1042 l 1,35,-1
 422 1034 l 2,36,37
 388 1031 388 1031 362 1013 c 128,-1,38
 336 995 336 995 336 961 c 0,28,29
EndSplineSet
EndChar

StartChar: ordmasculine
Encoding: 186 186 257
Width: 950
GlyphClass: 2
Flags: W
LayerCount: 2
Fore
SplineSet
893 1087 m 0,0,1
 893 904 893 904 782.5 800 c 128,-1,2
 672 696 672 696 473 696 c 0,3,4
 277 696 277 696 167 798 c 128,-1,5
 57 900 57 900 57 1079 c 0,6,7
 57 1253 57 1253 169 1353.5 c 128,-1,8
 281 1454 281 1454 475 1454 c 0,9,10
 606 1454 606 1454 700 1406 c 128,-1,11
 794 1358 794 1358 843.5 1274.5 c 128,-1,12
 893 1191 893 1191 893 1087 c 0,0,1
586 1083 m 0,13,14
 586 1156 586 1156 556 1196.5 c 128,-1,15
 526 1237 526 1237 475 1237 c 0,16,17
 362 1237 362 1237 362 1079 c 0,18,19
 362 915 362 915 475 915 c 0,20,21
 529 915 529 915 557.5 958.5 c 128,-1,22
 586 1002 586 1002 586 1083 c 0,13,14
EndSplineSet
EndChar

StartChar: Omega
Encoding: 8486 8486 258
Width: 1587
GlyphClass: 2
Flags: W
LayerCount: 2
Fore
SplineSet
858 0 m 1,0,-1
 858 338 l 1,1,2
 971 451 971 451 1015 555 c 128,-1,3
 1059 659 1059 659 1059 788 c 0,4,5
 1059 920 1059 920 987 1005 c 128,-1,6
 915 1090 915 1090 805 1090 c 0,7,8
 728 1090 728 1090 666 1052 c 128,-1,9
 604 1014 604 1014 568 941.5 c 128,-1,10
 532 869 532 869 532 768 c 0,11,12
 532 689 532 689 553.5 619.5 c 128,-1,13
 575 550 575 550 612 487 c 128,-1,14
 649 424 649 424 727 338 c 1,15,-1
 727 0 l 1,16,-1
 70 0 l 1,17,-1
 70 338 l 1,18,-1
 406 338 l 1,19,20
 240 427 240 427 157 561.5 c 128,-1,21
 74 696 74 696 74 866 c 256,22,23
 74 1036 74 1036 167.5 1172 c 128,-1,24
 261 1308 261 1308 428 1383 c 128,-1,25
 595 1458 595 1458 795 1458 c 0,26,27
 1005 1458 1005 1458 1166.5 1384.5 c 128,-1,28
 1328 1311 1328 1311 1423 1173 c 128,-1,29
 1518 1035 1518 1035 1518 874 c 0,30,31
 1518 690 1518 690 1429 558.5 c 128,-1,32
 1340 427 1340 427 1167 338 c 1,33,-1
 1516 338 l 1,34,-1
 1516 0 l 1,35,-1
 858 0 l 1,0,-1
EndSplineSet
EndChar

StartChar: ae
Encoding: 230 230 259
Width: 1716
GlyphClass: 2
Flags: W
AnchorPoint: "Anchor-14" 0 2100 basechar 0
AnchorPoint: "Anchor-13" 1712 2100 basechar 0
AnchorPoint: "Anchor-10" 1416 39 basechar 0
AnchorPoint: "Anchor-7" 1630 -420 basechar 0
AnchorPoint: "Anchor-6" 1630 1700 basechar 0
AnchorPoint: "Anchor-4" 1592 910 basechar 0
AnchorPoint: "Anchor-2" 848 -25 basechar 0
AnchorPoint: "Anchor-1" 1612 1200 basechar 0
AnchorPoint: "Anchor-0" 848 1300 basechar 0
LayerCount: 2
Fore
SplineSet
1038 391 m 1,0,1
 1069 250 1069 250 1288 250 c 0,2,3
 1437 250 1437 250 1573 309 c 1,4,-1
 1573 39 l 1,5,6
 1410 -25 1410 -25 1178 -25 c 0,7,8
 1045 -25 1045 -25 935.5 16 c 128,-1,9
 826 57 826 57 764 127 c 1,10,-1
 760 127 l 1,11,12
 617 -25 617 -25 416 -25 c 0,13,14
 235 -25 235 -25 140 59.5 c 128,-1,15
 45 144 45 144 45 297 c 0,16,17
 45 443 45 443 141 532.5 c 128,-1,18
 237 622 237 622 412 639 c 2,19,-1
 670 664 l 1,20,21
 670 723 670 723 625 755.5 c 128,-1,22
 580 788 580 788 502 788 c 0,23,24
 421 788 421 788 325 762.5 c 128,-1,25
 229 737 229 737 141 690 c 1,26,-1
 141 967 l 1,27,28
 236 1003 236 1003 348 1026 c 128,-1,29
 460 1049 460 1049 535 1049 c 0,30,31
 741 1049 741 1049 877 956 c 1,32,-1
 881 956 l 1,33,34
 1030 1049 1030 1049 1188 1049 c 0,35,36
 1408 1049 1408 1049 1539.5 912.5 c 128,-1,37
 1671 776 1671 776 1671 545 c 2,38,-1
 1671 391 l 1,39,-1
 1038 391 l 1,0,1
1294 614 m 1,40,41
 1294 791 1294 791 1167 791 c 0,42,43
 1114 791 1114 791 1076 739 c 128,-1,44
 1038 687 1038 687 1038 614 c 1,45,-1
 1294 614 l 1,40,41
668 459 m 1,46,-1
 530 449 l 2,47,48
 475 444 475 444 445.5 415.5 c 128,-1,49
 416 387 416 387 416 346 c 0,50,51
 416 306 416 306 446 279 c 128,-1,52
 476 252 476 252 522 252 c 0,53,54
 587 252 587 252 627.5 301 c 128,-1,55
 668 350 668 350 668 424 c 2,56,-1
 668 459 l 1,46,-1
EndSplineSet
EndChar

StartChar: oslash
Encoding: 248 248 260
Width: 1298
GlyphClass: 2
Flags: W
AnchorPoint: "Anchor-14" 0 2100 basechar 0
AnchorPoint: "Anchor-13" 1238 2100 basechar 0
AnchorPoint: "Anchor-10" 670 0 basechar 0
AnchorPoint: "Anchor-7" 1212 -420 basechar 0
AnchorPoint: "Anchor-6" 1261 1900 basechar 0
AnchorPoint: "Anchor-4" 1124 775 basechar 0
AnchorPoint: "Anchor-2" 650 -25 basechar 0
AnchorPoint: "Anchor-1" 1118 1360 basechar 0
AnchorPoint: "Anchor-0" 638 1300 basechar 0
LayerCount: 2
Fore
SplineSet
1116 862 m 1,0,1
 1241 714 1241 714 1241 524 c 0,2,3
 1241 268 1241 268 1087.5 122.5 c 128,-1,4
 934 -23 934 -23 647 -23 c 0,5,6
 449 -23 449 -23 309 55 c 1,7,-1
 176 -80 l 1,8,-1
 33 45 l 1,9,-1
 166 180 l 1,10,11
 57 324 57 324 57 520 c 0,12,13
 57 683 57 683 130 803 c 128,-1,14
 203 923 203 923 338 987 c 128,-1,15
 473 1051 473 1051 649 1051 c 0,16,17
 831 1051 831 1051 967 981 c 1,18,-1
 1092 1106 l 1,19,-1
 1235 981 l 1,20,-1
 1116 862 l 1,0,1
750 762 m 1,21,22
 702 782 702 782 651 782 c 0,23,24
 546 782 546 782 498.5 715.5 c 128,-1,25
 451 649 451 649 451 522 c 2,26,-1
 451 493 l 1,27,-1
 453 467 l 1,28,-1
 750 762 l 1,21,22
850 528 m 2,29,-1
 850 561 l 1,30,-1
 848 594 l 1,31,-1
 530 274 l 1,32,33
 579 246 579 246 651 246 c 0,34,35
 748 246 748 246 799 317.5 c 128,-1,36
 850 389 850 389 850 528 c 2,29,-1
EndSplineSet
EndChar

StartChar: questiondown
Encoding: 191 191 261
Width: 866
GlyphClass: 2
Flags: W
LayerCount: 2
Fore
SplineSet
721 846 m 0,0,1
 721 758 721 758 656.5 703.5 c 128,-1,2
 592 649 592 649 483 649 c 0,3,4
 377 649 377 649 311.5 703.5 c 128,-1,5
 246 758 246 758 246 846 c 0,6,7
 246 935 246 935 310.5 992 c 128,-1,8
 375 1049 375 1049 483 1049 c 0,9,10
 589 1049 589 1049 655 990.5 c 128,-1,11
 721 932 721 932 721 846 c 0,0,1
858 -362 m 1,12,13
 793 -399 793 -399 681.5 -426 c 128,-1,14
 570 -453 570 -453 483 -453 c 0,15,16
 238 -453 238 -453 109 -356.5 c 128,-1,17
 -20 -260 -20 -260 -20 -76 c 0,18,19
 -20 146 -20 146 195 315 c 0,20,21
 268 373 268 373 298 417 c 128,-1,22
 328 461 328 461 328 526 c 2,23,-1
 328 561 l 1,24,-1
 664 561 l 1,25,-1
 664 473 l 2,26,27
 664 383 664 383 636 312.5 c 128,-1,28
 608 242 608 242 543 186 c 0,29,30
 452 109 452 109 433.5 87.5 c 128,-1,31
 415 66 415 66 407 44.5 c 128,-1,32
 399 23 399 23 399 -6 c 0,33,34
 399 -46 399 -46 432.5 -72 c 128,-1,35
 466 -98 466 -98 520 -98 c 0,36,37
 676 -98 676 -98 858 31 c 1,38,-1
 858 -362 l 1,12,13
EndSplineSet
EndChar

StartChar: exclamdown
Encoding: 161 161 263
Width: 750
GlyphClass: 2
Flags: W
LayerCount: 2
Fore
SplineSet
612 846 m 0,0,1
 612 758 612 758 547.5 703.5 c 128,-1,2
 483 649 483 649 375 649 c 256,3,4
 267 649 267 649 202 704.5 c 128,-1,5
 137 760 137 760 137 846 c 0,6,7
 137 935 137 935 201.5 992 c 128,-1,8
 266 1049 266 1049 375 1049 c 0,9,10
 480 1049 480 1049 546 990.5 c 128,-1,11
 612 932 612 932 612 846 c 0,0,1
154 -410 m 1,12,-1
 207 541 l 1,13,-1
 549 541 l 1,14,-1
 602 -410 l 1,15,-1
 154 -410 l 1,12,-1
EndSplineSet
EndChar

StartChar: logicalnot
Encoding: 172 172 264
Width: 1464
GlyphClass: 2
Flags: W
LayerCount: 2
Fore
SplineSet
981 236 m 1,0,-1
 981 578 l 1,1,-1
 238 578 l 1,2,-1
 238 825 l 1,3,-1
 1229 825 l 1,4,-1
 1229 236 l 1,5,-1
 981 236 l 1,0,-1
EndSplineSet
EndChar

StartChar: radical
Encoding: 8730 8730 265
Width: 1331
GlyphClass: 2
Flags: W
LayerCount: 2
Fore
SplineSet
838 -2 m 1,0,-1
 575 -2 l 1,1,-1
 256 709 l 1,2,-1
 68 709 l 1,3,-1
 68 915 l 1,4,-1
 477 915 l 1,5,-1
 698 410 l 1,6,-1
 1004 1516 l 1,7,-1
 1253 1516 l 1,8,-1
 838 -2 l 1,0,-1
EndSplineSet
EndChar

StartChar: florin
Encoding: 402 402 266
Width: 1178
GlyphClass: 2
Flags: W
AnchorPoint: "Anchor-14" 0 2100 basechar 0
AnchorPoint: "Anchor-13" 1125 2100 basechar 0
AnchorPoint: "Anchor-10" 262 -242 basechar 0
AnchorPoint: "Anchor-7" 973 -420 basechar 0
AnchorPoint: "Anchor-6" 1158 1900 basechar 0
AnchorPoint: "Anchor-2" 352 -300 basechar 0
AnchorPoint: "Anchor-1" 1045 1434 basechar 0
AnchorPoint: "Anchor-0" 791 1650 basechar 0
LayerCount: 2
Fore
SplineSet
1044 1174 m 1,0,1
 980 1204 980 1204 911 1204 c 0,2,3
 787 1204 787 1204 764 1067 c 2,4,-1
 741 930 l 1,5,-1
 899 930 l 1,6,-1
 899 715 l 1,7,-1
 707 715 l 1,8,-1
 616 121 l 2,9,10
 586 -75 586 -75 476 -190 c 128,-1,11
 366 -305 366 -305 199 -305 c 0,12,13
 149 -305 149 -305 78 -285 c 1,14,-1
 78 -43 l 1,15,16
 117 -63 117 -63 170 -63 c 0,17,18
 293 -63 293 -63 324 139 c 2,19,-1
 412 715 l 1,20,-1
 307 715 l 1,21,-1
 307 930 l 1,22,-1
 449 930 l 1,23,-1
 471 1079 l 2,24,25
 496 1246 496 1246 606 1346 c 128,-1,26
 716 1446 716 1446 885 1446 c 0,27,28
 967 1446 967 1446 1044 1423 c 1,29,-1
 1044 1174 l 1,0,1
EndSplineSet
EndChar

StartChar: approxequal
Encoding: 8776 8776 267
Width: 1464
GlyphClass: 2
Flags: W
LayerCount: 2
Fore
SplineSet
1270 1012 m 1,0,1
 1264 834 1264 834 1176 728.5 c 128,-1,2
 1088 623 1088 623 946 623 c 0,3,4
 868 623 868 623 809 643 c 128,-1,5
 750 663 750 663 673 708 c 0,6,7
 597 752 597 752 557 752 c 0,8,9
 510 752 510 752 479 716.5 c 128,-1,10
 448 681 448 681 442 612 c 1,11,-1
 195 612 l 1,12,13
 200 791 200 791 287.5 895 c 128,-1,14
 375 999 375 999 526 999 c 0,15,16
 641 999 641 999 750 938 c 0,17,18
 797 912 797 912 836 891 c 128,-1,19
 875 870 875 870 913 870 c 0,20,21
 961 870 961 870 990.5 911 c 128,-1,22
 1020 952 1020 952 1022 1012 c 1,23,-1
 1270 1012 l 1,0,1
1270 539 m 1,24,25
 1264 364 1264 364 1177 258 c 128,-1,26
 1090 152 1090 152 946 152 c 0,27,28
 868 152 868 152 809 172 c 128,-1,29
 750 192 750 192 673 237 c 0,30,31
 597 281 597 281 557 281 c 0,32,33
 509 281 509 281 478.5 245 c 128,-1,34
 448 209 448 209 442 139 c 1,35,-1
 195 139 l 1,36,37
 200 320 200 320 288 424 c 128,-1,38
 376 528 376 528 526 528 c 0,39,40
 641 528 641 528 750 467 c 0,41,42
 797 441 797 441 836 420 c 128,-1,43
 875 399 875 399 913 399 c 0,44,45
 960 399 960 399 990 439 c 128,-1,46
 1020 479 1020 479 1022 539 c 1,47,-1
 1270 539 l 1,24,25
EndSplineSet
EndChar

StartChar: uni0394
Encoding: 916 916 268
Width: 1614
GlyphClass: 2
Flags: W
LayerCount: 2
Fore
SplineSet
74 0 m 1,0,-1
 74 164 l 1,1,-1
 551 1434 l 1,2,-1
 1087 1434 l 1,3,-1
 1540 164 l 1,4,-1
 1540 0 l 1,5,-1
 74 0 l 1,0,-1
811 1106 m 1,6,-1
 801 1106 l 1,7,8
 799 1094 799 1094 793.5 1056 c 128,-1,9
 788 1018 788 1018 772 969 c 2,10,-1
 565 338 l 1,11,-1
 1038 338 l 1,12,-1
 838 961 l 2,13,14
 817 1021 817 1021 813 1085 c 2,15,-1
 811 1106 l 1,6,-1
EndSplineSet
EndChar

StartChar: guillemotleft
Encoding: 171 171 269
Width: 1294
GlyphClass: 2
Flags: W
LayerCount: 2
Fore
SplineSet
926 201 m 1,0,-1
 580 537 l 1,1,-1
 926 881 l 1,2,-1
 1260 881 l 1,3,-1
 909 537 l 1,4,-1
 1262 201 l 1,5,-1
 926 201 l 1,0,-1
379 201 m 1,6,-1
 33 537 l 1,7,-1
 379 881 l 1,8,-1
 713 881 l 1,9,-1
 362 537 l 1,10,-1
 715 201 l 1,11,-1
 379 201 l 1,6,-1
EndSplineSet
EndChar

StartChar: guillemotright
Encoding: 187 187 270
Width: 1294
GlyphClass: 2
Flags: W
LayerCount: 2
Fore
SplineSet
915 201 m 1,0,-1
 580 201 l 1,1,-1
 932 537 l 1,2,-1
 582 881 l 1,3,-1
 915 881 l 1,4,-1
 1262 537 l 1,5,-1
 915 201 l 1,0,-1
369 201 m 1,6,-1
 33 201 l 1,7,-1
 385 537 l 1,8,-1
 35 881 l 1,9,-1
 369 881 l 1,10,-1
 715 537 l 1,11,-1
 369 201 l 1,6,-1
EndSplineSet
EndChar

StartChar: ellipsis
Encoding: 8230 8230 271
Width: 2142
GlyphClass: 2
Flags: W
LayerCount: 2
Fore
SplineSet
2021 178 m 0,0,1
 2021 87 2021 87 1957 31 c 128,-1,2
 1893 -25 1893 -25 1780 -25 c 0,3,4
 1677 -25 1677 -25 1611.5 33.5 c 128,-1,5
 1546 92 1546 92 1546 178 c 0,6,7
 1546 266 1546 266 1610.5 320.5 c 128,-1,8
 1675 375 1675 375 1784 375 c 0,9,10
 1890 375 1890 375 1955.5 320.5 c 128,-1,11
 2021 266 2021 266 2021 178 c 0,0,1
1309 178 m 0,12,13
 1309 87 1309 87 1245 31 c 128,-1,14
 1181 -25 1181 -25 1067 -25 c 0,15,16
 964 -25 964 -25 899 34 c 128,-1,17
 834 93 834 93 834 178 c 0,18,19
 834 266 834 266 898.5 320.5 c 128,-1,20
 963 375 963 375 1071 375 c 0,21,22
 1176 375 1176 375 1242.5 321 c 128,-1,23
 1309 267 1309 267 1309 178 c 0,12,13
596 178 m 0,24,25
 596 87 596 87 532 31 c 128,-1,26
 468 -25 468 -25 354 -25 c 0,27,28
 251 -25 251 -25 186 34 c 128,-1,29
 121 93 121 93 121 178 c 0,30,31
 121 266 121 266 185.5 320.5 c 128,-1,32
 250 375 250 375 358 375 c 0,33,34
 465 375 465 375 530.5 320.5 c 128,-1,35
 596 266 596 266 596 178 c 0,24,25
EndSplineSet
EndChar

StartChar: OE
Encoding: 338 338 275
Width: 1954
GlyphClass: 2
Flags: W
AnchorPoint: "Anchor-14" 0 2100 basechar 0
AnchorPoint: "Anchor-13" 1926 2100 basechar 0
AnchorPoint: "Anchor-10" 1610 0 basechar 0
AnchorPoint: "Anchor-7" 1830 -420 basechar 0
AnchorPoint: "Anchor-6" 1935 1900 basechar 0
AnchorPoint: "Anchor-2" 1160 -25 basechar 0
AnchorPoint: "Anchor-1" 1826 1500 basechar 0
AnchorPoint: "Anchor-0" 1160 1600 basechar 0
LayerCount: 2
Fore
SplineSet
979 0 m 1,0,1
 895 -25 895 -25 758 -25 c 0,2,3
 556 -25 556 -25 397 68 c 128,-1,4
 238 161 238 161 149.5 329 c 128,-1,5
 61 497 61 497 61 698 c 0,6,7
 61 920 61 920 150.5 1094 c 128,-1,8
 240 1268 240 1268 403.5 1363 c 128,-1,9
 567 1458 567 1458 776 1458 c 0,10,11
 838 1458 838 1458 902 1451 c 128,-1,12
 966 1444 966 1444 999 1434 c 1,13,-1
 1858 1434 l 1,14,-1
 1858 1096 l 1,15,-1
 1397 1096 l 1,16,-1
 1397 887 l 1,17,-1
 1829 887 l 1,18,-1
 1829 549 l 1,19,-1
 1397 549 l 1,20,-1
 1397 338 l 1,21,-1
 1890 338 l 1,22,-1
 1890 0 l 1,23,-1
 979 0 l 1,0,1
946 1022 m 1,24,25
 881 1090 881 1090 793 1090 c 0,26,27
 663 1090 663 1090 591.5 990.5 c 128,-1,28
 520 891 520 891 520 705 c 0,29,30
 520 535 520 535 590.5 439.5 c 128,-1,31
 661 344 661 344 786 344 c 0,32,33
 880 344 880 344 946 410 c 1,34,-1
 946 1022 l 1,24,25
EndSplineSet
EndChar

StartChar: oe
Encoding: 339 339 276
Width: 1898
GlyphClass: 2
Flags: W
AnchorPoint: "Anchor-14" 0 2100 basechar 0
AnchorPoint: "Anchor-13" 1901 2100 basechar 0
AnchorPoint: "Anchor-10" 1520 0 basechar 0
AnchorPoint: "Anchor-7" 1826 -420 basechar 0
AnchorPoint: "Anchor-6" 1898 1900 basechar 0
AnchorPoint: "Anchor-4" 1781 910 basechar 0
AnchorPoint: "Anchor-2" 1021 -25 basechar 0
AnchorPoint: "Anchor-1" 1801 1200 basechar 0
AnchorPoint: "Anchor-0" 1021 1300 basechar 0
LayerCount: 2
Fore
SplineSet
1221 391 m 1,0,1
 1232 324 1232 324 1296.5 287 c 128,-1,2
 1361 250 1361 250 1468 250 c 0,3,4
 1541 250 1541 250 1618 266 c 128,-1,5
 1695 282 1695 282 1751 307 c 1,6,-1
 1751 37 l 1,7,8
 1681 9 1681 9 1588 -8 c 128,-1,9
 1495 -25 1495 -25 1415 -25 c 0,10,11
 1180 -25 1180 -25 1014 141 c 1,12,-1
 1010 141 l 1,13,14
 947 67 947 67 842.5 22 c 128,-1,15
 738 -23 738 -23 602 -23 c 0,16,17
 446 -23 446 -23 321.5 42 c 128,-1,18
 197 107 197 107 127 230 c 128,-1,19
 57 353 57 353 57 520 c 0,20,21
 57 680 57 680 125.5 800.5 c 128,-1,22
 194 921 194 921 317.5 986 c 128,-1,23
 441 1051 441 1051 596 1051 c 0,24,25
 713 1051 713 1051 816 1014 c 128,-1,26
 919 977 919 977 989 907 c 1,27,-1
 993 907 l 1,28,29
 1057 977 1057 977 1154.5 1013 c 128,-1,30
 1252 1049 1252 1049 1370 1049 c 0,31,32
 1521 1049 1521 1049 1630 986 c 128,-1,33
 1739 923 1739 923 1796 809 c 128,-1,34
 1853 695 1853 695 1853 551 c 2,35,-1
 1853 391 l 1,36,-1
 1221 391 l 1,0,1
1477 614 m 1,37,38
 1477 791 1477 791 1350 791 c 0,39,40
 1296 791 1296 791 1260.5 741.5 c 128,-1,41
 1225 692 1225 692 1219 614 c 1,42,-1
 1477 614 l 1,37,38
809 526 m 0,43,44
 809 624 809 624 768 681.5 c 128,-1,45
 727 739 727 739 651 739 c 0,46,47
 489 739 489 739 489 520 c 0,48,49
 489 289 489 289 651 289 c 0,50,51
 809 289 809 289 809 526 c 0,43,44
EndSplineSet
EndChar

StartChar: endash
Encoding: 8211 8211 277
Width: 1024
GlyphClass: 2
Flags: W
LayerCount: 2
Fore
SplineSet
0 393 m 1,0,-1
 0 680 l 1,1,-1
 1024 680 l 1,2,-1
 1024 393 l 1,3,-1
 0 393 l 1,0,-1
EndSplineSet
EndChar

StartChar: emdash
Encoding: 8212 8212 278
Width: 2048
GlyphClass: 2
Flags: W
LayerCount: 2
Fore
SplineSet
0 393 m 1,0,-1
 0 680 l 1,1,-1
 2048 680 l 1,2,-1
 2048 393 l 1,3,-1
 0 393 l 1,0,-1
EndSplineSet
EndChar

StartChar: quotedblleft
Encoding: 8220 8220 279
Width: 1188
GlyphClass: 2
Flags: W
LayerCount: 2
Fore
SplineSet
950 1024 m 1,0,-1
 582 1024 l 1,1,-1
 821 1468 l 1,2,-1
 1071 1468 l 1,3,-1
 950 1024 l 1,0,-1
457 1024 m 1,4,-1
 88 1024 l 1,5,-1
 328 1468 l 1,6,-1
 578 1468 l 1,7,-1
 457 1024 l 1,4,-1
EndSplineSet
EndChar

StartChar: quotedblright
Encoding: 8221 8221 280
Width: 1188
GlyphClass: 2
Flags: W
LayerCount: 2
Fore
SplineSet
858 1024 m 1,0,-1
 610 1024 l 1,1,-1
 733 1468 l 1,2,-1
 1100 1468 l 1,3,-1
 858 1024 l 1,0,-1
365 1024 m 1,4,-1
 117 1024 l 1,5,-1
 240 1468 l 1,6,-1
 606 1468 l 1,7,-1
 365 1024 l 1,4,-1
EndSplineSet
EndChar

StartChar: quoteleft
Encoding: 8216 8216 281
Width: 694
GlyphClass: 2
Flags: W
LayerCount: 2
Fore
SplineSet
457 1024 m 1,0,-1
 88 1024 l 1,1,-1
 328 1468 l 1,2,-1
 578 1468 l 1,3,-1
 457 1024 l 1,0,-1
EndSplineSet
EndChar

StartChar: quoteright
Encoding: 8217 8217 282
Width: 694
GlyphClass: 2
Flags: W
LayerCount: 2
Fore
SplineSet
365 1024 m 1,0,-1
 117 1024 l 1,1,-1
 240 1468 l 1,2,-1
 606 1468 l 1,3,-1
 365 1024 l 1,0,-1
EndSplineSet
EndChar

StartChar: divide
Encoding: 247 247 283
Width: 1464
GlyphClass: 2
Flags: W
LayerCount: 2
Fore
SplineSet
893 983 m 0,0,1
 893 914 893 914 848 868.5 c 128,-1,2
 803 823 803 823 735 823 c 0,3,4
 668 823 668 823 619.5 870.5 c 128,-1,5
 571 918 571 918 571 981 c 0,6,7
 571 1049 571 1049 617.5 1098 c 128,-1,8
 664 1147 664 1147 735 1147 c 0,9,10
 805 1147 805 1147 849 1100.5 c 128,-1,11
 893 1054 893 1054 893 983 c 0,0,1
238 455 m 1,12,-1
 238 702 l 1,13,-1
 1229 702 l 1,14,-1
 1229 455 l 1,15,-1
 238 455 l 1,12,-1
893 170 m 0,16,17
 893 101 893 101 848 55.5 c 128,-1,18
 803 10 803 10 735 10 c 0,19,20
 668 10 668 10 619.5 57.5 c 128,-1,21
 571 105 571 105 571 168 c 0,22,23
 571 237 571 237 617 284.5 c 128,-1,24
 663 332 663 332 735 332 c 0,25,26
 803 332 803 332 848 287.5 c 128,-1,27
 893 243 893 243 893 170 c 0,16,17
EndSplineSet
EndChar

StartChar: lozenge
Encoding: 9674 9674 284
Width: 1203
GlyphClass: 2
Flags: W
LayerCount: 2
Fore
SplineSet
1128 717 m 1,0,-1
 655 0 l 1,1,-1
 541 0 l 1,2,-1
 72 715 l 1,3,-1
 541 1434 l 1,4,-1
 655 1434 l 1,5,-1
 1128 717 l 1,0,-1
899 717 m 1,6,-1
 600 1188 l 1,7,-1
 301 717 l 1,8,-1
 600 246 l 1,9,-1
 899 717 l 1,6,-1
EndSplineSet
EndChar

StartChar: fraction
Encoding: 8260 8260 287
AltUni2: 002215.ffffffff.0 002215.ffffffff.0
Width: 999
GlyphClass: 2
Flags: W
LayerCount: 2
Fore
SplineSet
197 0 m 1,0,-1
 -119 0 l 1,1,-1
 803 1434 l 1,2,-1
 1118 1434 l 1,3,-1
 197 0 l 1,0,-1
EndSplineSet
EndChar

StartChar: Euro
Encoding: 8364 8364 288
Width: 1227
GlyphClass: 2
Flags: W
LayerCount: 2
Fore
SplineSet
1145 41 m 1,0,1
 1099 10 1099 10 1006.5 -8.5 c 128,-1,2
 914 -27 914 -27 819 -27 c 0,3,4
 593 -27 593 -27 442 92 c 128,-1,5
 291 211 291 211 240 432 c 1,6,-1
 104 432 l 1,7,-1
 104 645 l 1,8,-1
 205 645 l 1,9,-1
 203 700 l 1,10,-1
 203 734 l 1,11,-1
 205 768 l 1,12,-1
 104 768 l 1,13,-1
 104 977 l 1,14,-1
 236 977 l 1,15,16
 289 1208 289 1208 450 1333 c 128,-1,17
 611 1458 611 1458 858 1458 c 0,18,19
 936 1458 936 1458 1018 1442.5 c 128,-1,20
 1100 1427 1100 1427 1145 1403 c 1,21,-1
 1145 1081 l 1,22,23
 1031 1176 1031 1176 897 1176 c 0,24,25
 789 1176 789 1176 717 1124.5 c 128,-1,26
 645 1073 645 1073 614 977 c 1,27,-1
 995 977 l 1,28,-1
 995 768 l 1,29,-1
 578 768 l 1,30,-1
 575 702 l 1,31,-1
 578 645 l 1,32,-1
 995 645 l 1,33,-1
 995 432 l 1,34,-1
 621 432 l 1,35,36
 655 347 655 347 721 300.5 c 128,-1,37
 787 254 787 254 883 254 c 0,38,39
 1025 254 1025 254 1145 348 c 1,40,-1
 1145 41 l 1,0,1
EndSplineSet
EndChar

StartChar: guilsinglleft
Encoding: 8249 8249 289
Width: 750
GlyphClass: 2
Flags: W
LayerCount: 2
Fore
SplineSet
381 201 m 1,0,-1
 33 537 l 1,1,-1
 381 881 l 1,2,-1
 715 881 l 1,3,-1
 365 537 l 1,4,-1
 717 201 l 1,5,-1
 381 201 l 1,0,-1
EndSplineSet
EndChar

StartChar: guilsinglright
Encoding: 8250 8250 290
Width: 750
GlyphClass: 2
Flags: W
LayerCount: 2
Fore
SplineSet
369 201 m 1,0,-1
 33 201 l 1,1,-1
 385 537 l 1,2,-1
 35 881 l 1,3,-1
 369 881 l 1,4,-1
 717 537 l 1,5,-1
 369 201 l 1,0,-1
EndSplineSet
EndChar

StartChar: uniFB01
Encoding: 64257 64257 291
Width: 1513
GlyphClass: 2
Flags: W
LayerCount: 2
Fore
SplineSet
1436 1300 m 0,0,1
 1436 1210 1436 1210 1370.5 1154 c 128,-1,2
 1305 1098 1305 1098 1198 1098 c 0,3,4
 1094 1098 1094 1098 1027.5 1156 c 128,-1,5
 961 1214 961 1214 961 1300 c 0,6,7
 961 1388 961 1388 1025.5 1442.5 c 128,-1,8
 1090 1497 1090 1497 1198 1497 c 0,9,10
 1303 1497 1303 1497 1369.5 1443 c 128,-1,11
 1436 1389 1436 1389 1436 1300 c 0,0,1
985 0 m 1,12,-1
 985 1024 l 1,13,-1
 1411 1024 l 1,14,-1
 1411 0 l 1,15,-1
 985 0 l 1,12,-1
891 1206 m 1,16,17
 825 1229 825 1229 768 1229 c 0,18,19
 697 1229 697 1229 663 1192.5 c 128,-1,20
 629 1156 629 1156 629 1094 c 2,21,-1
 629 1024 l 1,22,-1
 866 1024 l 1,23,-1
 866 729 l 1,24,-1
 629 729 l 1,25,-1
 629 0 l 1,26,-1
 203 0 l 1,27,-1
 203 729 l 1,28,-1
 31 729 l 1,29,-1
 31 1024 l 1,30,-1
 203 1024 l 1,31,-1
 203 1118 l 2,32,33
 203 1243 203 1243 261 1338.5 c 128,-1,34
 319 1434 319 1434 429.5 1487 c 128,-1,35
 540 1540 540 1540 698 1540 c 0,36,37
 812 1540 812 1540 891 1518 c 1,38,-1
 891 1206 l 1,16,17
EndSplineSet
EndChar

StartChar: uniFB02
Encoding: 64258 64258 292
Width: 1513
GlyphClass: 2
Flags: W
LayerCount: 2
Fore
SplineSet
985 0 m 1,0,-1
 985 1516 l 1,1,-1
 1411 1516 l 1,2,-1
 1411 0 l 1,3,-1
 985 0 l 1,0,-1
891 1206 m 1,4,5
 825 1229 825 1229 768 1229 c 0,6,7
 697 1229 697 1229 663 1192.5 c 128,-1,8
 629 1156 629 1156 629 1094 c 2,9,-1
 629 1024 l 1,10,-1
 866 1024 l 1,11,-1
 866 729 l 1,12,-1
 629 729 l 1,13,-1
 629 0 l 1,14,-1
 203 0 l 1,15,-1
 203 729 l 1,16,-1
 31 729 l 1,17,-1
 31 1024 l 1,18,-1
 203 1024 l 1,19,-1
 203 1118 l 2,20,21
 203 1243 203 1243 261 1338.5 c 128,-1,22
 319 1434 319 1434 429.5 1487 c 128,-1,23
 540 1540 540 1540 698 1540 c 0,24,25
 812 1540 812 1540 891 1518 c 1,26,-1
 891 1206 l 1,4,5
EndSplineSet
EndChar

StartChar: daggerdbl
Encoding: 8225 8225 293
Width: 885
GlyphClass: 2
Flags: W
LayerCount: 2
Fore
SplineSet
575 543 m 1,0,-1
 575 242 l 1,1,-1
 309 242 l 1,2,-1
 309 543 l 1,3,-1
 61 543 l 1,4,-1
 61 764 l 1,5,-1
 309 764 l 1,6,-1
 309 924 l 1,7,-1
 61 924 l 1,8,-1
 61 1151 l 1,9,-1
 309 1151 l 1,10,-1
 309 1434 l 1,11,-1
 575 1434 l 1,12,-1
 575 1151 l 1,13,-1
 823 1151 l 1,14,-1
 823 924 l 1,15,-1
 575 924 l 1,16,-1
 575 764 l 1,17,-1
 823 764 l 1,18,-1
 823 543 l 1,19,-1
 575 543 l 1,0,-1
EndSplineSet
EndChar

StartChar: periodcentered
Encoding: 183 183 294
Width: 655
GlyphClass: 2
Flags: W
LayerCount: 2
Fore
SplineSet
565 713 m 0,0,1
 565 622 565 622 501 566 c 128,-1,2
 437 510 437 510 324 510 c 0,3,4
 222 510 222 510 156 568 c 128,-1,5
 90 626 90 626 90 713 c 0,6,7
 90 802 90 802 155.5 855.5 c 128,-1,8
 221 909 221 909 328 909 c 0,9,10
 433 909 433 909 499 855.5 c 128,-1,11
 565 802 565 802 565 713 c 0,0,1
EndSplineSet
EndChar

StartChar: quotesinglbase
Encoding: 8218 8218 295
Width: 694
GlyphClass: 2
Flags: W
LayerCount: 2
Fore
SplineSet
336 -225 m 1,0,-1
 88 -225 l 1,1,-1
 211 219 l 1,2,-1
 578 219 l 1,3,-1
 336 -225 l 1,0,-1
EndSplineSet
EndChar

StartChar: quotedblbase
Encoding: 8222 8222 296
Width: 1188
GlyphClass: 2
Flags: W
LayerCount: 2
Fore
SplineSet
829 -225 m 1,0,-1
 582 -225 l 1,1,-1
 705 219 l 1,2,-1
 1071 219 l 1,3,-1
 829 -225 l 1,0,-1
336 -225 m 1,4,-1
 88 -225 l 1,5,-1
 211 219 l 1,6,-1
 578 219 l 1,7,-1
 336 -225 l 1,4,-1
EndSplineSet
EndChar

StartChar: perthousand
Encoding: 8240 8240 297
Width: 2642
GlyphClass: 2
Flags: W
LayerCount: 2
Fore
SplineSet
2540 367 m 0,0,1
 2540 192 2540 192 2437 86 c 128,-1,2
 2334 -20 2334 -20 2159 -20 c 0,3,4
 1997 -20 1997 -20 1899.5 79 c 128,-1,5
 1802 178 1802 178 1802 340 c 0,6,7
 1802 518 1802 518 1906 622.5 c 128,-1,8
 2010 727 2010 727 2183 727 c 0,9,10
 2349 727 2349 727 2444.5 632 c 128,-1,11
 2540 537 2540 537 2540 367 c 0,0,1
1737 367 m 0,12,13
 1737 192 1737 192 1634 86 c 128,-1,14
 1531 -20 1531 -20 1356 -20 c 0,15,16
 1194 -20 1194 -20 1096.5 79 c 128,-1,17
 999 178 999 178 999 340 c 0,18,19
 999 518 999 518 1103 622.5 c 128,-1,20
 1207 727 1207 727 1380 727 c 0,21,22
 1546 727 1546 727 1641.5 632 c 128,-1,23
 1737 537 1737 537 1737 367 c 0,12,13
618 0 m 1,24,-1
 303 0 l 1,25,-1
 1225 1434 l 1,26,-1
 1540 1434 l 1,27,-1
 618 0 l 1,24,-1
838 1092 m 0,28,29
 838 914 838 914 734.5 809.5 c 128,-1,30
 631 705 631 705 459 705 c 0,31,32
 297 705 297 705 199.5 804 c 128,-1,33
 102 903 102 903 102 1065 c 0,34,35
 102 1241 102 1241 203.5 1347.5 c 128,-1,36
 305 1454 305 1454 481 1454 c 0,37,38
 647 1454 647 1454 742.5 1357 c 128,-1,39
 838 1260 838 1260 838 1092 c 0,28,29
2277 354 m 0,40,41
 2277 425 2277 425 2250 465.5 c 128,-1,42
 2223 506 2223 506 2177 506 c 0,43,44
 2124 506 2124 506 2096 462.5 c 128,-1,45
 2068 419 2068 419 2068 348 c 0,46,47
 2068 278 2068 278 2094 239.5 c 128,-1,48
 2120 201 2120 201 2171 201 c 0,49,50
 2223 201 2223 201 2250 241.5 c 128,-1,51
 2277 282 2277 282 2277 354 c 0,40,41
1475 354 m 0,52,53
 1475 425 1475 425 1448 465.5 c 128,-1,54
 1421 506 1421 506 1374 506 c 0,55,56
 1322 506 1322 506 1294 463.5 c 128,-1,57
 1266 421 1266 421 1266 348 c 0,58,59
 1266 279 1266 279 1291.5 240 c 128,-1,60
 1317 201 1317 201 1368 201 c 0,61,62
 1420 201 1420 201 1447.5 241 c 128,-1,63
 1475 281 1475 281 1475 354 c 0,52,53
575 1081 m 0,64,65
 575 1150 575 1150 549.5 1190.5 c 128,-1,66
 524 1231 524 1231 477 1231 c 0,67,68
 425 1231 425 1231 397 1188.5 c 128,-1,69
 369 1146 369 1146 369 1073 c 0,70,71
 369 1004 369 1004 394.5 965 c 128,-1,72
 420 926 420 926 471 926 c 0,73,74
 521 926 521 926 548 966 c 128,-1,75
 575 1006 575 1006 575 1081 c 0,64,65
EndSplineSet
EndChar

StartChar: dotlessi
Encoding: 305 305 313
Width: 631
GlyphClass: 2
Flags: W
AnchorPoint: "Anchor-14" 0 2100 basechar 0
AnchorPoint: "Anchor-13" 544 2100 basechar 0
AnchorPoint: "Anchor-10" 180 0 basechar 0
AnchorPoint: "Anchor-7" 378 -420 basechar 0
AnchorPoint: "Anchor-6" 583 1900 basechar 0
AnchorPoint: "Anchor-4" 368 1030 basechar 0
AnchorPoint: "Anchor-2" 315 -15 basechar 0
AnchorPoint: "Anchor-1" 428 1104 basechar 0
AnchorPoint: "Anchor-0" 315 1184 basechar 0
LayerCount: 2
Fore
SplineSet
102 0 m 1,0,-1
 102 1024 l 1,1,-1
 528 1024 l 1,2,-1
 528 0 l 1,3,-1
 102 0 l 1,0,-1
EndSplineSet
EndChar

StartChar: circumflex
Encoding: 710 710 314
Width: 785
GlyphClass: 2
Flags: W
LayerCount: 2
Fore
SplineSet
539 1186 m 1,0,-1
 391 1339 l 1,1,-1
 244 1186 l 1,2,-1
 -18 1186 l 1,3,-1
 238 1507 l 1,4,-1
 555 1507 l 1,5,-1
 811 1186 l 1,6,-1
 539 1186 l 1,0,-1
EndSplineSet
EndChar

StartChar: tilde
Encoding: 732 732 315
Width: 785
GlyphClass: 2
Flags: W
LayerCount: 2
Fore
SplineSet
784 1540 m 1,0,1
 784 1375 784 1375 724 1287.5 c 128,-1,2
 664 1200 664 1200 551 1200 c 0,3,4
 463 1200 463 1200 381 1249 c 0,5,6
 347 1269 347 1269 318.5 1287 c 128,-1,7
 290 1305 290 1305 258 1305 c 0,8,9
 220 1305 220 1305 198 1274 c 128,-1,10
 176 1243 176 1243 176 1186 c 1,11,-1
 2 1186 l 1,12,13
 2 1356 2 1356 63.5 1441 c 128,-1,14
 125 1526 125 1526 231 1526 c 0,15,16
 333 1526 333 1526 420 1468 c 0,17,18
 449 1450 449 1450 475 1435.5 c 128,-1,19
 501 1421 501 1421 532 1421 c 0,20,21
 566 1421 566 1421 587 1450.5 c 128,-1,22
 608 1480 608 1480 608 1540 c 1,23,-1
 784 1540 l 1,0,1
EndSplineSet
EndChar

StartChar: uni02C9
Encoding: 713 713 316
Width: 690
GlyphClass: 2
Flags: W
LayerCount: 2
Fore
SplineSet
16 1187 m 1,0,-1
 16 1410 l 1,1,-1
 671 1410 l 1,2,-1
 671 1187 l 1,3,-1
 16 1187 l 1,0,-1
EndSplineSet
EndChar

StartChar: breve
Encoding: 728 728 317
Width: 709
GlyphClass: 2
Flags: W
LayerCount: 2
Fore
SplineSet
743 1532 m 1,0,1
 727 1365 727 1365 626 1275.5 c 128,-1,2
 525 1186 525 1186 350 1186 c 0,3,4
 238 1186 238 1186 151 1230 c 128,-1,5
 64 1274 64 1274 15 1354 c 128,-1,6
 -34 1434 -34 1434 -35 1532 c 1,7,-1
 205 1532 l 1,8,9
 215 1477 215 1477 254 1445 c 128,-1,10
 293 1413 293 1413 356 1413 c 0,11,12
 418 1413 418 1413 456 1445 c 128,-1,13
 494 1477 494 1477 504 1532 c 1,14,-1
 743 1532 l 1,0,1
EndSplineSet
EndChar

StartChar: dotaccent
Encoding: 729 729 318
Width: 518
GlyphClass: 2
Flags: W
LayerCount: 2
Fore
SplineSet
489 1350 m 0,0,1
 489 1277 489 1277 436 1231.5 c 128,-1,2
 383 1186 383 1186 297 1186 c 0,3,4
 213 1186 213 1186 158.5 1233 c 128,-1,5
 104 1280 104 1280 104 1350 c 0,6,7
 104 1422 104 1422 157.5 1465.5 c 128,-1,8
 211 1509 211 1509 297 1509 c 0,9,10
 384 1509 384 1509 436.5 1465.5 c 128,-1,11
 489 1422 489 1422 489 1350 c 0,0,1
EndSplineSet
EndChar

StartChar: ring
Encoding: 730 730 319
Width: 555
GlyphClass: 2
Flags: W
LayerCount: 2
Fore
SplineSet
541 1421 m 0,0,1
 541 1315 541 1315 465.5 1250.5 c 128,-1,2
 390 1186 390 1186 270 1186 c 0,3,4
 155 1186 155 1186 80.5 1251.5 c 128,-1,5
 6 1317 6 1317 6 1421 c 0,6,7
 6 1493 6 1493 40.5 1545.5 c 128,-1,8
 75 1598 75 1598 136 1626.5 c 128,-1,9
 197 1655 197 1655 270 1655 c 0,10,11
 394 1655 394 1655 467.5 1590.5 c 128,-1,12
 541 1526 541 1526 541 1421 c 0,0,1
367 1421 m 0,13,14
 367 1453 367 1453 343.5 1477 c 128,-1,15
 320 1501 320 1501 270 1501 c 0,16,17
 225 1501 225 1501 202.5 1478 c 128,-1,18
 180 1455 180 1455 180 1421 c 256,19,20
 180 1387 180 1387 205.5 1364 c 128,-1,21
 231 1341 231 1341 270 1341 c 0,22,23
 312 1341 312 1341 339.5 1363.5 c 128,-1,24
 367 1386 367 1386 367 1421 c 0,13,14
EndSplineSet
EndChar

StartChar: cedilla
Encoding: 184 184 320
Width: 457
GlyphClass: 2
Flags: W
LayerCount: 2
Fore
SplineSet
514 -244 m 0,0,1
 514 -355 514 -355 423.5 -414 c 128,-1,2
 333 -473 333 -473 166 -473 c 0,3,4
 113 -473 113 -473 51 -467 c 1,5,-1
 51 -295 l 1,6,7
 88 -303 88 -303 133 -303 c 0,8,9
 190 -303 190 -303 219 -286.5 c 128,-1,10
 248 -270 248 -270 248 -244 c 0,11,12
 248 -213 248 -213 224.5 -198.5 c 128,-1,13
 201 -184 201 -184 145 -184 c 2,14,-1
 127 -184 l 1,15,-1
 106 -186 l 1,16,-1
 106 0 l 1,17,-1
 319 0 l 1,18,-1
 319 -66 l 1,19,20
 514 -80 514 -80 514 -244 c 0,0,1
EndSplineSet
EndChar

StartChar: hungarumlaut
Encoding: 733 733 321
Width: 832
GlyphClass: 2
Flags: W
LayerCount: 2
Fore
SplineSet
777 1186 m 1,0,-1
 474 1186 l 1,1,-1
 691 1509 l 1,2,-1
 1037 1509 l 1,3,-1
 777 1186 l 1,0,-1
291 1186 m 1,4,-1
 -12 1186 l 1,5,-1
 205 1509 l 1,6,-1
 551 1509 l 1,7,-1
 291 1186 l 1,4,-1
EndSplineSet
EndChar

StartChar: ogonek
Encoding: 731 731 322
Width: 545
GlyphClass: 2
Flags: W
LayerCount: 2
Fore
SplineSet
375 0 m 1,0,1
 351 -38 351 -38 333 -85.5 c 128,-1,2
 315 -133 315 -133 315 -171 c 0,3,4
 315 -208 315 -208 335 -227 c 128,-1,5
 355 -246 355 -246 388 -246 c 0,6,7
 444 -246 444 -246 506 -218 c 1,8,-1
 506 -372 l 1,9,10
 472 -391 472 -391 419.5 -403.5 c 128,-1,11
 367 -416 367 -416 326 -416 c 0,12,13
 210 -416 210 -416 152 -361.5 c 128,-1,14
 94 -307 94 -307 94 -213 c 0,15,16
 94 -155 94 -155 121.5 -99.5 c 128,-1,17
 149 -44 149 -44 198 0 c 1,18,-1
 375 0 l 1,0,1
EndSplineSet
EndChar

StartChar: caron
Encoding: 711 711 323
Width: 785
GlyphClass: 2
Flags: W
LayerCount: 2
Fore
SplineSet
811 1507 m 1,0,-1
 555 1186 l 1,1,-1
 238 1186 l 1,2,-1
 -18 1507 l 1,3,-1
 244 1507 l 1,4,-1
 391 1354 l 1,5,-1
 539 1507 l 1,6,-1
 811 1507 l 1,0,-1
EndSplineSet
EndChar

StartChar: Lslash
Encoding: 321 321 324
Width: 1108
GlyphClass: 2
Flags: W
AnchorPoint: "Anchor-14" 0 2100 basechar 0
AnchorPoint: "Anchor-13" 1018 2100 basechar 0
AnchorPoint: "Anchor-10" 730 0 basechar 0
AnchorPoint: "Anchor-7" 986 -420 basechar 0
AnchorPoint: "Anchor-6" 1055 1900 basechar 0
AnchorPoint: "Anchor-2" 644 -15 basechar 0
AnchorPoint: "Anchor-1" 954 1500 basechar 0
AnchorPoint: "Anchor-0" 644 1600 basechar 0
LayerCount: 2
Fore
SplineSet
141 0 m 1,0,-1
 141 406 l 1,1,-1
 -12 340 l 1,2,-1
 -12 678 l 1,3,-1
 141 743 l 1,4,-1
 141 1434 l 1,5,-1
 573 1434 l 1,6,-1
 573 928 l 1,7,-1
 834 1038 l 1,8,-1
 834 700 l 1,9,-1
 573 590 l 1,10,-1
 573 338 l 1,11,-1
 1067 338 l 1,12,-1
 1067 0 l 1,13,-1
 141 0 l 1,0,-1
EndSplineSet
EndChar

StartChar: lslash
Encoding: 322 322 325
Width: 692
GlyphClass: 2
Flags: W
AnchorPoint: "Anchor-14" 0 2100 basechar 0
AnchorPoint: "Anchor-13" 608 2100 basechar 0
AnchorPoint: "Anchor-10" 200 0 basechar 0
AnchorPoint: "Anchor-7" 577 -420 basechar 0
AnchorPoint: "Anchor-6" 645 1900 basechar 0
AnchorPoint: "Anchor-2" 346 -15 basechar 0
AnchorPoint: "Anchor-1" 467 1600 basechar 0
AnchorPoint: "Anchor-0" 346 1650 basechar 0
LayerCount: 2
Fore
SplineSet
559 651 m 1,0,-1
 559 0 l 1,1,-1
 133 0 l 1,2,-1
 133 399 l 1,3,-1
 35 342 l 1,4,-1
 35 664 l 1,5,-1
 133 721 l 1,6,-1
 133 1516 l 1,7,-1
 559 1516 l 1,8,-1
 559 973 l 1,9,-1
 662 1032 l 1,10,-1
 662 711 l 1,11,-1
 559 651 l 1,0,-1
EndSplineSet
EndChar

StartChar: brokenbar
Encoding: 166 166 330
Width: 815
GlyphClass: 2
Flags: W
LayerCount: 2
Fore
SplineSet
244 657 m 1,0,-1
 244 1567 l 1,1,-1
 571 1567 l 1,2,-1
 571 657 l 1,3,-1
 244 657 l 1,0,-1
244 -481 m 1,4,-1
 244 453 l 1,5,-1
 571 453 l 1,6,-1
 571 -481 l 1,7,-1
 244 -481 l 1,4,-1
EndSplineSet
EndChar

StartChar: Eth
Encoding: 208 208 331
Width: 1554
GlyphClass: 2
Flags: W
AnchorPoint: "Anchor-14" 0 2100 basechar 0
AnchorPoint: "Anchor-13" 1479 2100 basechar 0
AnchorPoint: "Anchor-10" 795 27 basechar 0
AnchorPoint: "Anchor-7" 1385 -420 basechar 0
AnchorPoint: "Anchor-6" 1512 1900 basechar 0
AnchorPoint: "Anchor-2" 743 -15 basechar 0
AnchorPoint: "Anchor-1" 1273 1500 basechar 0
AnchorPoint: "Anchor-0" 743 1600 basechar 0
LayerCount: 2
Fore
SplineSet
1493 735 m 0,0,1
 1493 517 1493 517 1401.5 349.5 c 128,-1,2
 1310 182 1310 182 1140 91 c 128,-1,3
 970 0 970 0 748 0 c 2,4,-1
 141 0 l 1,5,-1
 141 549 l 1,6,-1
 -25 549 l 1,7,-1
 -25 887 l 1,8,-1
 141 887 l 1,9,-1
 141 1434 l 1,10,-1
 735 1434 l 2,11,12
 1493 1434 1493 1434 1493 735 c 0,0,1
1034 731 m 0,13,14
 1034 836 1034 836 991.5 920 c 128,-1,15
 949 1004 949 1004 870 1050 c 128,-1,16
 791 1096 791 1096 684 1096 c 2,17,-1
 573 1096 l 1,18,-1
 573 887 l 1,19,-1
 813 887 l 1,20,-1
 813 549 l 1,21,-1
 573 549 l 1,22,-1
 573 338 l 1,23,-1
 694 338 l 2,24,25
 849 338 849 338 941.5 444.5 c 128,-1,26
 1034 551 1034 551 1034 731 c 0,13,14
EndSplineSet
EndChar

StartChar: eth
Encoding: 240 240 332
Width: 1278
GlyphClass: 2
Flags: W
AnchorPoint: "Anchor-14" 0 2100 basechar 0
AnchorPoint: "Anchor-13" 1196 2100 basechar 0
AnchorPoint: "Anchor-10" 717 9 basechar 0
AnchorPoint: "Anchor-7" 1099 -420 basechar 0
AnchorPoint: "Anchor-6" 1227 1900 basechar 0
AnchorPoint: "Anchor-5" 663 463 basechar 0
AnchorPoint: "Anchor-2" 663 -25 basechar 0
AnchorPoint: "Anchor-1" 1096 1524 basechar 0
AnchorPoint: "Anchor-0" 623 1684 basechar 0
LayerCount: 2
Fore
SplineSet
1221 590 m 0,0,1
 1221 410 1221 410 1146.5 269 c 128,-1,2
 1072 128 1072 128 937.5 51.5 c 128,-1,3
 803 -25 803 -25 631 -25 c 0,4,5
 361 -25 361 -25 209 121.5 c 128,-1,6
 57 268 57 268 57 528 c 0,7,8
 57 674 57 674 118 789.5 c 128,-1,9
 179 905 179 905 289.5 969.5 c 128,-1,10
 400 1034 400 1034 535 1034 c 0,11,12
 588 1034 588 1034 644 1014 c 128,-1,13
 700 994 700 994 745 956 c 1,14,-1
 750 958 l 1,15,16
 669 1093 669 1093 549 1184 c 1,17,-1
 264 1047 l 1,18,-1
 162 1214 l 1,19,-1
 383 1317 l 1,20,-1
 111 1516 l 1,21,-1
 549 1516 l 1,22,-1
 651 1446 l 1,23,-1
 913 1573 l 1,24,-1
 1004 1405 l 1,25,-1
 827 1319 l 1,26,27
 1017 1182 1017 1182 1119 993.5 c 128,-1,28
 1221 805 1221 805 1221 590 c 0,0,1
788 528 m 0,29,30
 788 741 788 741 641 741 c 0,31,32
 570 741 570 741 529.5 682 c 128,-1,33
 489 623 489 623 489 522 c 0,34,35
 489 404 489 404 530 347.5 c 128,-1,36
 571 291 571 291 637 291 c 0,37,38
 709 291 709 291 748.5 351 c 128,-1,39
 788 411 788 411 788 528 c 0,29,30
EndSplineSet
EndChar

StartChar: Thorn
Encoding: 222 222 335
Width: 1343
GlyphClass: 2
Flags: W
AnchorPoint: "Anchor-14" 0 2100 basechar 0
AnchorPoint: "Anchor-13" 1220 2100 basechar 0
AnchorPoint: "Anchor-10" 190 0 basechar 0
AnchorPoint: "Anchor-7" 1138 -420 basechar 0
AnchorPoint: "Anchor-6" 1270 1900 basechar 0
AnchorPoint: "Anchor-2" 646 -15 basechar 0
AnchorPoint: "Anchor-1" 1220 1274 basechar 0
AnchorPoint: "Anchor-0" 646 1594 basechar 0
LayerCount: 2
Fore
SplineSet
1313 758 m 0,0,1
 1313 611 1313 611 1238.5 497 c 128,-1,2
 1164 383 1164 383 1026 320.5 c 128,-1,3
 888 258 888 258 705 258 c 2,4,-1
 573 258 l 1,5,-1
 573 0 l 1,6,-1
 141 0 l 1,7,-1
 141 1434 l 1,8,-1
 573 1434 l 1,9,-1
 573 1231 l 1,10,-1
 729 1231 l 2,11,12
 1032 1231 1032 1231 1172.5 1116 c 128,-1,13
 1313 1001 1313 1001 1313 758 c 0,0,1
856 743 m 0,14,15
 856 831 856 831 805.5 876.5 c 128,-1,16
 755 922 755 922 655 922 c 2,17,-1
 573 922 l 1,18,-1
 573 567 l 1,19,-1
 670 567 l 2,20,21
 856 567 856 567 856 743 c 0,14,15
EndSplineSet
EndChar

StartChar: thorn
Encoding: 254 254 336
Width: 1315
GlyphClass: 2
Flags: W
AnchorPoint: "Anchor-14" 0 2100 basechar 0
AnchorPoint: "Anchor-13" 1245 2100 basechar 0
AnchorPoint: "Anchor-10" 211 -470 basechar 0
AnchorPoint: "Anchor-7" 1149 -420 basechar 0
AnchorPoint: "Anchor-6" 1275 1900 basechar 0
AnchorPoint: "Anchor-2" 643 -470 basechar 0
AnchorPoint: "Anchor-1" 1045 1356 basechar 0
AnchorPoint: "Anchor-0" 643 1676 basechar 0
LayerCount: 2
Fore
SplineSet
1257 543 m 0,0,1
 1257 375 1257 375 1200 246 c 128,-1,2
 1143 117 1143 117 1039 46 c 128,-1,3
 935 -25 935 -25 805 -25 c 0,4,5
 625 -25 625 -25 532 106 c 1,6,-1
 528 106 l 1,7,-1
 528 -471 l 1,8,-1
 102 -471 l 1,9,-1
 102 1516 l 1,10,-1
 528 1516 l 1,11,-1
 528 885 l 1,12,-1
 532 885 l 1,13,14
 583 962 583 962 664 1005.5 c 128,-1,15
 745 1049 745 1049 848 1049 c 0,16,17
 1046 1049 1046 1049 1151.5 917 c 128,-1,18
 1257 785 1257 785 1257 543 c 0,0,1
825 530 m 0,19,20
 825 627 825 627 787.5 682 c 128,-1,21
 750 737 750 737 672 737 c 0,22,23
 604 737 604 737 562 679 c 128,-1,24
 520 621 520 621 520 520 c 2,25,-1
 520 500 l 2,26,27
 520 403 520 403 556 345 c 128,-1,28
 592 287 592 287 664 287 c 0,29,30
 741 287 741 287 783 350.5 c 128,-1,31
 825 414 825 414 825 530 c 0,19,20
EndSplineSet
EndChar

StartChar: minus
Encoding: 8722 8722 337
Width: 1464
GlyphClass: 2
Flags: W
LayerCount: 2
Fore
SplineSet
238 455 m 1,0,-1
 238 702 l 1,1,-1
 1229 702 l 1,2,-1
 1229 455 l 1,3,-1
 238 455 l 1,0,-1
EndSplineSet
EndChar

StartChar: multiply
Encoding: 215 215 338
Width: 1464
GlyphClass: 2
Flags: W
LayerCount: 2
Fore
SplineSet
1071 66 m 1,0,-1
 735 406 l 1,1,-1
 399 66 l 1,2,-1
 221 242 l 1,3,-1
 557 575 l 1,4,-1
 219 915 l 1,5,-1
 389 1094 l 1,6,-1
 735 754 l 1,7,-1
 1079 1094 l 1,8,-1
 1243 905 l 1,9,-1
 909 575 l 1,10,-1
 1247 240 l 1,11,-1
 1071 66 l 1,0,-1
EndSplineSet
EndChar

StartChar: glyph240
Encoding: 1114114 -1 339
Width: 758
GlyphClass: 2
Flags: W
LayerCount: 2
Fore
SplineSet
285 584 m 1,0,-1
 285 1194 l 1,1,2
 231 1160 231 1160 179.5 1140.5 c 128,-1,3
 128 1121 128 1121 76 1111 c 1,4,-1
 76 1320 l 1,5,6
 110 1324 110 1324 151 1337.5 c 128,-1,7
 192 1351 192 1351 232.5 1370.5 c 128,-1,8
 273 1390 273 1390 309.5 1412 c 128,-1,9
 346 1434 346 1434 372 1454 c 1,10,-1
 545 1454 l 1,11,-1
 545 584 l 1,12,-1
 285 584 l 1,0,-1
EndSplineSet
EndChar

StartChar: glyph241
Encoding: 1114115 -1 340
Width: 758
GlyphClass: 2
Flags: W
LayerCount: 2
Fore
SplineSet
49 584 m 1,0,-1
 49 674 l 2,1,2
 49 743 49 743 75 792 c 128,-1,3
 101 841 101 841 140 878.5 c 128,-1,4
 179 916 179 916 225 946 c 128,-1,5
 271 976 271 976 310 1007 c 128,-1,6
 349 1038 349 1038 375 1073 c 128,-1,7
 401 1108 401 1108 401 1157 c 0,8,9
 401 1185 401 1185 377 1207 c 128,-1,10
 353 1229 353 1229 305 1229 c 0,11,12
 265 1229 265 1229 209 1208 c 128,-1,13
 153 1187 153 1187 100 1147 c 1,14,-1
 100 1393 l 1,15,16
 160 1425 160 1425 223 1439.5 c 128,-1,17
 286 1454 286 1454 358 1454 c 0,18,19
 434 1454 434 1454 493 1435.5 c 128,-1,20
 552 1417 552 1417 592.5 1384 c 128,-1,21
 633 1351 633 1351 653.5 1305.5 c 128,-1,22
 674 1260 674 1260 674 1206 c 0,23,24
 674 1136 674 1136 651.5 1083 c 128,-1,25
 629 1030 629 1030 595 990 c 128,-1,26
 561 950 561 950 521.5 921.5 c 128,-1,27
 482 893 482 893 448 871.5 c 128,-1,28
 414 850 414 850 391.5 834 c 128,-1,29
 369 818 369 818 369 803 c 2,30,-1
 369 799 l 1,31,-1
 688 799 l 1,32,-1
 688 584 l 1,33,-1
 49 584 l 1,0,-1
EndSplineSet
EndChar

StartChar: glyph242
Encoding: 1114116 -1 341
Width: 758
GlyphClass: 2
Flags: W
LayerCount: 2
Fore
SplineSet
690 836 m 0,0,1
 690 711 690 711 583.5 637 c 128,-1,2
 477 563 477 563 307 563 c 0,3,4
 227 563 227 563 171 579.5 c 128,-1,5
 115 596 115 596 72 614 c 1,6,-1
 72 811 l 1,7,8
 178 758 178 758 289 758 c 0,9,10
 424 758 424 758 424 838 c 0,11,12
 424 875 424 875 389.5 896.5 c 128,-1,13
 355 918 355 918 289 918 c 2,14,-1
 150 918 l 1,15,-1
 150 1112 l 1,16,-1
 281 1112 l 2,17,18
 337 1112 337 1112 368 1132 c 128,-1,19
 399 1152 399 1152 399 1188 c 0,20,21
 399 1220 399 1220 372 1240 c 128,-1,22
 345 1260 345 1260 297 1260 c 0,23,24
 184 1260 184 1260 94 1204 c 1,25,-1
 94 1397 l 1,26,27
 218 1454 218 1454 350 1454 c 0,28,29
 497 1454 497 1454 580.5 1395 c 128,-1,30
 664 1336 664 1336 664 1231 c 0,31,32
 664 1157 664 1157 626 1107.5 c 128,-1,33
 588 1058 588 1058 522 1040 c 1,34,-1
 522 1036 l 1,35,36
 599 1020 599 1020 644.5 966 c 128,-1,37
 690 912 690 912 690 836 c 0,0,1
EndSplineSet
EndChar

StartChar: franc
Encoding: 8355 8355 345
Width: 1108
GlyphClass: 2
Flags: W
LayerCount: 2
Fore
SplineSet
573 182 m 1,0,-1
 573 0 l 1,1,-1
 141 0 l 1,2,-1
 141 182 l 1,3,-1
 20 182 l 1,4,-1
 20 395 l 1,5,-1
 141 395 l 1,6,-1
 141 1434 l 1,7,-1
 1040 1434 l 1,8,-1
 1040 1096 l 1,9,-1
 573 1096 l 1,10,-1
 573 868 l 1,11,-1
 999 868 l 1,12,-1
 999 530 l 1,13,-1
 573 530 l 1,14,-1
 573 395 l 1,15,-1
 851 395 l 1,16,-1
 851 182 l 1,17,-1
 573 182 l 1,0,-1
EndSplineSet
EndChar

StartChar: Scedilla
Encoding: 350 350 349
Width: 1171
GlyphClass: 2
Flags: W
AnchorPoint: "Anchor-14" 0 2100 basechar 0
AnchorPoint: "Anchor-13" 1116 2100 basechar 0
AnchorPoint: "Anchor-10" 598 -400 basechar 0
AnchorPoint: "Anchor-7" 1018 -420 basechar 0
AnchorPoint: "Anchor-6" 1143 1900 basechar 0
AnchorPoint: "Anchor-2" 578 -440 basechar 0
AnchorPoint: "Anchor-1" 1008 1500 basechar 0
AnchorPoint: "Anchor-0" 598 1600 basechar 0
LayerCount: 2
Fore
SplineSet
1137 434 m 0,0,1
 1137 253 1137 253 1016.5 134 c 128,-1,2
 896 15 896 15 667 -15 c 1,3,-1
 667 -66 l 1,4,5
 862 -80 862 -80 862 -244 c 0,6,7
 862 -355 862 -355 771.5 -414 c 128,-1,8
 681 -473 681 -473 514 -473 c 0,9,10
 461 -473 461 -473 399 -467 c 1,11,-1
 399 -295 l 1,12,13
 436 -303 436 -303 481 -303 c 0,14,15
 538 -303 538 -303 567 -286.5 c 128,-1,16
 596 -270 596 -270 596 -244 c 0,17,18
 596 -213 596 -213 572.5 -198.5 c 128,-1,19
 549 -184 549 -184 493 -184 c 2,20,-1
 475 -184 l 1,21,-1
 454 -186 l 1,22,-1
 455 -23 l 1,23,24
 262 -15 262 -15 102 51 c 1,25,-1
 102 444 l 1,26,27
 192 378 192 378 301 337.5 c 128,-1,28
 410 297 410 297 504 297 c 0,29,30
 575 297 575 297 614 322.5 c 128,-1,31
 653 348 653 348 653 397 c 0,32,33
 653 432 653 432 633.5 458.5 c 128,-1,34
 614 485 614 485 574.5 508 c 128,-1,35
 535 531 535 531 428 571 c 0,36,37
 82 704 82 704 82 1001 c 0,38,39
 82 1209 82 1209 240 1333.5 c 128,-1,40
 398 1458 398 1458 664 1458 c 0,41,42
 739 1458 739 1458 802 1452 c 128,-1,43
 865 1446 865 1446 916.5 1437 c 128,-1,44
 968 1428 968 1428 1061 1403 c 1,45,-1
 1061 1038 l 1,46,47
 880 1137 880 1137 705 1137 c 0,48,49
 633 1137 633 1137 589 1110 c 128,-1,50
 545 1083 545 1083 545 1036 c 0,51,52
 545 991 545 991 580.5 961.5 c 128,-1,53
 616 932 616 932 729 885 c 0,54,55
 952 795 952 795 1044.5 688 c 128,-1,56
 1137 581 1137 581 1137 434 c 0,0,1
EndSplineSet
EndChar

StartChar: scedilla
Encoding: 351 351 350
Width: 989
GlyphClass: 2
Flags: W
AnchorPoint: "Anchor-14" 0 2100 basechar 0
AnchorPoint: "Anchor-13" 922 2100 basechar 0
AnchorPoint: "Anchor-10" 513 -400 basechar 0
AnchorPoint: "Anchor-7" 836 -420 basechar 0
AnchorPoint: "Anchor-6" 936 1900 basechar 0
AnchorPoint: "Anchor-2" 483 -440 basechar 0
AnchorPoint: "Anchor-1" 823 1200 basechar 0
AnchorPoint: "Anchor-0" 483 1300 basechar 0
LayerCount: 2
Fore
SplineSet
934 340 m 0,0,1
 934 193 934 193 839.5 101.5 c 128,-1,2
 745 10 745 10 571 -15 c 1,3,-1
 571 -66 l 1,4,5
 766 -80 766 -80 766 -244 c 0,6,7
 766 -355 766 -355 675.5 -414 c 128,-1,8
 585 -473 585 -473 418 -473 c 0,9,10
 365 -473 365 -473 303 -467 c 1,11,-1
 303 -295 l 1,12,13
 340 -303 340 -303 385 -303 c 0,14,15
 442 -303 442 -303 471 -286.5 c 128,-1,16
 500 -270 500 -270 500 -244 c 0,17,18
 500 -213 500 -213 476.5 -198.5 c 128,-1,19
 453 -184 453 -184 397 -184 c 2,20,-1
 379 -184 l 1,21,-1
 358 -186 l 1,22,-1
 359 -22 l 1,23,24
 207 -9 207 -9 96 23 c 1,25,-1
 96 322 l 1,26,27
 285 238 285 238 412 238 c 0,28,29
 537 238 537 238 537 303 c 0,30,31
 537 330 537 330 508 347.5 c 128,-1,32
 479 365 479 365 356 406 c 0,33,34
 220 449 220 449 158 520 c 128,-1,35
 96 591 96 591 96 705 c 0,36,37
 96 864 96 864 222.5 956.5 c 128,-1,38
 349 1049 349 1049 578 1049 c 0,39,40
 712 1049 712 1049 862 1010 c 1,41,-1
 862 723 l 1,42,43
 799 750 799 750 724 768 c 128,-1,44
 649 786 649 786 598 786 c 0,45,46
 556 786 556 786 531 772 c 128,-1,47
 506 758 506 758 506 733 c 0,48,49
 506 704 506 704 533 686 c 128,-1,50
 560 668 560 668 641 643 c 0,51,52
 798 597 798 597 866 525 c 128,-1,53
 934 453 934 453 934 340 c 0,0,1
EndSplineSet
EndChar

